<svg xmlns="http://www.w3.org/2000/svg" width="22" height="22" viewBox="0 0 22 22">
    <g fill="none" fill-rule="evenodd">
        <path fill="#E7E9F6" fill-rule="nonzero" d="M4.443 8.174h14.514V20.17H4.443z"/>
        <path fill="#FFC966" fill-rule="nonzero" d="M12.08 7.042l-1.649.004 3.07-3.038.82.794z"/>
        <path fill="#0E207C" fill-rule="nonzero" d="M19.518 7.03h-1.444a.549.549 0 0 0-.102-.14L11.96.875a.56.56 0 0 0-.792 0L5.013 7.03H1.498a.56.56 0 0 0-.56.56v13.139c0 .31.25.56.56.56h18.02c.309 0 .56-.25.56-.56V7.589a.56.56 0 0 0-.56-.56zm-4.416-1.426l1.426 1.426h-2.85l1.424-1.426zM12.12 7.03h-1.648l3.027-3.028.81.81-2.202 2.204.013.014zm-.56-4.967l1.147 1.147-3.819 3.82H6.594l4.966-4.967zM2.056 8.15H3.32v12.019H2.058l-.002-12.02zm16.902 12.019H4.44V8.149h14.518v12.02z"/>
        <path d="M-1-1h24v24H-1z"/>
        <path fill="#FFC966" fill-rule="nonzero" d="M17.2 12.922h3.302v2.487H17.2z"/>
        <path fill="#0E207C" fill-rule="nonzero" d="M20.502 15.969H17.2a.56.56 0 0 1-.56-.56V12.92c0-.31.25-.56.56-.56h3.302c.31 0 .56.25.56.56v2.487a.56.56 0 0 1-.56.562zm-2.742-1.12h2.182V13.48H17.76v1.369z"/>
    </g>
</svg>
