<svg xmlns="http://www.w3.org/2000/svg" width="177" height="18" viewBox="0 0 177 18">
    <g fill="none" fill-rule="evenodd">
        <path fill="#020203" d="M148.372 2.68v4.478h1.728c1.345 0 2.26-.998 2.26-2.247 0-1.231-.915-2.23-2.26-2.23h-1.728zm-2.26-2.096h4.154c2.509 0 4.37 1.93 4.37 4.327 0 2.414-1.861 4.344-4.387 4.344h-1.877v3.478h-2.26V.584zM163.127 7.84c0-1.647-1.247-2.996-2.908-2.996-1.661 0-2.941 1.315-2.941 2.997 0 1.697 1.28 3.028 2.941 3.028 1.661 0 2.908-1.347 2.908-3.028m-8.059.033c0-3.23 2.36-5.077 4.819-5.077 1.279 0 2.425.533 3.123 1.365V2.997h2.243v9.737h-2.243v-1.265c-.714.899-1.877 1.465-3.156 1.465-2.343 0-4.786-1.881-4.786-5.06M169.973 12.251L165.984 2.998 168.378 2.998 171.086 9.556 173.644 2.998 176.004 2.998 170.205 17.228 167.929 17.228zM122.493.925L122.647 9.845 122.585 9.845 119.978.925 115.768.925 115.768 12.171 118.557 12.171 118.4 2.944 118.463 2.944 121.263 12.171 125.303 12.171 125.303.925zM69.092.925L66.989 12.288 70.055 12.288 71.606 1.978 71.67 1.977 73.182 12.288 76.23 12.288 74.139.925zM86.233.925L84.833 9.614 84.769 9.614 83.372.925 78.745.925 78.495 12.288 81.334 12.288 81.405 2.073 81.468 2.073 83.362 12.288 86.241 12.288 88.137 2.074 88.199 2.073 88.27 12.288 91.108 12.288 90.858.925zM62.214 9.083c.111.275.075.627.023.84-.093.38-.35.765-1.105.765-.71 0-1.14-.41-1.14-1.03l-.003-1.102h-3.042v.876c0 2.535 1.99 3.3 4.122 3.3 2.052 0 3.74-.7 4.01-2.597.138-.981.037-1.624-.012-1.863-.48-2.38-4.783-3.09-5.104-4.42-.054-.23-.041-.47-.012-.596.08-.366.327-.764 1.035-.764.665 0 1.055.41 1.055 1.03v.704h2.83v-.801c0-2.475-2.22-2.862-3.824-2.862-2.017 0-3.666.67-3.966 2.522-.083.507-.094.96.026 1.533.491 2.323 4.523 2.994 5.107 4.465M99.097 9.061c.108.273.075.62.021.832-.091.374-.345.756-1.094.756-.703 0-1.13-.406-1.13-1.021l-.001-1.088H93.88l-.001.867c0 2.51 1.972 3.267 4.083 3.267 2.031 0 3.703-.693 3.97-2.572.135-.97.035-1.607-.013-1.845-.475-2.356-4.736-3.059-5.052-4.375-.056-.228-.041-.464-.014-.59.08-.362.325-.757 1.025-.757.66 0 1.045.406 1.045 1.02v.696h2.803v-.792c0-2.45-2.198-2.832-3.788-2.832-1.994 0-3.628.66-3.925 2.496-.082.502-.093.95.026 1.517.486 2.3 4.478 2.964 5.057 4.421M108.62 10.587c.789 0 1.031-.543 1.087-.824.025-.122.028-.287.027-.433V.924h2.872V9.07c.003.209-.018.636-.03.748-.197 2.12-1.871 2.808-3.956 2.808-2.086 0-3.76-.688-3.959-2.808-.01-.112-.031-.54-.026-.748V.924h2.87V9.33c-.004.146.002.311.026.433.055.28.299.824 1.089.824M132.28 10.47c.822 0 1.108-.522 1.16-.825.024-.128.03-.288.027-.431V7.563h-1.163V5.906h4.018v3.047c-.001.214-.006.37-.04.748-.188 2.07-1.979 2.808-3.99 2.808s-3.8-.739-3.99-2.808c-.033-.378-.039-.534-.04-.748l.001-4.78c0-.203.025-.56.048-.75.253-2.123 1.97-2.807 3.982-2.807 2.011 0 3.773.677 3.982 2.808.037.362.024.748.026.748v.379h-2.861v-.637c.001.001-.001-.27-.035-.433-.052-.25-.267-.824-1.134-.824-.825 0-1.068.543-1.13.824-.034.15-.046.352-.046.538v5.195c-.001.143.004.303.026.43.053.304.34.825 1.16.825M7.367 9.872L2.914 9.872 2.063 12.627 0 12.627 4.076.754 6.221.754 10.297 12.627 8.218 12.627z" transform="translate(.5)"/>
        <path fill="#FFF" d="M6.826 8.149L5.124 2.69 3.438 8.149z" transform="translate(.5)"/>
        <path fill="#020203" d="M18.676 0v12.627h-1.752V11.38c-.578.974-1.408 1.46-2.488 1.46-1.026 0-1.823-.41-2.39-1.23-.568-.82-.852-1.968-.852-3.443 0-1.476.29-2.621.868-3.436.578-.814 1.391-1.221 2.439-1.221.458 0 .881.084 1.269.254.387.169.712.412.974.73V0h1.932zm-2.743 10.822c.268-.13.538-.343.81-.638V6.068c-.228-.264-.499-.465-.81-.607-.31-.142-.635-.213-.974-.213-1.19 0-1.784.95-1.784 2.853 0 1.946.622 2.918 1.866 2.918.328 0 .625-.065.892-.197zM28.004 0v12.627h-1.752V11.38c-.578.974-1.408 1.46-2.488 1.46-1.026 0-1.823-.41-2.39-1.23-.568-.82-.852-1.968-.852-3.443 0-1.476.29-2.621.868-3.436.578-.814 1.391-1.221 2.439-1.221.458 0 .881.084 1.269.254.387.169.712.412.974.73V0h1.932zM25.26 10.822c.268-.13.538-.343.81-.638V6.068c-.228-.264-.499-.465-.81-.607-.31-.142-.636-.213-.974-.213-1.19 0-1.784.95-1.784 2.853 0 1.946.622 2.918 1.866 2.918.328 0 .625-.065.892-.197zM34.086 9.856v-4.46h-1.408V3.721h1.408V1.246h1.932v2.476h2.488v1.673h-2.488v4.133c0 .524.107.904.32 1.138.213.237.558.354 1.039.354.305 0 .622-.043.95-.131l.294 1.64c-.491.153-1.01.23-1.555.23-1.987 0-2.98-.968-2.98-2.903M40.533 11.66c-.666-.787-.999-1.946-.999-3.477 0-1.53.336-2.692 1.007-3.485.671-.793 1.63-1.189 2.873-1.189 1.245 0 2.199.396 2.865 1.19.666.792.999 1.953.999 3.484 0 1.53-.336 2.69-1.007 3.476-.671.787-1.63 1.181-2.873 1.181-1.244 0-2.2-.394-2.865-1.18m4.29-1.28c.315-.492.474-1.224.474-2.197 0-1.957-.628-2.935-1.883-2.935-1.266 0-1.899.978-1.899 2.935 0 .973.159 1.705.475 2.197.316.493.786.737 1.408.737.633 0 1.107-.244 1.424-.737" transform="translate(.5)"/>
    </g>
</svg>
