<svg xmlns="http://www.w3.org/2000/svg" width="49" height="49" viewBox="0 0 49 49">
    <path fill="#0B1D81" fill-rule="nonzero" d="M30.327 17.127c2.483 0 4.365 2.3 4.365 4.366 0 5.186-6.88 10.343-10.666 12.59-3.79-2.25-10.667-7.404-10.667-12.59 0-2.067 1.826-4.366 4.365-4.366 3.792 0 5.674 3.765 6.302 3.765.627 0 2.51-3.765 6.301-3.765zm-.284-2.005c-4.22 0-6.017 2.996-6.017 2.996s-1.798-2.996-6.017-2.996c-3.569 0-6.564 2.996-6.564 6.565 0 8.204 12.58 14.769 12.58 14.769s12.582-6.565 12.582-14.77c0-3.568-2.996-6.564-6.564-6.564z"/>
</svg>
