<?xml version="1.0" encoding="UTF-8"?>
<svg width="21px" height="20px" viewBox="0 0 21 20" version="1.1" xmlns="http://www.w3.org/2000/svg" xmlns:xlink="http://www.w3.org/1999/xlink">
    <!-- Generator: sketchtool 55.2 (78181) - https://sketchapp.com -->
    <title>98496D15-7D59-4B60-B3DA-C20FCEB871BB</title>
    <desc>Created with sketchtool.</desc>
    <g id="Message-center" stroke="none" stroke-width="1" fill="none" fill-rule="evenodd">
        <g id="5.-Messaging-Centre-(Inbox)" transform="translate(-232.000000, -350.000000)">
            <g id="Group-13" transform="translate(233.000000, 350.000000)">
                <polygon id="Rectangle" fill="#FFBD64" transform="translate(12.920000, 6.080000) rotate(-315.000000) translate(-12.920000, -6.080000) " points="12.16 0.76 13.68 0.76 13.68 11.4 12.16 11.4"></polygon>
                <path d="M15.8246575,0 L15.3821918,0.442465753 L6.01232877,9.81232877 L5.86917808,9.95547945 L5.83664384,10.1571918 L5.42020548,12.8640411 L5.29006849,13.7034247 L6.1359589,13.5732877 L8.84280822,13.1568493 L9.04452055,13.1308219 L9.18767123,12.9811644 L18.5575342,3.61130137 L19,3.17534247 L18.5575342,2.73287671 L16.2671233,0.442465753 L15.8246575,0 Z M15.8246575,1.76335616 L17.230137,3.17534247 L8.44589041,11.959589 L6.78664384,12.2133562 L7.04041096,10.5476027 L15.8246575,1.76335616 Z M0,3.48767123 L0,18.6876712 C-9.74713337e-16,18.8601656 0.139834352,19 0.312328767,19 L15.5123288,19 C15.6848232,19 15.8246575,18.8601656 15.8246575,18.6876712 L15.8246575,11.5503805 C15.8246575,11.2053917 15.5449888,10.925723 15.2,10.925723 C14.8550112,10.925723 14.5753425,11.2053917 14.5753425,11.5503805 L14.5753425,17.7506849 L1.24931507,17.7506849 L1.24931507,4.42465753 L6.74013191,4.42465753 C7.08512074,4.42465753 7.36478945,4.14498883 7.36478945,3.8 C7.36478945,3.45501117 7.08512074,3.17534247 6.74013191,3.17534247 L0.312328767,3.17534247 C0.139834352,3.17534247 -2.11244733e-17,3.31517682 0,3.48767123 Z" id="Shape" stroke="#0B1D81" stroke-width="0.88179826" fill="#0B1D81" fill-rule="nonzero"></path>
            </g>
        </g>
    </g>
</svg>