<svg xmlns="http://www.w3.org/2000/svg" width="49" height="49" viewBox="0 0 49 49">
    <path fill="#0B1D81" fill-rule="nonzero" d="M39.254 20.026l-3.116 1.43-2.62 1.203-2.656 1.22c-1.464.673-2.93 1.348-4.396 2.02-.893.41-1.792.81-2.677 1.231l-.041.02h1.307l-2.238-1.026c-1.458-.67-2.916-1.34-4.37-2.01-1.018-.47-2.038-.935-3.054-1.404-.73-.338-1.464-.673-2.195-1.01l-3.582-1.643-.069-.03v2.233c.513-.237 1.028-.471 1.542-.71 1.234-.568 2.468-1.133 3.701-1.702l4.481-2.057 3.874-1.779c.628-.29 1.262-.565 1.886-.865.011-.003.017-.007.028-.014h-1.307c.513.237 1.027.471 1.541.71 1.234.568 2.468 1.133 3.702 1.702l4.48 2.057 3.875 1.779c.627.29 1.254.579 1.886.866.01.002.016.007.027.013.324.15.641.228.996.131.299-.082.624-.314.772-.592.158-.3.237-.662.13-.996-.096-.303-.291-.634-.592-.772-.521-.237-1.04-.48-1.56-.717-1.239-.568-2.475-1.137-3.712-1.707l-4.495-2.065-3.871-1.778c-.616-.283-1.231-.572-1.85-.852-.279-.124-.53-.204-.844-.163-.182.025-.338.09-.503.165-.069.03-.135.062-.2.094-.321.15-.641.292-.962.441-1.165.535-2.333 1.073-3.5 1.607-1.495.685-2.991 1.375-4.487 2.06-1.34.617-2.682 1.235-4.026 1.85-.737.339-1.472.676-2.208 1.018-.035.017-.07.03-.104.049-.402.186-.64.696-.64 1.116 0 .42.236.93.64 1.117l3.13 1.437 2.608 1.199c.894.41 1.79.82 2.682 1.231 1.475.678 2.95 1.354 4.425 2.034.88.402 1.754.813 2.634 1.21.278.127.537.21.854.17a1.77 1.77 0 0 0 .517-.173l.31-.14c.467-.214.927-.428 1.393-.637 1.437-.662 2.879-1.324 4.315-1.983 1.138-.524 2.275-1.045 3.409-1.569.624-.286 1.247-.572 1.872-.857l3.912-1.8c.086-.04.176-.078.262-.12.279-.128.517-.49.593-.773.086-.31.049-.72-.13-.995-.18-.276-.442-.521-.773-.593-.37-.09-.675-.033-1.006.119zm-6.342 3.736v7.803c0 .425.03.869-.025 1.293l.044-.344c-.03.217-.09.424-.172.624.044-.103.085-.207.13-.31a2.56 2.56 0 0 1-.323.545c.069-.086.135-.176.204-.262-.124.154-.26.29-.414.413.086-.069.175-.135.262-.204-.17.131-.347.237-.545.324.104-.044.207-.085.31-.13-.2.082-.406.14-.624.172l.345-.045c-.559.072-1.147.025-1.71.025H18.75c-.573 0-1.148.003-1.721 0-.113 0-.228-.007-.345-.025l.345.045a2.542 2.542 0 0 1-.625-.173c.104.044.207.086.31.131a2.56 2.56 0 0 1-.544-.324c.085.07.175.135.262.204a2.667 2.667 0 0 1-.414-.413c.07.085.135.175.204.262a2.583 2.583 0 0 1-.324-.545c.045.103.086.207.131.31-.082-.2-.14-.407-.172-.624l.044.344c-.044-.358-.025-.73-.025-1.089V23.76l-1.944 1.117 3.364 1.544c1.762.81 3.523 1.616 5.285 2.427.386.175.77.355 1.155.53.246.11.386.182.662.182.269 0 .427-.075.665-.182.04-.016.082-.038.124-.057.2-.094.4-.182.6-.276l5.038-2.316 3.964-1.82.069-.03c.278-.127.517-.49.593-.773.085-.31.048-.72-.131-.995-.18-.276-.442-.521-.772-.593-.359-.083-.665-.02-.996.131l-3.333 1.53c-1.758.807-3.513 1.613-5.27 2.424l-1.206.556h1.307l-3.334-1.53c-1.758-.807-3.513-1.614-5.27-2.424l-1.206-.556c-.43-.2-.875-.25-1.307 0a1.308 1.308 0 0 0-.64 1.117v7.937c0 .351-.026.717.01 1.068.086.897.417 1.71 1.048 2.365.265.276.59.524.935.693.466.232.89.345 1.4.407.275.034.55.025.83.025h14.154c1.048 0 2.095-.389 2.812-1.172a3.869 3.869 0 0 0 1.01-2.385c.007-.124.007-.251.007-.375v-8.557c0-.675-.593-1.323-1.294-1.293-.7.022-1.293.56-1.293 1.282zm-22.735 6.015V21.145c0-.676-.593-1.324-1.293-1.293-.7.03-1.293.568-1.293 1.293v8.632c0 .675.593 1.323 1.293 1.293.7-.032 1.293-.57 1.293-1.293z"/>
</svg>
