<svg xmlns="http://www.w3.org/2000/svg" xmlns:xlink="http://www.w3.org/1999/xlink" width="85" height="85" viewBox="0 0 85 85">
    <defs>
        <path id="a" d="M0 84.72h84.923V.18H0z"/>
    </defs>
    <g fill="none" fill-rule="evenodd">
        <path fill="#FFC966" d="M40.004 62.8h41.07v-4.323h-41.07zM71.995 75.385h5.529V72.04h-5.529z"/>
        <g transform="translate(0 .1)">
            <path fill="#FFC966" d="M15.586 35.76c2.72-.63 5.428 1.101 6.049 3.866.62 2.766-1.083 5.518-3.803 6.148-2.72.63-5.429-1.1-6.049-3.865-.62-2.765 1.083-5.518 3.803-6.149"/>
            <path fill="#0B1D81" d="M16.015 37.675c-1.677.389-2.73 2.092-2.348 3.798.382 1.704 2.055 2.776 3.735 2.387 1.678-.389 2.731-2.092 2.349-3.798-.383-1.704-2.06-2.777-3.736-2.387m.694 10.192c-3.186 0-6.072-2.234-6.81-5.522-.855-3.816 1.503-7.63 5.258-8.5 3.752-.868 7.505 1.528 8.361 5.345.856 3.816-1.503 7.63-5.257 8.5a6.88 6.88 0 0 1-1.552.177"/>
            <mask id="b" fill="#fff">
                <use xlink:href="#a"/>
            </mask>
            <path fill="#FFC966" d="M3.827 25.56h67.607V14.261H3.827z" mask="url(#b)"/>
            <path fill="#0E207C" d="M39.936 54.409H81.06v-3.033H39.936v3.033zm0 8.333H81.06v-4.406H39.936v4.406zm0 18.05H81.06V66.67H39.936v14.123zM3.864 68.072v-38.53h67.533V47.45H38.004c-1.067 0-1.931.879-1.931 1.963v5.02h-3.136c-1.067 0-1.931.88-1.931 1.964s.864 1.963 1.931 1.963h3.136v9.714H3.863zm0-53.876h19.052v3.105c0 1.085.864 1.964 1.931 1.964 1.067 0 1.932-.88 1.932-1.964v-3.105h8.92v3.105c0 1.085.864 1.964 1.931 1.964 1.067 0 1.932-.88 1.932-1.964v-3.105h8.92v3.105c0 1.085.864 1.964 1.931 1.964 1.067 0 1.932-.88 1.932-1.964v-3.105h19.052v11.42H3.864v-11.42zM82.99 47.45h-7.73V13.635c0-1.856-1.486-3.366-3.312-3.366H52.345V2.145c0-1.085-.865-1.964-1.932-1.964s-1.932.879-1.932 1.964v8.124h-8.919V2.145c0-1.085-.865-1.964-1.932-1.964s-1.932.879-1.932 1.964v8.124H26.78V2.145c0-1.085-.865-1.964-1.932-1.964s-1.931.879-1.931 1.964v8.124H3.312C1.486 10.269 0 11.779 0 13.635v54.999C0 70.49 1.486 72 3.312 72h32.76v10.756c0 1.084.865 1.963 1.932 1.963h44.987c1.067 0 1.932-.879 1.932-1.963V49.412c0-1.084-.865-1.963-1.932-1.963z" mask="url(#b)"/>
            <path fill="#0E207C" d="M44.08 72.726h17.865c.854 0 1.545-.704 1.545-1.571 0-.868-.691-1.571-1.545-1.571H44.08c-.853 0-1.545.703-1.545 1.57 0 .868.692 1.572 1.545 1.572M43.927 77.642h6.346c.854 0 1.546-.703 1.546-1.57 0-.868-.692-1.571-1.546-1.571h-6.346c-.854 0-1.546.703-1.546 1.57 0 .868.692 1.571 1.546 1.571M56.134 74.5h-1.312c-.854 0-1.545.704-1.545 1.571 0 .868.691 1.571 1.545 1.571h1.312c.853 0 1.545-.703 1.545-1.57 0-.868-.692-1.572-1.545-1.572M73.122 74.63h3.275v-2.034h-3.275v2.035zm0 3.142h3.275c.82 0 1.606-.33 2.186-.92.58-.589.905-1.388.905-2.221v-2.035c0-1.735-1.383-3.142-3.09-3.142h-3.276c-1.708 0-3.091 1.407-3.091 3.142v2.035c0 1.735 1.383 3.141 3.09 3.141zM32.937 41.636H42.1c1.067 0 1.932-.88 1.932-1.964 0-1.085-.865-1.964-1.932-1.964h-9.163c-1.067 0-1.931.88-1.931 1.964s.864 1.964 1.931 1.964M53.747 41.636h9.163c1.067 0 1.932-.88 1.932-1.964 0-1.085-.865-1.964-1.932-1.964h-9.163c-1.067 0-1.932.88-1.932 1.964s.865 1.964 1.932 1.964M21.044 54.432H11.88c-1.067 0-1.932.88-1.932 1.964s.865 1.963 1.932 1.963h9.163c1.067 0 1.932-.879 1.932-1.963 0-1.085-.865-1.964-1.932-1.964" mask="url(#b)"/>
        </g>
    </g>
</svg>
