<svg xmlns="http://www.w3.org/2000/svg" width="49" height="49" viewBox="0 0 49 49">
    <path fill="#0B1D81" fill-rule="nonzero" d="M40.36 25.228a.63.63 0 0 0 .63-.63v-3.22a.63.63 0 0 0-.63-.63h-7.986a8.056 8.056 0 0 0-7.484-6.978v-1.842h6.23a.63.63 0 0 0 .63-.63V6.983a.63.63 0 0 0-.63-.63h-6.859a.63.63 0 0 0-.63.63v6.802c-3.73.356-6.72 3.271-7.204 6.963H8.441a.63.63 0 0 0-.63.63v3.22c0 .348.282.63.63.63h1.75v10.115h-1.75a.63.63 0 0 0-.63.63v3.22c0 .348.282.63.63.63h31.92a.63.63 0 0 0 .63-.63v-3.22a.63.63 0 0 0-.63-.63h-1.4V25.228h1.4zM24.892 7.613h5.6v3.055h-5.6V7.613zm-.49 7.394c3.386 0 6.193 2.494 6.7 5.74H17.7c.506-3.245 3.313-5.74 6.7-5.74zm-15.33 7h30.66v1.961H9.07v-1.96zm20.72 13.336V25.228h3.325v10.115H29.79zm-4.586 0V25.228h3.325v10.115h-3.325zm-4.584 0V25.228h3.325v10.115h-3.325zm-4.586 0V25.228h3.326v10.115h-3.326zm-4.584-10.115h3.326l-.002 10.115H11.45l.001-10.115zm28.28 13.335H9.07v-1.96h30.66v1.96zm-2.03-3.22h-3.325V25.228H37.7v10.115z"/>
</svg>
