<svg xmlns="http://www.w3.org/2000/svg" width="32" height="33" viewBox="0 0 32 33">
    <g fill="none" fill-rule="evenodd">
        <path fill="#FFBD64" d="M13.444 6.593l-1.133 10.773-.962 9.152 7.302-5.933-5.828-.25 4.997-5.21h-4.376l4.376-5.056-4.376-.253 4.376-3.223z"/>
        <path fill="#0B1D81" fill-rule="nonzero" d="M18.287 5.5c.301 0 .56.202.64.483l.022.109 2.41 21.12a.667.667 0 0 1-1.3.269l-.024-.118-.068-.59-.087.008h-7.693l-.058.575a.667.667 0 0 1-.612.596l-.12-.002a.667.667 0 0 1-.596-.611l.001-.12 2.184-21.12a.667.667 0 0 1 .551-.59l.112-.008h4.638zm1.528 19.947l-.542-4.754-5.578 4.754h6.12zm-7.423-.641l4.898-4.175h-4.467l-.43 4.175zm6.264-9.52l-4.427 4.011 4.872.001h.013l-.458-4.012zm-2.145.143h-3.15l-.326 3.15 3.476-3.15zm7.68-5.722a.667.667 0 0 1 .935.117c.188.241.454.651.719 1.193.722 1.481.967 3.032.422 4.516a5.116 5.116 0 0 1-1.193 1.838.667.667 0 0 1-.948-.937c.422-.427.713-.881.89-1.36.398-1.086.208-2.287-.37-3.472a5.811 5.811 0 0 0-.572-.96.667.667 0 0 1 .117-.935zm-16.382 0c.291.226.343.645.117.936a5.811 5.811 0 0 0-.572.959c-.578 1.185-.768 2.386-.37 3.471.177.48.468.934.89 1.36a.667.667 0 0 1-.948.938 5.116 5.116 0 0 1-1.193-1.838c-.545-1.484-.3-3.035.422-4.516.265-.542.531-.952.719-1.193a.667.667 0 0 1 .935-.117zm13.938 1.474a.667.667 0 0 1 .937.104c.113.14.264.372.413.68.598 1.248.598 2.622-.413 3.886l-.14.147c-.181.147-.541.161-.797-.043a.667.667 0 0 1-.104-.937l.082-.085.12-.17c.444-.684.416-1.457.05-2.22-.06-.126-.12-.23-.17-.307l-.082-.118a.667.667 0 0 1 .104-.937zm-11.499 0c.288.23.334.65.104.937-.053.066-.15.215-.25.425-.367.763-.395 1.536.048 2.22l.12.17.082.085a.667.667 0 0 1-.104.937c-.255.204-.615.19-.796.043l-.14-.147C8.3 14.587 8.3 13.213 8.898 11.966c.148-.31.3-.54.412-.681a.667.667 0 0 1 .937-.104zm7.886-.464l-3.48 3.38h3.586a.67.67 0 0 1 .288.063l-.394-3.443zm-1.539-.364h-2.71l-.302 2.925 3.012-2.925zM17.72 7.09l-2.342 1.93h2.563l-.22-1.93zm-1.784-.257H14.25l-.158 1.52 1.844-1.52z"/>
    </g>
</svg>
