<svg xmlns="http://www.w3.org/2000/svg" xmlns:xlink="http://www.w3.org/1999/xlink" width="32" height="32" viewBox="0 0 32 32">
    <defs>
        <path id="a" d="M25.333.421c.328 0 .6.236.656.547l.011.12v5.568c0 .327-.236.6-.547.656l-.12.01h-2.262v9.59c0 .694-.53 1.265-1.208 1.328l-.129.005h-.129a1.333 1.333 0 0 1-1.048-.514l-.5-.643-.502.643a1.333 1.333 0 0 1-.877.503l-.175.011h-.256c-.41 0-.799-.19-1.052-.514l-.5-.643-.501.643a1.333 1.333 0 0 1-.877.503l-.175.011h-.256c-.411 0-.8-.19-1.052-.514l-.502-.645-.5.645a1.333 1.333 0 0 1-.878.503l-.175.011h-.256c-.41 0-.799-.19-1.052-.514l-.5-.643-.501.643a1.333 1.333 0 0 1-.877.503l-.175.011h-.256c-.411 0-.8-.19-1.052-.514l-.5-.643-.501.643c-.216.277-.531.456-.875.502l-.174.012h-.128a1.333 1.333 0 0 1-1.337-1.333v-9.59H1.333a.667.667 0 0 1-.656-.546l-.01-.12V1.088c0-.327.236-.6.546-.656l.12-.01h24zm-3.595 3.952H4.928v12.539h.129l1.553-1.994 1.552 1.994h.256l1.554-1.994 1.551 1.994h.256l1.554-1.994 1.553 1.994h.256l1.553-1.994 1.552 1.994h.256l1.554-1.994 1.552 1.994h.129V4.373zm-9.631 6.454a.667.667 0 0 1 .12 1.323l-.12.01H7.52a.667.667 0 0 1-.12-1.322l.12-.01h4.586zm4.585-2.896a.667.667 0 0 1 .12 1.323l-.12.01h-9.17a.667.667 0 0 1-.12-1.322l.12-.01h9.17zm7.973-6.177H2v4.234h1.596V4.373c0-.693.53-1.263 1.205-1.327l.129-.006h16.809c.736 0 1.333.597 1.333 1.333v1.615h1.594V1.754z"/>
    </defs>
    <g fill="none" fill-rule="evenodd">
        <path fill="#FFBD64" d="M27.333 8.627v4.234H25.74v-1.615l-.006-.128a1.333 1.333 0 0 0-1.327-1.205H7.596l-.128.006a1.333 1.333 0 0 0-1.205 1.327v1.615H4.667V8.627h22.666z"/>
        <g transform="translate(2.667 6.883)">
            <mask id="b" fill="#fff">
                <use xlink:href="#a"/>
            </mask>
            <use fill="#0B1D81" fill-rule="nonzero" xlink:href="#a"/>
            <g fill="#0B1D81" mask="url(#b)">
                <path d="M-2.667-6.667h32v32h-32z"/>
            </g>
        </g>
    </g>
</svg>
