<?xml version="1.0" encoding="UTF-8"?>
<svg width="24px" height="24px" viewBox="0 0 24 24" version="1.1" xmlns="http://www.w3.org/2000/svg" xmlns:xlink="http://www.w3.org/1999/xlink">
    <!-- Generator: Sketch 61.2 (89653) - https://sketch.com -->
    <title>ico-colour/ico-check-balance</title>
    <desc>Created with Sketch.</desc>
    <defs>
        <path d="M14.0638453,1.0978368 L14.1135875,1.17042413 L15.5212031,3.66796288 L16.2167969,3.66884592 C16.996493,3.66884592 17.6372456,4.263734 17.7099303,5.02438591 L17.7167969,5.16884592 L17.7167969,13.5840371 C17.7167969,14.3637332 17.1219088,15.0044858 16.3612569,15.0771705 L16.2167969,15.0840371 L1.78320312,15.0840371 C1.00350701,15.0840371 0.362754447,14.489149 0.290069703,13.7284971 L0.283203125,13.5840371 L0.283203125,5.16884592 C0.283203125,4.3891498 0.878091208,3.74839724 1.63874311,3.6757125 L1.78320312,3.66884592 L8.22720312,3.66796288 L13.4485842,0.971827749 C13.6610281,0.862074887 13.9168132,0.91921838 14.0638453,1.0978368 Z M2.69820313,4.66796288 L1.78320312,4.66884592 C1.53774324,4.66884592 1.33359475,4.84572108 1.29125879,5.07897029 L1.28320312,5.16884592 L1.28320312,13.5840371 C1.28320312,13.829497 1.46007829,14.0336455 1.69332749,14.0759814 L1.78320312,14.0840371 L2.69820313,14.0839629 L2.69820313,4.66796288 Z M3.69820313,4.66796288 L3.69820313,14.0839629 L16.2167969,14.0840371 C16.4622568,14.0840371 16.6664052,13.907162 16.7087412,13.6739127 L16.7167969,13.5840371 L16.7162031,10.8829629 L14.1116719,10.8837207 C13.866212,10.8837207 13.6620635,10.7068455 13.6197275,10.4735963 L13.6116719,10.3837207 L13.6116719,8.18059297 C13.6116719,7.90445059 13.8355295,7.68059297 14.1116719,7.68059297 L14.1116719,7.68059297 L16.7162031,7.67996288 L16.7167969,5.16884592 C16.7167969,4.89270354 16.4929392,4.66884592 16.2167969,4.66884592 L3.69820313,4.66796288 Z M16.7162031,8.68004904 L14.6112031,8.68004904 L14.6112031,9.88304904 L16.7162031,9.88304904 L16.7162031,8.68004904 Z M13.4792031,2.08104904 L10.4072031,3.66796288 L14.3742031,3.66796288 L13.4792031,2.08104904 Z" id="path-1"></path>
    </defs>
    <g id="ico-colour/ico-check-balance" stroke="none" stroke-width="1" fill="none" fill-rule="evenodd">
        <g id="ico-single/1px/ico-account">
            <g id="↳-Icon-Color" transform="translate(3.000000, 4.000000)">
                <mask id="mask-2" fill="white">
                    <use xlink:href="#path-1"></use>
                </mask>
                <use id="Mask" fill="#0B1D81" fill-rule="nonzero" xlink:href="#path-1"></use>
                <g mask="url(#mask-2)" fill="#0B1D81" id="Rectangle-3">
                    <g transform="translate(-3.000000, -4.000000)">
                        <rect x="0" y="0" width="24" height="24"></rect>
                    </g>
                </g>
            </g>
        </g>
        <path d="M5.6985,8.58541981 L5.6985,18.0014198 L4.7835,18.001494 L4.69362437,17.9934384 C4.46037516,17.9511024 4.2835,17.7469539 4.2835,17.501494 L4.2835,17.501494 L4.2835,9.08630284 L4.29155567,8.99642721 C4.33389163,8.763178 4.53804011,8.58630284 4.7835,8.58630284 L4.7835,8.58630284 L5.6985,8.58541981 Z" id="Combined-Shape" fill="#FFBD64"></path>
        <path d="M19.7165,12.597506 L19.7165,13.800506 L17.6115,13.800506 L17.6115,12.597506 L19.7165,12.597506 Z" id="Combined-Shape" fill="#FFBD64"></path>
        <path d="M16.4795,5.99850596 L17.3215,7.49150596 L17.3625,7.58450596 L13.4075,7.58541981 L16.4795,5.99850596 Z" id="Combined-Shape" fill="#FFBD64"></path>
    </g>
</svg>