<svg xmlns="http://www.w3.org/2000/svg" xmlns:xlink="http://www.w3.org/1999/xlink" width="33" height="32" viewBox="0 0 33 32">
    <defs>
        <path id="a" d="M20.188.536c.223 0 .432.112.556.298l5.86 8.853c.073.109.111.237.111.368v7.486a.667.667 0 0 1-.666.666H1.733a.667.667 0 0 1-.667-.666v-7.486c0-.034.003-.068.008-.102l-.008.102a.669.669 0 0 1 .113-.371l-.047.081.031-.057.016-.024L7.105.832A.667.667 0 0 1 7.66.536zM2.399 16.873h22.983v-6.617l-5.553-8.387H8.014L2.979 9.388h8.557c.31 0 .58.213.65.515.337 1.444.898 2.056 1.705 2.056.829 0 1.469-.64 1.935-2.106a.667.667 0 0 1 .514-.454l.122-.011h5.579a.667.667 0 0 1 .12 1.323l-.12.01h-5.108l-.037.097c-.606 1.515-1.537 2.375-2.782 2.466l-.223.008c-1.308 0-2.235-.804-2.767-2.276l-.098-.295H2.399v6.152z"/>
    </defs>
    <g fill="none" fill-rule="evenodd">
        <path fill="#FFBD64" d="M5.407 17.301h8.812c.844 1.685 1.819 2.527 2.926 2.527 1.107 0 2.119-.842 3.034-2.527h8.704v6.212H5.407v-6.212z"/>
        <g transform="translate(3.167 6.667)">
            <mask id="b" fill="#fff">
                <use xlink:href="#a"/>
            </mask>
            <use fill="#0B1D81" fill-rule="nonzero" xlink:href="#a"/>
            <g fill="#0B1D81" mask="url(#b)">
                <path d="M-2.667-6.667h32v32h-32z"/>
            </g>
        </g>
    </g>
</svg>
