<?xml version="1.0" encoding="UTF-8"?>
<svg width="19px" height="14px" viewBox="0 0 19 14" version="1.1" xmlns="http://www.w3.org/2000/svg" xmlns:xlink="http://www.w3.org/1999/xlink">
    <!-- Generator: Sketch 52.2 (67145) - http://www.bohemiancoding.com/sketch -->
    <title>ico-email</title>
    <desc>Created with Sketch.</desc>
    <g id="Page-1" stroke="none" stroke-width="1" fill="none" fill-rule="evenodd">
        <g id="ico-email" fill="#0B1D81" fill-rule="nonzero">
            <g id="a-link" transform="translate(0.500000, 0.000000)">
                <path d="M16.22,0.3 C17.3245695,0.3 18.22,1.1954305 18.22,2.3 L18.22,11.1 C18.22,12.2045695 17.3245695,13.1 16.22,13.1 L2.02,13.1 C0.9154305,13.1 0.02,12.2045695 0.02,11.1 L0.02,2.3 C0.02,1.1954305 0.9154305,0.3 2.02,0.3 L16.22,0.3 Z M2.02,2.3 L2.02,11.1 L16.22,11.1 L16.22,2.3 L2.02,2.3 Z M15.615,4.983 C15.8228261,5.44569052 15.6513315,5.99069108 15.216,6.251 L15.113,6.305 L9.53,8.814 C9.3067674,8.91428273 9.05451097,8.92922598 8.821,8.856 L8.707,8.812 L3.187,6.303 C2.70487443,6.08396747 2.47708808,5.52705534 2.66752211,5.03293472 C2.85795615,4.53881409 3.400579,4.27881758 3.905,4.44 L4.014,4.482 L9.122,6.804 L14.292,4.48 C14.5341138,4.37103132 14.8096235,4.36281936 15.0577977,4.45717431 C15.3059718,4.55152925 15.5064356,4.74070467 15.615,4.983 Z" id="a"></path>
            </g>
        </g>
    </g>
</svg>