<?xml version="1.0" encoding="UTF-8"?>
<svg width="24px" height="24px" viewBox="0 0 24 24" version="1.1" xmlns="http://www.w3.org/2000/svg" xmlns:xlink="http://www.w3.org/1999/xlink">
    <!-- Generator: Sketch 61.2 (89653) - https://sketch.com -->
    <title>ico-colour/ico-help </title>
    <desc>Created with Sketch.</desc>
    <defs>
        <path d="M11.5066125,0.761519065 C12.2572108,0.761519065 12.8656909,1.36999923 12.8656909,2.12059755 L12.8656909,2.12059755 L12.8656591,5.39951906 L15.1903409,5.3998985 L15.2802165,5.40795417 C15.5134657,5.45029013 15.6903409,5.65443862 15.6903409,5.8998985 L15.6903409,5.8998985 L15.6903409,16.0384192 L15.6831639,16.1694803 C15.6593442,16.386284 15.5767525,16.5934008 15.4431607,16.7678946 L15.4431607,16.7678946 L15.3580853,16.8674343 C14.9408661,17.3052201 14.2520116,17.3672587 13.7608655,16.9912391 L13.7608655,16.9912391 L11.6988139,15.4112898 L5.56096563,15.4120041 L5.47109,15.4039484 C5.23784079,15.3616125 5.06096563,15.157464 5.06096563,14.9120041 L5.06096563,14.9120041 L5.06065915,12.5755191 L4.96549258,12.5762898 L2.49491615,14.4691784 C1.93617787,14.8969464 1.151518,14.8241452 0.679650176,14.3222955 L0.679650176,14.3222955 L0.58960679,14.2162261 C0.408045039,13.9790753 0.309659145,13.6887199 0.309659145,13.3900476 L0.309659145,13.3900476 L0.309659145,2.12059755 C0.309659145,1.36999923 0.918139308,0.761519065 1.66873763,0.761519065 L1.66873763,0.761519065 Z M14.6908139,6.39928976 L12.8656591,6.39951906 L12.8656909,11.2176987 C12.8656909,11.9241442 12.3266912,12.5046995 11.6375008,12.5705557 L11.5066125,12.5767772 L6.06065915,12.5755191 L6.06181391,14.4112898 L11.867537,14.4120041 L11.9491156,14.4187034 C12.0296044,14.4320145 12.1060498,14.4648989 12.171485,14.5149958 L12.171485,14.5149958 L14.3687616,16.1972225 L14.425154,16.2275551 C14.5043435,16.254861 14.5954271,16.2301622 14.6491442,16.1599985 L14.6491442,16.1599985 L14.6716996,16.1227345 C14.683906,16.0964782 14.6903409,16.0677207 14.6903409,16.0384192 L14.6903409,16.0384192 L14.6908139,6.39928976 Z M11.5066125,1.76151906 L1.66873763,1.76151906 C1.47042406,1.76151906 1.30965915,1.92228398 1.30965915,2.12059755 L1.30965915,2.12059755 L1.30965915,13.3900476 C1.30965915,13.468959 1.33565342,13.545673 1.38362336,13.60833 C1.50417741,13.7657943 1.72955578,13.7957159 1.88702004,13.6751619 L1.88702004,13.6751619 L4.49334543,11.6797689 C4.58059234,11.612973 4.68741303,11.5767772 4.79729349,11.5767772 L4.79729349,11.5767772 L11.5066125,11.5767772 C11.704926,11.5767772 11.8656909,11.4160123 11.8656909,11.2176987 L11.8656909,11.2176987 L11.8656909,2.12059755 C11.8656909,1.92228398 11.704926,1.76151906 11.5066125,1.76151906 L11.5066125,1.76151906 Z M6.99069116,8.16353111 L7.03927277,8.16944539 C7.07025235,8.1773311 7.0984156,8.19310252 7.12376252,8.21675965 C7.16178291,8.25224535 7.1807931,8.29533512 7.1807931,8.34602897 L7.1807931,8.34602897 L7.1807931,9.02279189 L7.17487882,9.07095105 C7.16699311,9.10136736 7.15122169,9.12840408 7.12756456,9.15206122 C7.09207886,9.18754691 7.0464544,9.20528976 6.99069116,9.20528976 L6.99069116,9.20528976 L6.23788746,9.20528976 L6.18972831,9.19937548 C6.15931199,9.19148977 6.13227527,9.17571835 6.10861814,9.15206122 C6.07313245,9.11657552 6.0553896,9.07348575 6.0553896,9.02279189 L6.0553896,9.02279189 L6.0553896,8.34602897 L6.06130388,8.29786982 C6.06918959,8.2674535 6.08496101,8.24041678 6.10861814,8.21675965 C6.14410384,8.18127396 6.18719361,8.16353111 6.23788746,8.16353111 L6.23788746,8.16353111 L6.99069116,8.16353111 Z M6.67892397,3.80639456 C7.09968294,3.80639456 7.44566848,3.87356392 7.71688059,4.00790262 C7.98809269,4.14224133 8.18579871,4.31333308 8.30999865,4.52117787 C8.43419859,4.72902266 8.49629855,4.94447153 8.49629855,5.16752448 C8.49629855,5.42099374 8.43926797,5.64151199 8.3252068,5.82907924 C8.21114564,6.01664649 8.04258858,6.23209536 7.81953564,6.47542585 C7.65731531,6.64778495 7.53184803,6.79606446 7.44313379,6.9202644 C7.35441955,7.04446433 7.29485427,7.1775357 7.26443796,7.31947848 C7.24416042,7.44621311 7.23148696,7.53239266 7.22641757,7.57801712 C7.20107065,7.64391913 7.17318903,7.69207829 7.14277272,7.7224946 C7.11235641,7.75291091 7.06926663,7.76811907 7.01350339,7.76811907 L7.01350339,7.76811907 L6.2606997,7.76811907 L6.21760992,7.76304968 C6.1905732,7.7562905 6.16691607,7.74277214 6.14663853,7.7224946 C6.11622222,7.69207829 6.10101407,7.65659259 6.10101407,7.61603751 C6.10101407,7.50958042 6.10354876,7.42847026 6.10861814,7.37270702 C6.13396507,7.13444592 6.21000585,6.92406644 6.33674048,6.74156857 C6.4634751,6.55907071 6.63836889,6.3562953 6.86142184,6.13324235 C7.03378094,5.96088326 7.16178291,5.81894047 7.24542777,5.707414 C7.32907262,5.59588753 7.37596443,5.47929167 7.3861032,5.35762642 C7.40638074,5.14978163 7.33921139,4.98502661 7.18459514,4.86336137 C7.0299789,4.74169613 6.84367899,4.6808635 6.62569543,4.6808635 C6.13396507,4.6808635 5.83740604,4.92672868 5.73601833,5.41845904 C5.70053264,5.5350549 5.62702655,5.59335283 5.51550008,5.59335283 L5.51550008,5.59335283 L4.85394532,5.59335283 L4.80620861,5.58743855 C4.77635556,5.57955284 4.75044537,5.56378142 4.72847803,5.54012429 C4.69552703,5.50463859 4.67905153,5.45901413 4.67905153,5.40325089 C4.6891903,5.12443471 4.7741025,4.86336137 4.93378813,4.62003088 C5.09347376,4.37670039 5.32286344,4.18026172 5.62195717,4.03071486 C5.92105089,3.88116799 6.27337316,3.80639456 6.67892397,3.80639456 Z" id="path-1"></path>
    </defs>
    <g id="ico-colour/ico-help-" stroke="none" stroke-width="1" fill="none" fill-rule="evenodd">
        <path d="M16.3960339,9.36877281 L18.7211569,9.36816406 L18.7206838,19.0072935 C18.7206838,19.036595 18.714249,19.0653525 18.7020426,19.0916088 L18.6794871,19.1288728 C18.6257701,19.1990365 18.5346865,19.2237353 18.4554969,19.1964294 L18.3991046,19.1660968 L16.201828,17.4838701 C16.1363928,17.4337732 16.0599474,17.4008888 15.9794585,17.3875777 L15.8978799,17.3808784 L10.0921569,17.3801641 L10.0913086,15.5415957 L15.3960339,15.5415957 C15.9483187,15.5415957 16.3960339,15.0938805 16.3960339,14.5415957 L16.3960339,9.36877281 Z" id="Combined-Shape" fill="#FFBD64"></path>
        <g id="↳-Icon-Color-Copy" transform="translate(4.000000, 3.000000)">
            <mask id="mask-2" fill="white">
                <use xlink:href="#path-1"></use>
            </mask>
            <use id="Mask" fill="#0B1D81" fill-rule="nonzero" xlink:href="#path-1"></use>
            <g mask="url(#mask-2)" fill="#0B1D81" id="Rectangle-3">
                <g transform="translate(-4.000000, -3.000000)">
                    <rect x="0" y="0" width="24" height="24"></rect>
                </g>
            </g>
        </g>
    </g>
</svg>