<?xml version="1.0" encoding="UTF-8"?>
<svg width="24px" height="24px" viewBox="0 0 24 24" version="1.1" xmlns="http://www.w3.org/2000/svg" xmlns:xlink="http://www.w3.org/1999/xlink">
    <!-- Generator: Sketch 61.2 (89653) - https://sketch.com -->
    <title>ico-colour/ico-apply-register </title>
    <desc>Created with Sketch.</desc>
    <defs>
        <path d="M11.1554056,0.700652669 C11.9351017,0.700652669 12.5758543,1.29554075 12.648539,2.05619266 L12.6554056,2.20065267 L12.6554056,4.1084745 C12.6554056,4.38461688 12.431548,4.6084745 12.1554056,4.6084745 C11.9099457,4.6084745 11.7057973,4.43159934 11.6634613,4.19835014 L11.6554056,4.1084745 L11.6554056,2.20065267 C11.6554056,1.95519278 11.4785305,1.7510443 11.2452813,1.70870834 L11.1554056,1.70065267 L2.20072773,1.70065267 C1.95526784,1.70065267 1.75111936,1.87752783 1.7087834,2.11077704 L1.70072773,2.20065267 L1.70072773,15.7993473 C1.70072773,16.0448072 1.87760289,16.2489557 2.11085209,16.2912917 L2.20072773,16.2993473 L11.1554056,16.2993473 C11.4008655,16.2993473 11.605014,16.1224722 11.64735,15.889223 L11.6554056,15.7993473 L11.6554056,13.300369 C11.6554056,13.0242267 11.8792632,12.800369 12.1554056,12.800369 C12.4008655,12.800369 12.605014,12.9772442 12.64735,13.2104934 L12.6554056,13.300369 L12.6554056,15.7993473 C12.6554056,16.5790434 12.0605175,17.219796 11.2998656,17.2924808 L11.1554056,17.2993473 L2.20072773,17.2993473 C1.42103161,17.2993473 0.780279048,16.7044592 0.707594304,15.9438073 L0.700727726,15.7993473 L0.700727726,2.20065267 C0.700727726,1.42095655 1.29561581,0.780203991 2.05626772,0.707519247 L2.20072773,0.700652669 L11.1554056,0.700652669 Z M13.1070822,5.87409405 C13.3304817,5.71145735 13.6434485,5.76087265 13.805871,5.98442798 L13.805871,5.98442798 L15.1029596,7.76971737 C15.265272,7.99312124 15.2157476,8.30580608 14.9923438,8.46811849 L14.9923438,8.46811849 L7.61888913,13.8252469 C7.51160681,13.903192 7.37775489,13.935327 7.24677927,13.9145825 L7.24677927,13.9145825 L5.84365235,13.6923491 C5.57090975,13.6491509 5.38482723,13.3930303 5.42802541,13.1202877 L5.42802541,13.1202877 L5.69209974,11.4529879 C5.71281826,11.3221764 5.78459036,11.2049288 5.89166362,11.1269786 L5.89166362,11.1269786 Z M13.29082,6.97627145 L6.64730985,11.8135525 L6.49384764,12.7824747 L7.19806943,12.8940125 L13.9998795,7.9522082 L13.29082,6.97627145 Z M6.31895049,7.91428164 C6.59509287,7.91428164 6.81895049,8.13813926 6.81895049,8.41428164 C6.81895049,8.65974153 6.64207533,8.86389001 6.40882613,8.90622597 L6.31895049,8.91428164 L3.37838503,8.91428164 C3.10224265,8.91428164 2.87838503,8.69042401 2.87838503,8.41428164 C2.87838503,8.16882175 3.05526019,7.96467327 3.2885094,7.92233731 L3.37838503,7.91428164 L6.31895049,7.91428164 Z M16.0886204,4.54413499 L17.1722214,6.03558376 C17.3880969,6.3327109 17.3222294,6.74858172 17.0251023,6.96445723 L16.0008597,7.70861305 L14.1355044,5.1411717 L15.159747,4.39701589 C15.4568741,4.18114038 15.8727449,4.24700785 16.0886204,4.54413499 Z M9.90715785,5.7546747 C10.1833002,5.7546747 10.4071579,5.97853233 10.4071579,6.2546747 C10.4071579,6.50013459 10.2302827,6.70428307 9.99703349,6.74661903 L9.90715785,6.7546747 L3.37838503,6.7546747 C3.10224265,6.7546747 2.87838503,6.53081708 2.87838503,6.2546747 C2.87838503,6.00921481 3.05526019,5.80506633 3.2885094,5.76273037 L3.37838503,5.7546747 L9.90715785,5.7546747 Z M9.90715785,3.59506777 C10.1833002,3.59506777 10.4071579,3.8189254 10.4071579,4.09506777 C10.4071579,4.34052766 10.2302827,4.54467614 9.99703349,4.5870121 L9.90715785,4.59506777 L3.37838503,4.59506777 C3.10224265,4.59506777 2.87838503,4.37121014 2.87838503,4.09506777 C2.87838503,3.84960788 3.05526019,3.6454594 3.2885094,3.60312344 L3.37838503,3.59506777 L9.90715785,3.59506777 Z" id="path-1"></path>
    </defs>
    <g id="ico-colour/ico-apply-register-" stroke="none" stroke-width="1" fill="none" fill-rule="evenodd">
        <path d="M16.27892,9.96378203 L16.9888108,10.9408629 L10.1881449,15.8818359 L9.4829354,15.7701417 L9.63639762,14.8012195 L16.27892,9.96378203 Z" id="Combined-Shape-Copy-4" fill="#FFBD64"></path>
        <g id="↳-Icon-Color-Copy-23" transform="translate(3.000000, 3.000000)">
            <mask id="mask-2" fill="white">
                <use xlink:href="#path-1"></use>
            </mask>
            <use id="Mask" fill="#0B1D81" fill-rule="nonzero" xlink:href="#path-1"></use>
            <g mask="url(#mask-2)" fill="#0B1D81" id="Rectangle-3">
                <g transform="translate(-3.000000, -3.000000)">
                    <rect x="0" y="0" width="24" height="24"></rect>
                </g>
            </g>
        </g>
    </g>
</svg>