<?xml version="1.0" encoding="utf-8"?>
<!-- Generator: Adobe Illustrator 21.0.0, SVG Export Plug-In . SVG Version: 6.00 Build 0)  -->
<svg version="1.1" id="Layer_1" xmlns="http://www.w3.org/2000/svg" xmlns:xlink="http://www.w3.org/1999/xlink" x="0px" y="0px"
	 viewBox="0 0 25 25" style="enable-background:new 0 0 25 25;" xml:space="preserve">
<style type="text/css">
	.st0{fill:#0B1D81;}
	.st1{filter:url(#Adobe_OpacityMaskFilter);}
	.st2{fill:#FFFFFF;}
	.st3{display:none;mask:url(#prefix__b);}
	.st4{display:inline;fill:#0B1D81;}
</style>
<g transform="translate(3.5 4.5)">
	<g>
		<path id="prefix__a_1_" class="st0" d="M15.9,0.2c0.7-0.4,1.5,0,1.5,0.8v9.6c0,0.3-0.2,0.6-0.4,0.8L11.6,15
			c-0.3,0.2-0.8,0.2-1.1,0l-4.4-2.9L1.5,15c-0.6,0.4-1.5,0-1.5-0.7l0-0.1V4.5c0-0.3,0.2-0.7,0.5-0.9l5.1-3.1c0,0,0,0,0,0
			c0,0,0,0,0.1,0l0,0c0,0,0.1,0,0.1,0l0,0l0.1,0l0.1,0c0,0,0,0,0.1,0c0,0,0,0,0.1,0h0c0,0,0,0,0.1,0l-0.1,0c0.1,0,0.1,0,0.2,0l0.1,0
			c0,0,0.1,0,0.1,0l0,0c0,0,0.1,0,0.1,0c0,0,0.1,0,0.1,0.1L6.6,0.5c0,0,0,0,0.1,0l0,0l4.4,2.8L15.9,0.2z M5.1,3.1L2,5.1v7.3l3.1-2
			C5.1,10.4,5.1,3.1,5.1,3.1z M15.5,2.8l-3.4,2.2v7.3l3.4-2.3V2.8L15.5,2.8z M7.1,3.2v7.2l2.9,1.9V5L7.1,3.2L7.1,3.2z"/>
	</g>
	<defs>
		<filter id="Adobe_OpacityMaskFilter" filterUnits="userSpaceOnUse" x="-3" y="-4" width="24" height="24">
			<feColorMatrix  type="matrix" values="1 0 0 0 0  0 1 0 0 0  0 0 1 0 0  0 0 0 1 0"/>
		</filter>
	</defs>
	<mask maskUnits="userSpaceOnUse" x="-3" y="-4" width="24" height="24" id="prefix__b">
		<g class="st1">
			<path id="prefix__a" class="st2" d="M15.9,0.2c0.7-0.4,1.5,0,1.5,0.8v9.6c0,0.3-0.2,0.6-0.4,0.8L11.6,15c-0.3,0.2-0.8,0.2-1.1,0
				l-4.4-2.9L1.5,15c-0.6,0.4-1.5,0-1.5-0.7l0-0.1V4.5c0-0.3,0.2-0.7,0.5-0.9l5.1-3.1c0,0,0,0,0,0c0,0,0,0,0.1,0l0,0
				c0,0,0.1,0,0.1,0l0,0l0.1,0l0.1,0c0,0,0,0,0.1,0c0,0,0,0,0.1,0h0c0,0,0,0,0.1,0l-0.1,0c0.1,0,0.1,0,0.2,0l0.1,0c0,0,0.1,0,0.1,0
				l0,0c0,0,0.1,0,0.1,0c0,0,0.1,0,0.1,0.1L6.6,0.5c0,0,0,0,0.1,0l0,0l4.4,2.8L15.9,0.2z M5.1,3.1L2,5.1v7.3l3.1-2
				C5.1,10.4,5.1,3.1,5.1,3.1z M15.5,2.8l-3.4,2.2v7.3l3.4-2.3V2.8L15.5,2.8z M7.1,3.2v7.2l2.9,1.9V5L7.1,3.2L7.1,3.2z"/>
		</g>
	</mask>
	<g class="st3">
		<path class="st4" d="M-3-4h24v24H-3V-4z"/>
	</g>
</g>
</svg>
