<?xml version="1.0" encoding="UTF-8"?>
<svg width="10px" height="10px" viewBox="0 0 10 10" version="1.1" xmlns="http://www.w3.org/2000/svg" xmlns:xlink="http://www.w3.org/1999/xlink">
    <!-- Generator: Sketch 52.2 (67145) - http://www.bohemiancoding.com/sketch -->
    <title>ico-plus</title>
    <desc>Created with Sketch.</desc>
    <g id="Page-1" stroke="none" stroke-width="1" fill="none" fill-rule="evenodd">
        <g id="ico-plus" transform="translate(-1.000000, -1.000000)" fill="#0D1E83">
            <g id="a-link" transform="translate(0.667000, 0.667000)">
                <path d="M5.177,0.36 C5.519,0.36 5.8,0.618 5.839,0.95 L5.843,1.027 L5.843,4.823 L9.64,4.823 C9.99522261,4.82020409 10.2903081,5.09630486 10.3111056,5.45092914 C10.3319031,5.80555343 10.0711143,6.11425435 9.718,6.153 L9.64,6.157 L5.844,6.156 L5.844,9.639 C5.83843468,9.98804176 5.56467912,10.2737505 5.21619357,10.2942188 C4.86770803,10.3146871 4.56238798,10.0629903 4.516,9.717 L4.51,9.64 L4.51,6.156 L1.027,6.156 C0.680590189,6.14677918 0.398942144,5.87382486 0.378868146,5.52787427 C0.358794147,5.18192367 0.606981563,4.87822533 0.95,4.829 L1.027,4.824 L4.51,4.824 L4.51,1.027 C4.51,0.659 4.809,0.361 5.177,0.361 L5.177,0.36 Z" id="a"></path>
            </g>
        </g>
    </g>
</svg>