<svg xmlns="http://www.w3.org/2000/svg" xmlns:xlink="http://www.w3.org/1999/xlink" width="32" height="32" viewBox="0 0 32 32">
    <defs>
        <path id="a" d="M21.186.029a2 2 0 0 1 1.994 1.85l.006.15v10.666a2 2 0 0 1-1.851 1.995l-.15.005H2.816a2 2 0 0 1-1.995-1.85l-.006-.15V2.03A2 2 0 0 1 2.665.034l.15-.005h18.37zm.665 4.143H2.147v8.523c0 .335.247.612.569.66l.098.007h18.372a.667.667 0 0 0 .66-.568l.006-.099V4.172zM8.393 10.186a.667.667 0 0 1 .12 1.323l-.12.01H4.25a.667.667 0 0 1-.12-1.322l.12-.01h4.142zM20.42 8.812a.1.1 0 0 1 .1.1v2.466a.1.1 0 0 1-.1.1h-2.467a.1.1 0 0 1-.1-.1V8.912a.1.1 0 0 1 .1-.1h2.467zm-7.887-1.137a.667.667 0 0 1 .12 1.322l-.12.011H4.251a.667.667 0 0 1-.12-1.322l.12-.011h8.283zm8.652-6.313H2.814a.667.667 0 0 0-.66.568l-.006.099v.81H21.85l.001-.81a.667.667 0 0 0-.568-.66l-.098-.007z"/>
    </defs>
    <g fill="none" fill-rule="evenodd">
        <path fill="#FFBD64" d="M25.186 9.352l.099.007a.667.667 0 0 1 .568.66l-.001.81H6.148v-.81l.008-.099a.667.667 0 0 1 .659-.568h18.371z"/>
        <g transform="translate(4 8)">
            <mask id="b" fill="#fff">
                <use xlink:href="#a"/>
            </mask>
            <use fill="#0B1D81" fill-rule="nonzero" xlink:href="#a"/>
            <g fill="#0B1D81" mask="url(#b)">
                <path d="M-4-10.667h32v32H-4z"/>
            </g>
        </g>
    </g>
</svg>
