<?xml version="1.0" encoding="UTF-8"?>
<svg width="24px" height="24px" viewBox="0 0 24 24" version="1.1" xmlns="http://www.w3.org/2000/svg" xmlns:xlink="http://www.w3.org/1999/xlink">
    <!-- Generator: Sketch 61.2 (89653) - https://sketch.com -->
    <title>ico-colour/ico-new-account </title>
    <desc>Created with Sketch.</desc>
    <defs>
        <path d="M15.2431109,6.78613599 C17.6817723,6.78613599 19.6586981,8.76306173 19.6586981,11.2017232 C19.6586981,13.6403847 17.6817723,15.6173104 15.2431109,15.6173104 C12.8044494,15.6173104 10.8275236,13.6403847 10.8275236,11.2017232 C10.8275236,8.76306173 12.8044494,6.78613599 15.2431109,6.78613599 Z M15.2431109,7.78613599 C13.3567341,7.78613599 11.8275236,9.31534648 11.8275236,11.2017232 C11.8275236,13.0881 13.3567341,14.6173104 15.2431109,14.6173104 C17.1294876,14.6173104 18.6586981,13.0881 18.6586981,11.2017232 C18.6586981,9.31534648 17.1294876,7.78613599 15.2431109,7.78613599 Z M15.188921,9.20172321 C15.4343809,9.20172321 15.6385294,9.37859837 15.6808654,9.61184758 L15.688921,9.70172321 L15.6881109,10.6467232 L16.6347312,10.6475334 C16.9108736,10.6475334 17.1347312,10.871391 17.1347312,11.1475334 C17.1347312,11.3929933 16.9578561,11.5971418 16.7246069,11.6394777 L16.6347312,11.6475334 L15.6881109,11.6467232 L15.688921,12.5933436 C15.688921,12.869486 15.4650634,13.0933436 15.188921,13.0933436 C14.9434612,13.0933436 14.7393127,12.9164684 14.6969767,12.6832192 L14.688921,12.5933436 L14.6881109,11.6467232 L13.7431109,11.6475334 C13.4669685,11.6475334 13.2431109,11.4236758 13.2431109,11.1475334 C13.2431109,10.9020735 13.419986,10.697925 13.6532352,10.6555891 L13.7431109,10.6475334 L14.6881109,10.6467232 L14.688921,9.70172321 C14.688921,9.42558084 14.9127787,9.20172321 15.188921,9.20172321 Z M15.5866582,0.38268956 C16.3663543,0.38268956 17.0071069,0.977577644 17.0797916,1.73822955 L17.0866582,1.88268956 L17.0866582,5.25939854 C17.0866582,5.53554092 16.8628006,5.75939854 16.5866582,5.75939854 C16.3411983,5.75939854 16.1370498,5.58252338 16.0947139,5.34927418 L16.0866582,5.25939854 L16.0863019,3.48568956 L1.34130192,3.48568956 L1.34130192,9.86169347 C1.34130192,10.1071534 1.51817708,10.3113018 1.75142629,10.3536378 L1.84130192,10.3616935 L8.9930748,10.3616935 C9.26921718,10.3616935 9.4930748,10.5855511 9.4930748,10.8616935 C9.4930748,11.1071534 9.31619964,11.3113018 9.08295044,11.3536378 L8.9930748,11.3616935 L1.84130192,11.3616935 C1.06160581,11.3616935 0.420853246,10.7668054 0.348168502,10.0061535 L0.341301924,9.86169347 L0.341301924,1.88268956 C0.341301924,1.10299344 0.936190007,0.462240882 1.69684191,0.389556139 L1.84130192,0.38268956 L15.5866582,0.38268956 Z M6.01413191,7.98482676 C6.29027429,7.98482676 6.51413191,8.20868438 6.51413191,8.48482676 C6.51413191,8.73028664 6.33725675,8.93443513 6.10400754,8.97677109 L6.01413191,8.98482676 L2.91447273,8.98482676 C2.63833035,8.98482676 2.41447273,8.76096913 2.41447273,8.48482676 C2.41447273,8.23936687 2.59134789,8.03521839 2.82459709,7.99288242 L2.91447273,7.98482676 L6.01413191,7.98482676 Z M9.11379109,6.10523654 C9.38993347,6.10523654 9.61379109,6.32909417 9.61379109,6.60523654 C9.61379109,6.85069643 9.43691593,7.05484491 9.20366673,7.09718087 L9.11379109,7.10523654 L2.91447273,7.10523654 C2.63833035,7.10523654 2.41447273,6.88137892 2.41447273,6.60523654 C2.41447273,6.35977665 2.59134789,6.15562817 2.82459709,6.11329221 L2.91447273,6.10523654 L9.11379109,6.10523654 Z M15.5866582,1.38268956 L1.84130192,1.38268956 C1.59584204,1.38268956 1.39169355,1.55956472 1.34935759,1.79281393 L1.34130192,1.88268956 L1.34130192,2.48568956 L16.0863019,2.48568956 L16.0866582,1.88268956 C16.0866582,1.63722967 15.9097831,1.43308119 15.6765338,1.39074523 L15.5866582,1.38268956 Z" id="path-1"></path>
    </defs>
    <g id="ico-colour/ico-new-account-" stroke="none" stroke-width="1" fill="none" fill-rule="evenodd">
        <circle id="Oval" fill="#FFBD64" cx="17.2694677" cy="15.1775753" r="3.46865197"></circle>
        <rect id="Rectangle" fill="#FFBD64" x="3.13572519" y="4.92027339" width="15.3212694" height="2.10329736"></rect>
        <g id="↳-Icon-Color-Copy-6" transform="translate(2.000000, 4.000000)">
            <mask id="mask-2" fill="white">
                <use xlink:href="#path-1"></use>
            </mask>
            <use id="Mask" fill="#0B1D81" fill-rule="nonzero" xlink:href="#path-1"></use>
            <g mask="url(#mask-2)" fill="#0B1D81" id="Rectangle-3">
                <g transform="translate(-2.000000, -4.000000)">
                    <rect x="0" y="0" width="24" height="24"></rect>
                </g>
            </g>
        </g>
    </g>
</svg>