<svg xmlns="http://www.w3.org/2000/svg" xmlns:xlink="http://www.w3.org/1999/xlink" width="32" height="33" viewBox="0 0 32 33">
    <defs>
        <path id="a" d="M15.537.238a2.8 2.8 0 0 1 2.8 2.8v13.257a2.8 2.8 0 0 1-2.8 2.8h-6.4a2.8 2.8 0 0 1-2.8-2.8V3.038a2.8 2.8 0 0 1 2.8-2.8zM7.67 6.18v10.116c0 .81.657 1.467 1.467 1.467h6.4c.81 0 1.466-.657 1.466-1.467V6.185H7.744l-.074-.006zm4.667 8.875a.8.8 0 1 1 0 1.6.8.8 0 0 1 0-1.6zM2.893 3.721c.291.226.343.645.117.936l-.086.118a8.629 8.629 0 0 0-.648 1.11c-.74 1.519-.985 3.063-.468 4.47.229.622.605 1.21 1.15 1.76a.667.667 0 0 1-.948.938c-.677-.685-1.159-1.435-1.454-2.238-.663-1.806-.363-3.7.522-5.514.325-.666.652-1.17.88-1.463a.667.667 0 0 1 .935-.117zm18.88 0a.667.667 0 0 1 .936.117c.228.293.555.797.88 1.463.885 1.814 1.184 3.708.521 5.514-.295.803-.776 1.553-1.453 2.238a.667.667 0 0 1-.948-.938c.544-.55.921-1.138 1.15-1.76.516-1.407.272-2.951-.469-4.47a8.629 8.629 0 0 0-.586-1.021l-.147-.207a.667.667 0 0 1 .116-.936zM4.558 5.561c.287.23.334.65.104.938-.074.093-.203.289-.334.563-.522 1.086-.522 2.201.334 3.27a.667.667 0 1 1-1.041.833c-1.218-1.523-1.218-3.173-.495-4.68.18-.374.362-.653.495-.82a.667.667 0 0 1 .937-.103zm15.296 0a.667.667 0 0 1 .937.105c.133.166.316.445.495.82.723 1.506.723 3.156-.495 4.68a.667.667 0 0 1-1.041-.833c.855-1.07.855-2.185.334-3.27a3.168 3.168 0 0 0-.334-.564.667.667 0 0 1 .104-.937zm-4.317-3.99h-6.4c-.81 0-1.467.657-1.467 1.467v1.82l.074-.006h9.259V3.037c0-.762-.581-1.389-1.325-1.46l-.141-.006zm-1.6 1.125a.333.333 0 0 1 .076.658l-.076.009h-3.2a.333.333 0 0 1-.077-.658l.077-.01h3.2z"/>
    </defs>
    <g fill="none" fill-rule="evenodd">
        <path fill="#FFBD64" d="M10.901 8.239h10.198v3.61H10.901z"/>
        <g transform="translate(3.667 6.606)">
            <mask id="b" fill="#fff">
                <use xlink:href="#a"/>
            </mask>
            <use fill="#0B1D81" fill-rule="nonzero" xlink:href="#a"/>
            <g fill="#0B1D81" mask="url(#b)">
                <path d="M-3.667-6.333h32v32h-32z"/>
            </g>
        </g>
    </g>
</svg>
