<svg xmlns="http://www.w3.org/2000/svg" xmlns:xlink="http://www.w3.org/1999/xlink" width="32" height="33" viewBox="0 0 32 33">
    <defs>
        <path id="a" d="M10.048.245a.667.667 0 0 1 .591-.008l9.812 4.697c.231.11.379.344.379.601v10.507a.667.667 0 0 1-.359.59l-9.811 5.12a.667.667 0 0 1-.633-.008l-9.181-5.12a.667.667 0 0 1-.342-.582V5.535c0-.25.14-.48.363-.594zM1.836 6.632v9.018L10 20.203v-9.338L1.836 6.632zm17.66 0l-2.143 1.11.045 1.89a.667.667 0 0 1-.24.53l-.102.068-3.202 1.79a.667.667 0 0 1-.983-.467l-.009-.114-.001-1.366-1.528.793v9.03l8.163-4.26V6.633zm-3.461 1.795l-1.84.954v.921l1.86-1.04-.02-.835zM4.32 4.67l-1.695.867 8.042 4.17 1.704-.885L4.32 4.67zm3.076-1.573l-1.616.826 8.04 4.148 1.62-.84-8.044-4.134zm2.964-1.516l-1.502.768 8.035 4.129 1.776-.921-8.309-3.976z"/>
    </defs>
    <g fill="none" fill-rule="evenodd">
        <path fill="#FFBD64" d="M9.68 9.853l9.437 4.728.176 2.328 3.027-1.352-.42-2.375-9.205-4.867z"/>
        <g transform="translate(5.333 5.91)">
            <mask id="b" fill="#fff">
                <use xlink:href="#a"/>
            </mask>
            <use fill="#0B1D81" fill-rule="nonzero" xlink:href="#a"/>
            <g fill="#0B1D81" mask="url(#b)">
                <path d="M-5.333-5h32v32h-32z"/>
            </g>
        </g>
    </g>
</svg>
