<?xml version="1.0" encoding="UTF-8"?>
<svg width="24px" height="24px" viewBox="0 0 24 24" version="1.1" xmlns="http://www.w3.org/2000/svg" xmlns:xlink="http://www.w3.org/1999/xlink">
    <!-- Generator: Sketch 61.2 (89653) - https://sketch.com -->
    <title>ico-single/1px/ico-check-circle</title>
    <desc>Created with Sketch.</desc>
    <defs>
        <path d="M10,0.5 C15.2467051,0.5 19.5,4.75329488 19.5,10 C19.5,15.2467051 15.2467051,19.5 10,19.5 C4.75329488,19.5 0.5,15.2467051 0.5,10 C0.5,4.75329488 4.75329488,0.5 10,0.5 Z M10,1.5 C5.30557963,1.5 1.5,5.30557963 1.5,10 C1.5,14.6944204 5.30557963,18.5 10,18.5 C14.6944204,18.5 18.5,14.6944204 18.5,10 C18.5,5.30557963 14.6944204,1.5 10,1.5 Z M14.35271,6.82703443 C14.5266894,7.00018677 14.5466164,7.26956446 14.412085,7.46475367 L14.3543947,7.5341392 L8.74405035,13.1712809 C8.57060624,13.3455534 8.30068198,13.3652156 8.10547016,13.2300636 L8.03610223,13.1721242 L5.64644661,10.7824686 C5.45118446,10.5872065 5.45118446,10.270624 5.64644661,10.0753618 C5.82001296,9.90179547 6.08943736,9.88251032 6.2843055,10.0175064 L6.35355339,10.0753618 L8.388,12.11 L13.6456053,6.82871912 C13.8404016,6.63299231 14.1569832,6.63223805 14.35271,6.82703443 Z" id="path-1"></path>
    </defs>
    <g id="ico-single/1px/ico-check-circle" stroke="none" stroke-width="1" fill="none" fill-rule="evenodd">
        <g id="↳-Icon-Color" transform="translate(2.000000, 2.000000)">
            <mask id="mask-2" fill="white">
                <use xlink:href="#path-1"></use>
            </mask>
            <use id="Mask" fill="#0B1D81" fill-rule="nonzero" xlink:href="#path-1"></use>
            <g id="Color/Blue" mask="url(#mask-2)" fill="#0B1D81">
                <g transform="translate(-2.000000, -2.000000)" id="Rectangle-3">
                    <rect x="0" y="0" width="24" height="24"></rect>
                </g>
            </g>
        </g>
    </g>
</svg>