<?xml version="1.0" encoding="UTF-8"?>
<svg width="24px" height="24px" viewBox="0 0 24 24" version="1.1" xmlns="http://www.w3.org/2000/svg" xmlns:xlink="http://www.w3.org/1999/xlink">
    <!-- Generator: Sketch 61.2 (89653) - https://sketch.com -->
    <title>ico-colour/ico-prayer-times </title>
    <desc>Created with Sketch.</desc>
    <defs>
        <path d="M8.49999857,0.0500092638 L8.50461956,0.163978483 C8.55327661,0.760080835 8.9922784,1.17616656 10.1171347,1.78275499 L10.3361547,1.89881323 L11.2013692,2.35091388 C12.0272189,2.79810428 12.5562165,3.16570993 13.0033414,3.6534811 C13.9053662,4.63750515 14.4057463,5.75297328 14.4961195,6.98337871 L15.0881348,6.98368214 C15.3335947,6.98368214 15.5377431,7.1605573 15.5800791,7.39380651 L15.5881348,7.48368214 L15.5881348,9.69584035 C15.5881348,9.94130023 15.4112596,10.1454487 15.1780104,10.1877847 L15.0881348,10.1958403 L14.5278652,10.1956821 L14.5285645,19.4499907 C14.5285645,19.6954506 14.3516893,19.8995991 14.1184401,19.9419351 L14.0285645,19.9499907 L1.93432617,19.9499907 C1.68886628,19.9499907 1.4847178,19.7731156 1.44238184,19.5398664 L1.43432617,19.4499907 L1.43386523,10.1956821 L0.911865234,10.1958403 C0.666405346,10.1958403 0.462256864,10.0189652 0.419920904,9.78571598 L0.411865234,9.69584035 L0.411865234,7.48368214 C0.411865234,7.23822225 0.588740395,7.03407377 0.821989602,6.99173781 L0.911865234,6.98368214 L1.50388051,6.98337871 C1.5942537,5.75297328 2.09463382,4.63750515 2.99665856,3.6534811 C3.44378346,3.16570993 3.97278106,2.79810428 4.7986308,2.35091388 L5.66384527,1.89881323 C6.88794937,1.26051877 7.50000143,0.644250786 7.50000143,0.0500092638 L8.49999857,0.0500092638 Z M13.5278652,10.1956821 L2.43386523,10.1956821 L2.43335352,18.9508403 L4.39286523,18.9506821 L4.3929335,15.1714177 C4.3929335,13.2949919 6.01593208,11.7897124 8,11.7897124 C9.91793232,11.7897124 11.4984654,13.1963125 11.6017032,14.9850543 L11.6070665,15.1714177 L11.6068652,18.9506821 L13.5283535,18.9508403 L13.5278652,10.1956821 Z M8,12.7897124 C6.61001315,12.7897124 5.48612856,13.7805129 5.39844178,15.0157889 L5.3929335,15.1714177 L5.39286523,18.9506821 L10.6068652,18.9506821 L10.6070665,15.1714177 C10.6070665,13.8647997 9.44790297,12.7897124 8,12.7897124 Z M14.5873535,7.98384035 L1.41135352,7.98384035 L1.41135352,9.19584035 L14.5873535,9.19584035 L14.5873535,7.98384035 Z M7.99944195,1.47779485 C7.65302003,1.88861079 7.11346455,2.25576947 6.34907052,2.66746561 L5.51974196,3.09988118 C4.63936041,3.56132312 4.12652375,3.90079495 3.73381169,4.32920682 C3.00141555,5.12818205 2.59511688,6.00787183 2.50718689,6.9835324 L13.4928131,6.9835324 C13.4048831,6.00787183 12.9985845,5.12818205 12.2661883,4.32920682 C11.9127475,3.94363613 11.4620057,3.63010689 10.7335936,3.23486557 L10.480258,3.09988118 L9.65092948,2.66746561 C8.88653545,2.25576947 8.34697997,1.88861079 7.99944195,1.47779485 Z" id="path-1"></path>
    </defs>
    <g id="ico-colour/ico-prayer-times-" stroke="none" stroke-width="1" fill="none" fill-rule="evenodd">
        <path d="M12.2815679,14.8022861 C13.4842337,14.9150525 14.4362868,15.7733527 14.5953899,16.8515897 L14.5946101,20.9502861 L9.4046101,20.9506821 L9.40467836,17.1714177 L9.41018664,17.0157889 C9.49212277,15.8615245 10.4788018,14.920721 11.7419218,14.8022861 Z" id="Combined-Shape" fill="#FFBD64"></path>
        <g id="↳-Icon-Color-Copy-25" transform="translate(4.000000, 2.000000)">
            <mask id="mask-2" fill="white">
                <use xlink:href="#path-1"></use>
            </mask>
            <use id="Mask" fill="#0B1D81" fill-rule="nonzero" xlink:href="#path-1"></use>
            <g mask="url(#mask-2)" fill="#0B1D81" id="Rectangle-3">
                <g transform="translate(-4.000000, -2.000000)">
                    <rect x="0" y="0" width="24" height="24"></rect>
                </g>
            </g>
        </g>
    </g>
</svg>