<svg xmlns="http://www.w3.org/2000/svg" xmlns:xlink="http://www.w3.org/1999/xlink" width="32" height="33" viewBox="0 0 32 33">
    <defs>
        <path id="a" d="M13.333.667C20.33.667 26 6.337 26 13.333S20.329 26 13.333 26C6.338 26 .667 20.329.667 13.333.667 6.338 6.337.667 13.333.667zm0 1.333C7.074 2 2 7.074 2 13.333c0 6.26 5.074 11.334 11.333 11.334 6.26 0 11.334-5.074 11.334-11.334C24.667 7.074 19.593 2 13.333 2zm.716 8.698l.08.008a.387.387 0 0 1 .206.11.39.39 0 0 1 .118.287v7.946l-.007.081a.387.387 0 0 1-.11.205.39.39 0 0 1-.287.118h-1.431l-.081-.007a.387.387 0 0 1-.205-.11.39.39 0 0 1-.118-.287v-7.946l.007-.088a.36.36 0 0 1 .11-.207.405.405 0 0 1 .287-.11h1.43zm.05-3.485l.089.008a.392.392 0 0 1 .214.11.41.41 0 0 1 .118.303v1.23l-.008.08a.38.38 0 0 1-.118.206.418.418 0 0 1-.295.117H12.55l-.08-.007a.387.387 0 0 1-.206-.11.39.39 0 0 1-.118-.287V7.634l.008-.088a.392.392 0 0 1 .11-.215.39.39 0 0 1 .286-.118h1.55z"/>
    </defs>
    <g fill="none" fill-rule="evenodd" transform="translate(2.667 3.167)">
        <mask id="b" fill="#fff">
            <use xlink:href="#a"/>
        </mask>
        <use fill="#0B1D81" fill-rule="nonzero" xlink:href="#a"/>
        <g fill="#0B1D81" mask="url(#b)">
            <path d="M-2.667-2.667h32v32h-32z"/>
        </g>
    </g>
</svg>
