<svg xmlns="http://www.w3.org/2000/svg" xmlns:xlink="http://www.w3.org/1999/xlink" width="32" height="33" viewBox="0 0 32 33">
    <defs>
        <path id="a" d="M13.795 9.582l-.028.026a.67.67 0 0 1-.052.04l-.025.017a.666.666 0 0 1-.065.036l-.015.007-10.446 4.773A1.991 1.991 0 0 0 2 16.292c0 .527.392.963.9 1.032l.141.01h20.584c.576 0 1.042-.467 1.042-1.042 0-.714-.382-1.369-.992-1.722l-.172-.089-7.425-3.392a.667.667 0 0 1 .441-1.253l.114.04 7.424 3.392A3.325 3.325 0 0 1 26 16.292c0 1.246-.96 2.268-2.18 2.367l-.195.008H3.041a2.375 2.375 0 0 1-2.374-2.375c0-1.22.667-2.335 1.726-2.915l.217-.109 10.057-4.595V6.066c0-.368.298-.666.666-.666.56 0 1.083-.227 1.464-.622A2.033 2.033 0 1 0 11.3 3.367a.667.667 0 1 1-1.333 0 3.367 3.367 0 1 1 4.107 3.284L14 6.664 14 9.102v.015a.665.665 0 0 1-.004.055l.004-.07a.67.67 0 0 1-.19.467l-.015.013z"/>
    </defs>
    <g fill="none" fill-rule="evenodd" transform="translate(2.667 7.167)">
        <mask id="b" fill="#fff">
            <use xlink:href="#a"/>
        </mask>
        <use fill="#0B1D81" fill-rule="nonzero" xlink:href="#a"/>
        <g fill="#0B1D81" mask="url(#b)">
            <path d="M-2.667-6.667h32v32h-32z"/>
        </g>
    </g>
</svg>
