<svg xmlns="http://www.w3.org/2000/svg" xmlns:xlink="http://www.w3.org/1999/xlink" width="284" height="284" viewBox="0 0 284 284">
    <defs>
        <path id="a" d="M71.522 11.514c32.676 0 59.166 26.49 59.166 59.166 0 12.32-3.529 28.824-9.475 44.328a.972.972 0 0 1 .334.135l55.076 34.944c6.07 3.851 7.87 11.894 4.018 17.965a13.017 13.017 0 0 1-3.929 3.96l-46.94 30.316-6.603 4.436a1 1 0 0 1-.44.162l-.118.007-53.304.019.013 26.075a1 1 0 0 1-1.536.845L12.71 198.929c-6.07-3.851-7.87-11.894-4.018-17.965a13.017 13.017 0 0 1 3.929-3.96l46.066-29.758 7.666-5.014a1 1 0 0 1 .431-.157l.116-.006h53.125l-.014-25.09a5.919 5.919 0 0 1-9.876-6.132c5.478-14.26 8.72-29.401 8.72-40.167 0-26.141-21.192-47.333-47.333-47.333-26.142 0-47.334 21.192-47.334 47.333 0 12.396 5.059 30.812 13.082 47.04 2.073 4.194 4.305 8.166 6.65 11.82a5.917 5.917 0 1 1-9.96 6.391c-2.588-4.034-5.035-8.388-7.298-12.967-8.774-17.747-14.307-37.891-14.307-52.284 0-32.676 26.49-59.166 59.167-59.166zm-14.04 150.601l-38.44 24.829a1.183 1.183 0 0 0 .007 1.993l38.432 24.384-.005-18.212 62.243-.01v-14.596l-61.938.01v-.172h-.305l.005-18.226zm74.37-26.42l.008 18.212-62.246.01v14.6l61.939-.014v.172h.307l-.008 18.226 38.44-24.829a1.183 1.183 0 0 0-.008-1.993l-38.432-24.384zm-60.33-94.784c13.462 0 24.376 10.914 24.376 24.377S84.984 89.665 71.522 89.665c-13.463 0-24.377-10.914-24.377-24.377S58.059 40.91 71.522 40.91zm0 11.833c-6.928 0-12.544 5.616-12.544 12.544 0 6.927 5.616 12.543 12.544 12.543 6.927 0 12.543-5.616 12.543-12.543 0-6.928-5.616-12.544-12.543-12.544z"/>
    </defs>
    <g fill="none" fill-rule="evenodd" opacity=".3" transform="translate(47.333 23.667)">
        <mask id="b" fill="#fff">
            <use xlink:href="#a"/>
        </mask>
        <use fill="#0B1D81" fill-rule="nonzero" xlink:href="#a"/>
        <g fill="#0B1D81" mask="url(#b)">
            <path d="M-47.333-23.667h284v284h-284z"/>
        </g>
    </g>
</svg>
