<svg xmlns="http://www.w3.org/2000/svg" xmlns:xlink="http://www.w3.org/1999/xlink" width="32" height="33" viewBox="0 0 32 33">
    <defs>
        <path id="prefix__a" d="M19.071.793c.737 0 1.334.597 1.334 1.333v19.748c0 .738-.6 1.335-1.338 1.333h-.13c-.409-.002-.795-.192-1.047-.515l-.5-.643-.502.644c-.216.278-.532.457-.877.502l-.174.011h-.256c-.411 0-.8-.19-1.052-.514l-.5-.643-.502.644c-.216.277-.532.457-.877.502l-.175.011h-.256c-.41 0-.799-.19-1.051-.514l-.502-.644-.502.645c-.216.278-.532.457-.877.502l-.174.011h-.256c-.411 0-.8-.19-1.052-.514l-.5-.643-.502.644c-.216.278-.532.457-.877.502l-.175.011h-.256c-.41 0-.799-.19-1.052-.514l-.5-.643-.501.643c-.216.277-.53.456-.874.502l-.173.012h-.128c-.739.003-1.338-.594-1.338-1.332V2.126c0-.736.597-1.333 1.333-1.333zm0 1.333H2.262v19.748h.128l1.553-1.994 1.552 1.993h.256l1.554-1.993 1.552 1.993h.256l1.554-1.993 1.552 1.993h.256l1.553-1.993 1.553 1.993h.256l1.553-1.993 1.552 1.993h.13V2.127zm-8.765 11.448c.368 0 .667.298.667.666 0 .328-.236.6-.547.656l-.12.011H4.855c-.368 0-.667-.298-.667-.667 0-.327.236-.599.547-.655l.12-.011h5.451zm5.451-4.105c.368 0 .667.299.667.667 0 .327-.236.6-.547.656l-.12.01H4.855c-.368 0-.667-.298-.667-.666 0-.327.236-.6.547-.656l.12-.01h10.902zm0-4.104c.368 0 .667.298.667.666 0 .328-.236.6-.547.656l-.12.011H4.855c-.368 0-.667-.299-.667-.667 0-.327.236-.6.547-.656l.12-.01h10.902z"/>
    </defs>
    <g fill="none" fill-rule="evenodd">
        <path fill="#FFBD64" d="M7.595 5.333H24.404V21.112000000000002H7.595z" transform="translate(0 .5)"/>
        <g transform="translate(0 .5) translate(5.333 4)">
            <mask id="prefix__b" fill="#fff">
                <use xlink:href="#prefix__a"/>
            </mask>
            <use fill="#0B1D81" fill-rule="nonzero" xlink:href="#prefix__a"/>
            <g fill="#0B1D81" mask="url(#prefix__b)">
                <path d="M0 0H32V32H0z" transform="translate(-5.333 -4)"/>
            </g>
        </g>
    </g>
</svg>
