<svg xmlns="http://www.w3.org/2000/svg" xmlns:xlink="http://www.w3.org/1999/xlink" width="33" height="32" viewBox="0 0 33 32">
    <defs>
        <path id="prefix__a" d="M20.339 21.831c.368 0 .667.299.667.667 0 .327-.236.6-.547.656l-.12.01H.994c-.368 0-.666-.298-.666-.666 0-.327.235-.6.546-.656l.12-.01H20.34zM10.151.835c4.093 0 7.411 3.319 7.411 7.412 0 4.97-3.432 11.807-7.186 11.807-3.782 0-7.636-7.002-7.636-11.807C2.74 4.154 6.058.835 10.15.835zm0 1.334c-3.357 0-6.078 2.721-6.078 6.078 0 4.166 3.472 10.474 6.303 10.474 2.768 0 5.853-6.146 5.853-10.474 0-3.357-2.721-6.078-6.078-6.078zm0 1.893c1.66 0 3.005 1.345 3.005 3.005s-1.345 3.005-3.005 3.005-3.005-1.346-3.005-3.005c0-1.66 1.346-3.005 3.005-3.005zm0 1.333c-.923 0-1.671.749-1.671 1.672 0 .923.748 1.671 1.671 1.671s1.672-.748 1.672-1.671-.749-1.672-1.672-1.672z"/>
    </defs>
    <g fill="none" fill-rule="evenodd">
        <path fill="#FFBD64" d="M15.085 6.059c3.412 0 6.179 2.766 6.179 6.179 0 3.412-2.767 10.522-6.18 10.522-3.412 0-6.179-7.11-6.179-10.522 0-3.413 2.767-6.18 6.18-6.18zm0 3.376c-.924 0-1.672.748-1.672 1.671s.748 1.672 1.672 1.672c.923 0 1.671-.749 1.671-1.672 0-.923-.748-1.671-1.671-1.671z" transform="translate(.5)"/>
        <g transform="translate(.5) translate(4.883 4)">
            <mask id="prefix__b" fill="#fff">
                <use xlink:href="#prefix__a"/>
            </mask>
            <use fill="#0B1D81" fill-rule="nonzero" xlink:href="#prefix__a"/>
            <g fill="#0B1D81" mask="url(#prefix__b)">
                <path d="M0 0H32V32H0z" transform="translate(-5.333 -4)"/>
            </g>
        </g>
    </g>
</svg>
