<svg xmlns="http://www.w3.org/2000/svg" width="284" height="268" viewBox="0 0 284 268">
    <path fill="#0B1D81" d="M205.227 143.571l.181.181 17.532 18.289c2.138 2.23 2.017 5.623-.23 7.689l-.181.16-79.907 67.55c-1.09.922-2.506 1.424-3.97 1.416l-.293-.009-16.788-.88c-3.187-.167-5.66-2.674-5.624-5.647l.007-.213.982-18.739c.072-1.384.692-2.686 1.732-3.653l.2-.178 78.18-66.219c2.355-1.995 5.964-1.865 8.179.253zm-4.613 11.736l-71.982 60.968-.57 10.89 8.437.442 73.7-62.302-9.585-9.998zm-72.77-44.959c18.18 0 35.583 5.018 50.402 14.278 2.721 1.7 3.46 5.15 1.65 7.706s-5.483 3.25-8.203 1.55c-12.893-8.056-28.018-12.418-43.85-12.418-40.992 0-74.718 29.225-78.856 66.704l-.206 2.21 45.76.007c2.904 0 5.32 1.966 5.82 4.559l.096.999c0 2.728-2.093 4.998-4.853 5.468l-1.064.09H42.643c-3.267 0-5.916-2.489-5.916-5.558 0-47.273 40.794-85.595 91.116-85.595zm97.978 9.684l24.206 25.255c.254.265.245.686-.02.94l-.03.028-16.442 13.906-25.128-26.216 16.504-13.96c.268-.227.667-.206.91.047zm-89.7-90.246c18.626 0 33.725 14.184 33.725 31.68 0 17.497-15.099 31.68-33.724 31.68-18.626 0-33.725-14.183-33.725-31.68 0-17.496 15.1-31.68 33.725-31.68zm0 11.116c-12.09 0-21.89 9.207-21.89 20.564 0 11.358 9.8 20.565 21.89 20.565 12.091 0 21.892-9.207 21.892-20.565 0-11.357-9.801-20.564-21.891-20.564z" opacity=".3"/>
</svg>
