<?xml version="1.0" encoding="UTF-8"?>
<svg width="24px" height="24px" viewBox="0 0 24 24" version="1.1" xmlns="http://www.w3.org/2000/svg" xmlns:xlink="http://www.w3.org/1999/xlink">
    <!-- Generator: Sketch 61.2 (89653) - https://sketch.com -->
    <title>ico-single/2px/ico-search </title>
    <desc>Created with Sketch.</desc>
    <defs>
        <path d="M14.3400593,11.955536 L14.4434097,12.0270486 L18.986872,15.6069366 C19.4206782,15.9487415 19.49526,16.5774986 19.1534551,17.0113048 C18.8379429,17.4117413 18.277927,17.5060931 17.8524373,17.2494005 L17.7490869,17.1778879 L13.2056246,13.598 C12.7718184,13.2561951 12.6972366,12.627438 13.0390415,12.1936318 C13.3545537,11.7931952 13.9145696,11.6988434 14.3400593,11.955536 Z M7.35197935,0.607546059 C11.0633331,0.607546059 14.0719798,3.61619274 14.0719798,7.3275465 C14.0719798,11.0389003 11.0633331,14.0475469 7.35197935,14.0475469 C3.64062558,14.0475469 0.631978907,11.0389003 0.631978907,7.3275465 C0.631978907,3.61619274 3.64062558,0.607546059 7.35197935,0.607546059 Z M7.35197935,2.60754606 C4.74519508,2.60754606 2.63197891,4.72076224 2.63197891,7.3275465 C2.63197891,9.93433076 4.74519508,12.0475469 7.35197935,12.0475469 C9.95876361,12.0475469 12.0719798,9.93433076 12.0719798,7.3275465 C12.0719798,4.72076224 9.95876361,2.60754606 7.35197935,2.60754606 Z" id="path-1"></path>
    </defs>
    <g id="ico-single/2px/ico-search-" stroke="none" stroke-width="1" fill="none" fill-rule="evenodd">
        <g id="Color/Blue" transform="translate(2.000000, 3.000000)">
            <mask id="mask-2" fill="white">
                <use xlink:href="#path-1"></use>
            </mask>
            <use id="Mask" fill="#0B1D81" fill-rule="nonzero" xlink:href="#path-1"></use>
            <g mask="url(#mask-2)" fill="#0B1D81" id="Rectangle-3">
                <g transform="translate(-2.000000, -3.000000)">
                    <rect x="0" y="0" width="24" height="24"></rect>
                </g>
            </g>
        </g>
    </g>
</svg>