<svg xmlns="http://www.w3.org/2000/svg" xmlns:xlink="http://www.w3.org/1999/xlink" width="284" height="284" viewBox="0 0 284 284">
    <defs>
        <path id="prefix__a" d="M180.937 2.958c3.194 0 5.796 2.53 5.913 5.695l.004.222v171.583c0 3.194-2.53 5.796-5.695 5.913l-.222.004H8.396c-3.193 0-5.796-2.53-5.913-5.695l-.004-.222V8.875c0-3.193 2.53-5.796 5.695-5.913l.222-.004h172.541zm-92.194 113.42h-74.43v58.154h74.431v-58.155zm86.266 0h-74.426v58.153h74.426v-58.154zM42.866 132.841l.535.424 7.07 7.07 7.07-7.07c1.156-1.155 3.029-1.155 4.184 0 .99.99 1.132 2.508.425 3.649l-.425.535-7.07 7.07 7.07 7.07c1.156 1.156 1.156 3.029 0 4.184-.99.99-2.508 1.132-3.649.424l-.535-.424-7.07-7.07-7.07 7.07c-1.155 1.155-3.028 1.155-4.184 0-.99-.99-1.131-2.508-.424-3.649l.424-.535 7.07-7.07-7.07-7.07c-1.155-1.155-1.155-3.029 0-4.184.99-.99 2.508-1.132 3.65-.424zm106.427 16.184c1.634 0 2.958 1.324 2.958 2.958 0 1.4-.973 2.574-2.28 2.88l-.678.078h-25.914c-1.634 0-2.959-1.324-2.959-2.958 0-1.4.973-2.574 2.28-2.88l.679-.078h25.914zm0-13.381c1.634 0 2.958 1.325 2.958 2.958 0 1.4-.973 2.574-2.28 2.88l-.678.079h-25.914c-1.634 0-2.959-1.325-2.959-2.959 0-1.4.973-2.573 2.28-2.88l.679-.078h25.914zM88.744 46.377H14.313v58.16h74.431v-58.16zm86.265 0h-74.426v58.16h74.426v-58.16zM50.471 57.944c1.4 0 2.574.973 2.88 2.28l.079.678V70.9h9.998c1.634 0 2.959 1.325 2.959 2.96 0 1.4-.973 2.573-2.28 2.88l-.679.077H53.43v10c0 1.633-1.325 2.958-2.959 2.958-1.4 0-2.573-.974-2.88-2.28l-.078-.679v-9.999h-9.999c-1.634 0-2.958-1.324-2.958-2.958 0-1.4.973-2.573 2.28-2.88l.678-.078 9.999-.001v-9.998c0-1.634 1.324-2.958 2.958-2.958zm98.822 12.99c1.634 0 2.958 1.325 2.958 2.958 0 1.4-.973 2.574-2.28 2.88l-.678.079h-25.914c-1.634 0-2.959-1.325-2.959-2.959 0-1.4.973-2.573 2.28-2.88l.679-.078h25.914zm25.716-56.152H14.313v19.765h160.696V14.782z"/>
    </defs>
    <g fill="none" fill-rule="evenodd" opacity=".3" transform="translate(47.333 47.333)">
        <mask id="prefix__b" fill="#fff">
            <use xlink:href="#prefix__a"/>
        </mask>
        <use fill="#0B1D81" fill-rule="nonzero" xlink:href="#prefix__a"/>
        <g fill="#0B1D81" mask="url(#prefix__b)">
            <path d="M0 0H284V284H0z" transform="translate(-47.333 -47.333)"/>
        </g>
    </g>
</svg>
