<svg xmlns="http://www.w3.org/2000/svg" xmlns:xlink="http://www.w3.org/1999/xlink" width="43" height="43" viewBox="0 0 43 43">
    <defs>
        <path id="prefix__a" d="M33.43 28.79c.483 0 .875.392.875.876 0 .43-.31.786-.717.86l-.157.015H1.524c-.483 0-.874-.392-.874-.875 0-.43.31-.787.717-.861l.157-.014h31.907zM20.366.96c.445 0 .813.333.867.765l.007.11-.001 9.56h3.744V6.126c0-.446.334-.814.765-.868l.11-.007h5.491c.446 0 .813.334.867.765l.007.11v18.457c0 .446-.333.815-.764.869l-.11.006H3.89c-.446 0-.814-.333-.868-.765l-.006-.11V10.307c0-.446.333-.814.764-.868l.11-.007H9.38c.446 0 .813.334.867.765l.007.11v6.818h3.744V1.835c0-.447.333-.815.764-.869l.11-.007h5.492zm-.876 1.749h-3.744v15.26l.002.032v5.707h3.742v-21zm5.493 10.435h-3.744v10.564h3.744V13.145zm5.492-6.142H26.73v16.707h3.744V7.002zM8.506 11.18H4.763v12.528h3.743V11.18zm5.492 7.694h-3.743v4.833h3.743v-4.833z"/>
    </defs>
    <g fill="none" fill-rule="evenodd">
        <path fill="#FFBD64" d="M13.626 24.087H17.436999999999998V28.995H13.626zM24.777 18.244H28.588V28.994999999999997H24.777z" transform="translate(.982 .75)"/>
        <g transform="translate(.982 .75) translate(3.495 5.25)">
            <mask id="prefix__b" fill="#fff">
                <use xlink:href="#prefix__a"/>
            </mask>
            <use fill="#0B1D81" fill-rule="nonzero" xlink:href="#prefix__a"/>
            <g fill="#0B1D81" mask="url(#prefix__b)">
                <path d="M0 0H41.946V42H0z" transform="translate(-3.495 -5.25)"/>
            </g>
        </g>
    </g>
</svg>
