<?xml version="1.0" encoding="UTF-8"?>
<svg width="24px" height="24px" viewBox="0 0 24 24" version="1.1" xmlns="http://www.w3.org/2000/svg" xmlns:xlink="http://www.w3.org/1999/xlink">
    <!-- Generator: Sketch 61.2 (89653) - https://sketch.com -->
    <title>ico-colour/ico-announcements</title>
    <desc>Created with Sketch.</desc>
    <g id="ico-colour/ico-announcements" stroke="none" stroke-width="1" fill="none" fill-rule="evenodd">
        <path d="M16.7269644,10.4518044 L16.8337676,10.4579657 C17.289237,10.5108678 17.6427777,10.8979558 17.6427777,11.3676176 C17.6427777,11.8734073 17.2327541,12.2834309 16.7269644,12.2834309 L16.7269644,12.2834309 L15.133923,12.2840704 C15.115452,11.9849469 15.1058257,11.6790146 15.1058257,11.3676176 C15.1058257,11.0562207 15.115452,10.7502884 15.133923,10.4511648 L15.133923,10.4511648 L16.7269644,10.4518044 Z" id="Combined-Shape" fill="#FFBD64"></path>
        <path d="M17.8031246,3.83441451 C19.9527481,3.83441451 21.5004236,7.23888698 21.5004236,11.3676176 C21.5004236,15.4963483 19.9527481,18.9008208 17.8031246,18.9008208 C17.5745399,18.9008208 17.3527618,18.8623244 17.1389274,18.7885545 L12.8115764,17.5484145 L12.8115882,17.870235 C12.8115882,18.1088734 12.7743641,18.3460514 12.7012583,18.5732161 C12.3298927,19.7271756 11.130988,20.3841821 9.97164087,20.0993568 L9.81387471,20.0546374 L8.85664286,19.7465825 C7.88060192,19.4324744 7.20138738,18.5573335 7.12893156,17.5464881 L7.12250686,17.3667815 L7.12060439,15.9194515 C5.8246469,15.5413077 5.11241336,15.3178289 4.95779108,15.2410459 C3.46455225,14.4995271 2.49957644,12.9747119 2.49957644,11.2773161 C2.49957644,9.69900422 3.33379198,8.26792932 4.65644922,7.47809032 L4.84868566,7.36967166 C5.1962587,7.18484802 8.02864432,6.39462152 13.6288862,4.91459886 L17.001563,3.99935588 C17.257325,3.89132593 17.5251935,3.83441451 17.8031246,3.83441451 Z M8.12133475,16.2089085 L8.12250686,17.3667815 C8.12250686,17.9716453 8.48500197,18.5123115 9.0332522,18.7462352 L9.16298846,18.7946621 L10.1202203,19.102717 C10.8009013,19.3217728 11.5302821,18.9475516 11.7493379,18.2668705 C11.7768364,18.1814234 11.795337,18.0934652 11.8046154,18.004426 L11.8115882,17.870235 L11.8115764,17.2624145 L9.8639879,16.7051551 C9.21855233,16.5225844 8.63797856,16.3572637 8.12133475,16.2089085 Z M17.8031246,4.83441451 C16.6748581,4.83441451 15.5910681,6.76276911 15.2311194,9.45145844 L16.7269644,9.45180436 C17.7850389,9.45180436 18.6427777,10.3095432 18.6427777,11.3676176 C18.6427777,12.3753076 17.8647833,13.2012872 16.8766841,13.2776669 L16.7269644,13.2834309 L15.2311194,13.2837768 C15.5910681,15.9724662 16.6748581,17.9008208 17.8031246,17.9008208 C19.1851401,17.9008208 20.5004236,15.0075486 20.5004236,11.3676176 C20.5004236,7.72768664 19.1851401,4.83441451 17.8031246,4.83441451 Z M15.4932668,5.42130984 L10.7145782,6.72553975 C7.35706077,7.62616722 5.5143971,8.14826775 5.31818846,8.25260264 C4.20796398,8.84296986 3.49957644,9.99726972 3.49957644,11.2773161 C3.49957644,12.5913042 4.24627596,13.7712082 5.4025555,14.3453983 L5.58439944,14.4131537 C6.22120911,14.6273224 8.380353,15.2519299 11.9567643,16.2549119 L15.4778088,17.288989 C14.6242732,15.904244 14.1058257,13.7572385 14.1058257,11.3676176 C14.1058257,8.96360492 14.6305369,6.80513875 15.4932668,5.42130984 Z M15.133923,10.4511648 C15.115452,10.7502884 15.1058257,11.0562207 15.1058257,11.3676176 C15.1058257,11.6790146 15.115452,11.9849469 15.133923,12.2840704 L16.7269644,12.2834309 C17.2327541,12.2834309 17.6427777,11.8734073 17.6427777,11.3676176 C17.6427777,10.8979558 17.289237,10.5108678 16.8337676,10.4579657 L16.7269644,10.4518044 Z" id="Combined-Shape" fill="#0B1D81" fill-rule="nonzero"></path>
    </g>
</svg>