<svg xmlns="http://www.w3.org/2000/svg" xmlns:xlink="http://www.w3.org/1999/xlink" width="33" height="32" viewBox="0 0 33 32">
    <defs>
        <path id="prefix__a" d="M13.333.667C20.33.667 26 6.337 26 13.333S20.329 26 13.333 26C6.338 26 .667 20.329.667 13.333.667 6.338 6.337.667 13.333.667zm0 14.127c-3.958 0-7.253 3.016-7.623 6.926 2.013 1.83 4.688 2.947 7.623 2.947 2.935 0 5.61-1.116 7.623-2.946l.009.09c-.327-3.951-3.64-7.017-7.632-7.017zm0-12.794C7.074 2 2 7.074 2 13.333c0 2.72.958 5.216 2.555 7.17.894-4.051 4.507-7.042 8.778-7.042 4.274 0 7.886 2.993 8.78 7.041 1.595-1.953 2.554-4.449 2.554-7.169C24.667 7.074 19.593 2 13.333 2zm0 2.497c2.106 0 3.812 1.707 3.812 3.812 0 2.106-1.706 3.812-3.812 3.812-2.105 0-3.812-1.706-3.812-3.812 0-2.105 1.707-3.812 3.812-3.812zm0 1.334c-1.369 0-2.478 1.11-2.478 2.478 0 1.37 1.11 2.479 2.478 2.479 1.37 0 2.479-1.11 2.479-2.479s-1.11-2.478-2.479-2.478z"/>
    </defs>
    <g fill="none" fill-rule="evenodd" transform="translate(.5)">
        <circle cx="16" cy="10.944" r="2.494" fill="#FFBD64"/>
        <path fill="#FFBD64" d="M16 27.984c-3.145 0 7.648 1.133 7.648-3.09 0-4.225-3.424-7.649-7.648-7.649s-7.648 3.424-7.648 7.648 10.793 3.09 7.648 3.09z"/>
        <g transform="translate(2.667 2.667)">
            <mask id="prefix__b" fill="#fff">
                <use xlink:href="#prefix__a"/>
            </mask>
            <use fill="#0B1D81" fill-rule="nonzero" xlink:href="#prefix__a"/>
            <g fill="#0B1D81" mask="url(#prefix__b)">
                <path d="M0 0H32V32H0z" transform="translate(-2.667 -2.667)"/>
            </g>
        </g>
    </g>
</svg>
