<?xml version="1.0" encoding="utf-8"?>
<!-- Generator: Adobe Illustrator 19.0.0, SVG Export Plug-In . SVG Version: 6.00 Build 0)  -->
<svg version="1.1" id="Layer_1" xmlns="http://www.w3.org/2000/svg" xmlns:xlink="http://www.w3.org/1999/xlink" x="0px" y="0px"
	 width="284px" height="284px" viewBox="134 -140 284 284" style="enable-background:new 134 -140 284 284;" xml:space="preserve">
<style type="text/css">
	.st0{opacity:0.3;}
	.st1{fill:#0B1D81;}
	.st2{filter:url(#Adobe_OpacityMaskFilter);}
	.st3{fill:#FFFFFF;}
	.st4{mask:url(#prefix__b);}
</style>
<g transform="translate(23.667 35.5)" class="st0">
	<g>
		<path id="prefix__a_1_" class="st1" d="M304.6-37c28.2,0,51.1,22.9,51.1,51.1c0,28.2-22.9,51.1-51.1,51.1
			c-28.2,0-51.1-22.9-51.1-51.1C253.5-14.1,276.4-37,304.6-37L304.6-37z M304.6-25.8c-22,0-39.9,17.9-39.9,39.9
			c0,22,17.9,39.9,39.9,39.9s39.9-17.9,39.9-39.9C344.5-7.9,326.6-25.8,304.6-25.8L304.6-25.8z M308.3,29.4l0.2,0
			c0.4,0,0.7,0.2,1.1,0.5c0.4,0.3,0.5,0.7,0.5,1.2v6.2l0,0.2c0,0.4-0.2,0.7-0.5,1c-0.3,0.3-0.7,0.5-1.3,0.5h-6.9l-0.2,0
			c-0.4,0-0.7-0.2-1-0.5c-0.3-0.3-0.5-0.7-0.5-1.2v-6.2l0-0.2c0-0.4,0.2-0.7,0.5-1c0.3-0.3,0.7-0.5,1.2-0.5H308.3L308.3,29.4z
			 M305.4-10.8c3.9,0,7.1,0.6,9.6,1.9c2.5,1.2,4.3,2.8,5.5,4.7c1.1,1.9,1.7,3.9,1.7,6c0,2.3-0.5,4.4-1.6,6.1c-1.1,1.7-2.6,3.7-4.7,6
			c-1.5,1.6-2.7,3-3.5,4.1c-0.8,1.1-1.4,2.4-1.6,3.7c-0.2,1.2-0.3,2-0.4,2.4c-0.2,0.6-0.5,1.1-0.8,1.3c-0.3,0.3-0.7,0.4-1.2,0.4
			h-6.9l-0.2,0c-0.4,0-0.7-0.2-0.9-0.4c-0.3-0.3-0.4-0.6-0.4-1c0-1,0-1.7,0.1-2.2c0.2-2.2,0.9-4.1,2.1-5.8c1.2-1.7,2.8-3.6,4.8-5.6
			c1.6-1.6,2.8-2.9,3.5-3.9c0.8-1,1.2-2.1,1.3-3.2c0.2-1.9-0.4-3.4-1.9-4.6c-1.4-1.1-3.1-1.7-5.1-1.7c-4.5,0-7.3,2.3-8.2,6.8
			c-0.3,1.1-1,1.6-2,1.6h-6.1l-0.2,0c-0.4,0-0.7-0.2-1-0.5c-0.3-0.3-0.5-0.7-0.5-1.3c0.1-2.6,0.9-5,2.3-7.2c1.5-2.2,3.6-4.1,6.3-5.4
			C298.4-10.1,301.7-10.8,305.4-10.8L305.4-10.8z M296.8-129.1c20.9,0,38.1,16.4,39.2,37.1l0.1,2.2v30.1c0,3.1-2.5,5.6-5.6,5.6
			c-2.8,0-5-2-5.5-4.6l-0.1-1v-30.1c0-14.9-11.6-27-26.2-28l-1.8-0.1H187.2c-14.9,0-27,11.6-28,26.2l-0.1,1.8v67.3
			c0,14.9,11.6,27,26.2,28l1.8,0.1h42c3.1,0,5.6,2.5,5.6,5.6c0,2.8-2,5-4.6,5.5l-1,0.1h-42c-20.9,0-38.1-16.4-39.2-37.1l-0.1-2.2
			v-67.3c0-20.9,16.4-38.1,37.1-39.2l2.2-0.1H296.8z M216.1-84.6c0-4.2,4.4-6.9,8.1-5l49.7,24.9c4.1,2.1,4.1,8,0,10l-49.7,24.9
			c-3.7,1.9-8.1-0.8-8.1-5V-84.6z M227.3-75.6V-44l31.6-15.8L227.3-75.6z"/>
	</g>
	<defs>
		<filter id="Adobe_OpacityMaskFilter" filterUnits="userSpaceOnUse" x="117.3" y="-185.2" width="269" height="269">
			<feColorMatrix  type="matrix" values="1 0 0 0 0  0 1 0 0 0  0 0 1 0 0  0 0 0 1 0"/>
		</filter>
	</defs>
	<mask maskUnits="userSpaceOnUse" x="117.3" y="-185.2" width="269" height="269" id="prefix__b">
		<g class="st2">
			<path id="prefix__a" class="st3" d="M304.6-37c28.2,0,51.1,22.9,51.1,51.1c0,28.2-22.9,51.1-51.1,51.1
				c-28.2,0-51.1-22.9-51.1-51.1C253.5-14.1,276.4-37,304.6-37L304.6-37z M304.6-25.8c-22,0-39.9,17.9-39.9,39.9
				c0,22,17.9,39.9,39.9,39.9s39.9-17.9,39.9-39.9C344.5-7.9,326.6-25.8,304.6-25.8L304.6-25.8z M308.3,29.4l0.2,0
				c0.4,0,0.7,0.2,1.1,0.5c0.4,0.3,0.5,0.7,0.5,1.2v6.2l0,0.2c0,0.4-0.2,0.7-0.5,1c-0.3,0.3-0.7,0.5-1.3,0.5h-6.9l-0.2,0
				c-0.4,0-0.7-0.2-1-0.5c-0.3-0.3-0.5-0.7-0.5-1.2v-6.2l0-0.2c0-0.4,0.2-0.7,0.5-1c0.3-0.3,0.7-0.5,1.2-0.5H308.3L308.3,29.4z
				 M305.4-10.8c3.9,0,7.1,0.6,9.6,1.9c2.5,1.2,4.3,2.8,5.5,4.7c1.1,1.9,1.7,3.9,1.7,6c0,2.3-0.5,4.4-1.6,6.1
				c-1.1,1.7-2.6,3.7-4.7,6c-1.5,1.6-2.7,3-3.5,4.1c-0.8,1.1-1.4,2.4-1.6,3.7c-0.2,1.2-0.3,2-0.4,2.4c-0.2,0.6-0.5,1.1-0.8,1.3
				c-0.3,0.3-0.7,0.4-1.2,0.4h-6.9l-0.2,0c-0.4,0-0.7-0.2-0.9-0.4c-0.3-0.3-0.4-0.6-0.4-1c0-1,0-1.7,0.1-2.2
				c0.2-2.2,0.9-4.1,2.1-5.8c1.2-1.7,2.8-3.6,4.8-5.6c1.6-1.6,2.8-2.9,3.5-3.9c0.8-1,1.2-2.1,1.3-3.2c0.2-1.9-0.4-3.4-1.9-4.6
				c-1.4-1.1-3.1-1.7-5.1-1.7c-4.5,0-7.3,2.3-8.2,6.8c-0.3,1.1-1,1.6-2,1.6h-6.1l-0.2,0c-0.4,0-0.7-0.2-1-0.5
				c-0.3-0.3-0.5-0.7-0.5-1.3c0.1-2.6,0.9-5,2.3-7.2c1.5-2.2,3.6-4.1,6.3-5.4C298.4-10.1,301.7-10.8,305.4-10.8L305.4-10.8z
				 M296.8-129.1c20.9,0,38.1,16.4,39.2,37.1l0.1,2.2v30.1c0,3.1-2.5,5.6-5.6,5.6c-2.8,0-5-2-5.5-4.6l-0.1-1v-30.1
				c0-14.9-11.6-27-26.2-28l-1.8-0.1H187.2c-14.9,0-27,11.6-28,26.2l-0.1,1.8v67.3c0,14.9,11.6,27,26.2,28l1.8,0.1h42
				c3.1,0,5.6,2.5,5.6,5.6c0,2.8-2,5-4.6,5.5l-1,0.1h-42c-20.9,0-38.1-16.4-39.2-37.1l-0.1-2.2v-67.3c0-20.9,16.4-38.1,37.1-39.2
				l2.2-0.1H296.8z M216.1-84.6c0-4.2,4.4-6.9,8.1-5l49.7,24.9c4.1,2.1,4.1,8,0,10l-49.7,24.9c-3.7,1.9-8.1-0.8-8.1-5V-84.6z
				 M227.3-75.6V-44l31.6-15.8L227.3-75.6z"/>
		</g>
	</mask>
	<g class="st4">
		<path class="st1" d="M117.3-185.2h269v269h-269V-185.2z"/>
	</g>
</g>
</svg>
