<svg xmlns="http://www.w3.org/2000/svg" width="33" height="33" viewBox="0 0 33 33">
    <g fill="none" fill-rule="evenodd">
        <path fill="#FFBD64" d="M14.529 25.847L14.461 27.154 15.412 27.203 23.741 19.704 22.665 18.508z" transform="translate(.5 .5)"/>
        <path fill="#0B1D81" fill-rule="nonzero" d="M23.084 17.04l.079.074 1.969 2.186c.222.247.226.613.025.863l-.075.079-9.03 8.131c-.105.095-.237.153-.376.168l-.105.003-1.892-.1c-.334-.017-.598-.278-.629-.601l-.002-.1.118-2.247c.007-.14.06-.275.147-.384l.072-.076 8.836-7.971c.246-.222.613-.227.863-.026zm-.466 1.461l-8.135 7.34-.068 1.306.95.05 8.33-7.5-1.077-1.196zm-8.213-5.382c2.049 0 4.01.602 5.68 1.713.306.204.389.618.185.924-.204.307-.618.39-.924.186-1.453-.966-3.157-1.49-4.941-1.49-4.619 0-8.42 3.506-8.885 8.002l-.024.265h5.156c.328 0 .6.236.656.547l.011.12c0 .327-.236.6-.547.656l-.12.01H4.805c-.368 0-.667-.298-.667-.666 0-5.67 4.597-10.267 10.267-10.267zm11.436 1.602l1.941 2.156c.246.273.224.694-.049.94l-1.42 1.277-2.83-3.144 1.419-1.278c.273-.246.693-.224.939.05zM15.338 3.456c2.098 0 3.8 1.702 3.8 3.8 0 2.099-1.702 3.8-3.8 3.8-2.099 0-3.8-1.701-3.8-3.8 0-2.098 1.701-3.8 3.8-3.8zm0 1.334c-1.362 0-2.467 1.104-2.467 2.466 0 1.363 1.105 2.467 2.467 2.467s2.466-1.104 2.466-2.467c0-1.362-1.104-2.466-2.466-2.466z" transform="translate(.5 .5)"/>
    </g>
</svg>
