<svg xmlns="http://www.w3.org/2000/svg" xmlns:xlink="http://www.w3.org/1999/xlink" width="32" height="30" viewBox="0 0 32 30">
    <defs>
        <path id="a" d="M18.645 14.905c.067.306-.151.605-.489.666-.337.062-.666-.137-.733-.444-.759-3.442-2.597-4.921-5.65-4.636-3.895.363-5.405 2.962-4.942 6.233.22 1.554 1.296 3.475 3.244 5.743a.533.533 0 0 1-.108.795.666.666 0 0 1-.875-.098C7.02 20.75 5.85 18.659 5.595 16.868c-.542-3.83 1.336-7.065 6.05-7.504 3.745-.35 6.124 1.564 7 5.54zm-6.533-8.346c6.49 0 9.423 3.814 9.423 7.815 0 2.16-.994 3.68-3.084 3.866-2.056.184-3.493-.867-4.047-2.725l-.175-.652c-.406-1.45-.784-1.754-2.108-1.754-1.66 0-2.731 1.384-1.942 4.438.443 1.712 1.954 3.178 4.59 4.393.307.141.43.482.275.761-.156.28-.531.39-.838.25-2.938-1.354-4.703-3.067-5.24-5.145-.966-3.736.655-5.83 3.155-5.83 2.091 0 2.813.732 3.374 2.822l.062.237c.372 1.48 1.307 2.208 2.773 2.078 1.321-.118 1.958-1.093 1.958-2.74 0-3.443-2.49-6.681-8.176-6.681-4.804 0-7.546 2.457-8.348 7.55-.048.31-.364.525-.705.48-.34-.044-.577-.33-.528-.64.885-5.623 4.12-8.523 9.581-8.523zm.63 8.556c.345 3.01 2.08 4.577 5.346 4.839.343.027.597.302.567.614-.03.311-.333.542-.676.514-3.864-.308-6.07-2.303-6.478-5.85-.035-.31.213-.59.555-.622.343-.032.65.194.685.505zm-.719-11.236c5.118 0 9.03 2.274 11.664 6.76.162.276.047.619-.256.766-.304.148-.682.043-.844-.233-2.423-4.127-5.92-6.16-10.564-6.16-4.639 0-8.067 2.028-10.362 6.15-.155.279-.53.39-.837.249-.307-.141-.43-.482-.275-.761 2.502-4.493 6.352-6.771 11.474-6.771zm0-3.018c3.7 0 7.43 1.422 11.183 4.241.265.2.302.557.083.798a.667.667 0 0 1-.877.076c-3.545-2.663-7.005-3.982-10.389-3.982-3.38 0-6.778 1.317-10.202 3.976a.667.667 0 0 1-.879-.063.532.532 0 0 1 .07-.799C4.646 2.285 8.321.861 12.022.861z"/>
    </defs>
    <g fill="none" fill-rule="evenodd" transform="translate(3.879 2.697)">
        <mask id="b" fill="#fff">
            <use xlink:href="#a"/>
        </mask>
        <use fill="#0B1D81" fill-rule="nonzero" xlink:href="#a"/>
        <g fill="#FFF" mask="url(#b)">
            <path d="M-2.424-1.102h29.09v26.446h-29.09z"/>
        </g>
    </g>
</svg>
