<svg xmlns="http://www.w3.org/2000/svg" width="173" height="310" viewBox="0 0 173 310">
    <path fill="#292F79" fill-opacity=".2" fill-rule="evenodd" d="M151.673 176.955c0 8.139.784-1.575 0 37.82-.875 43.959-18.614 57.652-18.614 57.652V-46.577s-1.861-42.213 7.622-66.728c0 0 7.395-19.669 24.545-28.971 0 0-13.34 21.188-13.612 54.26-.272 33.074.059 264.971.059 264.971zm-33.124 68.706c0 37.229-17.932 51.9-17.932 51.9V-14.705S99.83-37.23 107.96-53.51c6.5-13.013 9.18-16.956 9.18-16.956l1.409 278.45v37.677zM48.534 365.78s12.368-19.311 13.788-48.662c1.282-26.494 0-152.165 0-152.165V10.443s-.81-22.53 7.57-38.814c6.7-13.017 9.463-16.961 9.463-16.961L80.81 299.61s2.51 44.542-32.275 66.17zM9.04 401.684s12.377-19.228 13.796-48.455c1.283-26.38 0-151.517 0-151.517V90.573s-.811-23.811 7.576-40.027C37.113 37.585 39.88 33.66 39.88 33.66l1.36 282.395.094 19.743s1.927 42.046-32.294 65.888zM118.212-86.172c-.296.04-.594.072-.893.119C78.204-79.98 41.145-39.042 39.983 8.08 17.358 26.002.908 55.18.908 86.952v188.992l1.36 87.46c0 33.573-23.196 61.652-54.268 68.81A91.15 91.15 0 0 0-34.045 434c34.683 0 64.593-19.42 78.436-47.462 23.066-6.017 52.175-40.297 55.356-74.304h.01c41.976-10.284 73.195-46.21 73.195-90.293V-98.904c0-31.58 21.793-65.171 56.505-70.177l.398-.492c-67.604-10.435-105.798 38.286-111.643 83.401z"/>
</svg>
