<?xml version="1.0" encoding="utf-8"?>
<!-- Generator: Adobe Illustrator 16.0.0, SVG Export Plug-In . SVG Version: 6.00 Build 0)  -->
<!DOCTYPE svg PUBLIC "-//W3C//DTD SVG 1.1//EN" "http://www.w3.org/Graphics/SVG/1.1/DTD/svg11.dtd">
<svg version="1.1" id="Layer_1" xmlns="http://www.w3.org/2000/svg" xmlns:xlink="http://www.w3.org/1999/xlink" x="0px" y="0px"
	 width="197.834px" height="44.908px" viewBox="0 0 197.834 44.908" enable-background="new 0 0 197.834 44.908"
	 xml:space="preserve">
<g>
	<path fill="#FFFFFF" d="M99.749,8.968l-0.854,0.015c-0.002,0-0.004,0-0.005,0l0.005,8.102c0,0.575,0.287,0.862,0.861,0.862
		c0.554,0,0.833-0.288,0.833-0.862V9.823C100.589,9.27,100.31,8.982,99.749,8.968"/>
	<path fill="#FFFFFF" d="M94.096,17.953c1.71,0,2.565-0.848,2.565-2.542v-0.026v-0.183L96.65,9.828V9.776
		c0-0.51-0.26-0.775-0.778-0.788l-0.067,0.001c-0.006,0-0.01-0.001-0.016-0.001c-0.01,0-0.018,0.001-0.027,0.002L95.08,9.001
		c-0.002,0-0.117,0-0.118,0l0.01,6.384h0.007v0.047c0,0.553-0.301,0.826-0.898,0.826h-2.037l-0.011-6.43c0-0.002,0-0.004,0-0.006
		V9.776c0-0.51-0.259-0.775-0.778-0.788L91.2,8.989c-0.005,0-0.009-0.001-0.014-0.001c-0.007,0-0.015,0.001-0.022,0.001
		l-0.701,0.012c-0.002,0-0.116,0-0.117,0l0,0.834c0,0.002,0,0.005,0,0.007l0.016,6.416h-1.581c-0.28,0-0.424,0.28-0.431,0.841
		c0,0.567,0.136,0.854,0.41,0.854H94.096z"/>
	<path fill="#FFFFFF" d="M121.245,19.375v0.015c0,0.553,0.28,0.826,0.841,0.826l0.661,0.014c1.588,0,2.429-0.762,2.529-2.284
		l0.012-4.14h0.002v-1.22c0-0.51-0.26-0.776-0.778-0.789l-0.792,0.013c-0.002,0-0.116,0.001-0.118,0.001l0,0.818
		c-0.003,0.04-0.008,0.079-0.008,0.123v4.914c0,0.575-0.287,0.862-0.861,0.862l-0.647,0.007
		C121.525,18.535,121.245,18.815,121.245,19.375"/>
	<path fill="#FFFFFF" d="M151.764,17.946c0.873,0,1.153-0.288,1.153-0.855v-6.424v-0.84V9.761c0-0.511-0.259-0.775-0.778-0.789
		l-0.049,0.001c-0.006,0-0.008-0.001-0.013-0.001c-0.008,0-0.014,0.001-0.021,0.002l-0.71,0.012c-0.001,0-0.116,0-0.118,0
		l0.001,0.813c0,0.002-0.001,0.004-0.001,0.006v6.446l-3.296-0.007l0.015-4.558c0-0.51-0.261-0.775-0.784-0.788l-0.797,0.013
		c-0.002,0-0.117,0-0.118,0l-0.003,5.333h-2.22l0.011-4.558c0-0.51-0.262-0.775-0.784-0.788l-0.798,0.013c-0.001,0-0.116,0-0.118,0
		l-0.006,5.333h-2.004l0.009-4.558c0-0.51-0.262-0.775-0.784-0.788l-0.798,0.013c-0.001,0-0.116,0-0.118,0l0.002,5.333l-8.861,0.007
		h-0.15c-0.596,0-0.897-0.273-0.897-0.827l0.006-5.656c0-0.461-0.214-0.72-0.637-0.776c-0.079-0.008-0.113-0.01-0.188-0.011
		c-0.054,0-0.088,0-0.172,0.002l-0.573,0.009c-0.001,0-0.116,0-0.117,0v6.411c0,1.695,0.854,2.543,2.564,2.543h-0.127H151.764z"/>
	<path fill="#FFFFFF" d="M116.652,13.488c0-0.561,0.273-0.841,0.826-0.841h1.142c0.575,0,0.862,0.273,0.862,0.819l-0.017,2.785
		h-2.004c-0.553,0-0.826-0.288-0.826-0.87L116.652,13.488z M110.443,16.244h-2.011c-0.561,0-0.84-0.28-0.84-0.84l0.016-1.93
		c0-0.575,0.28-0.862,0.841-0.862h1.336l0.675-0.015L110.443,16.244z M120.321,17.946c0.561,0,0.84-0.28,0.84-0.841l0.017-3.646
		c0-1.703-0.855-2.55-2.558-2.55H117.5c-1.702,0-2.55,0.848-2.55,2.55l-0.017,1.944c0,0.316,0.029,0.596,0.086,0.848
		c0,0-2.824-0.007-2.881-0.007l0.017-4.473c0-0.568-0.287-0.855-0.855-0.855l-2.866-0.007c-1.681,0-2.521,0.848-2.521,2.543
		l-0.016,1.937c0,1.703,0.855,2.558,2.557,2.558H120.321z"/>
	<path fill="#FFFFFF" d="M155.786,17.946c0.553,0,0.833-0.288,0.833-0.862V9.827c0-0.554-0.28-0.841-0.841-0.855l-0.854,0.015
		c-0.004,0-0.007,0.001-0.012,0.001l0.012,8.097C154.924,17.659,155.211,17.946,155.786,17.946"/>
	<path fill="#FFFFFF" d="M171.754,16.251l-2.084-0.007c-0.502-0.029-0.754-0.316-0.754-0.862v-1.922c0-0.561,0.28-0.84,0.841-0.84
		h1.143c0.567,0,0.854,0.273,0.854,0.818V16.251z M173.456,17.947L173.456,17.947v-4.487c0-1.703-0.854-2.55-2.557-2.55h-1.128
		c-1.695,0-2.543,0.848-2.543,2.55v1.944c0,0.309,0.028,0.589,0.086,0.84h-2.725c-0.574,0-0.862-0.294-0.862-0.876L163.725,12
		c0-0.51-0.261-0.775-0.784-0.789c0,0-0.913,0.014-0.915,0.014v4.114c0,1.738,0.848,2.608,2.542,2.608L173.456,17.947z"/>
	<path fill="#FFFFFF" d="M44.158,20.409c0.142,0.079,0.293,0.119,0.459,0.119c0.158,0,0.309-0.04,0.451-0.119
		c0.15-0.087,0.27-0.198,0.349-0.341c0.079-0.15,0.119-0.309,0.119-0.467c0-0.159-0.04-0.309-0.119-0.459
		c-0.087-0.151-0.207-0.27-0.349-0.348c-0.151-0.08-0.301-0.119-0.451-0.119c-0.159,0-0.309,0.04-0.459,0.119
		c-0.143,0.079-0.261,0.197-0.348,0.348c-0.08,0.15-0.119,0.301-0.119,0.459c0,0.158,0.04,0.316,0.119,0.467
		C43.896,20.211,44.015,20.322,44.158,20.409"/>
	<path fill="#FFFFFF" d="M47.42,18.794c-0.15-0.08-0.301-0.119-0.451-0.119c-0.158,0-0.309,0.04-0.459,0.119
		c-0.15,0.079-0.269,0.197-0.348,0.348c-0.087,0.15-0.126,0.301-0.126,0.459c0,0.158,0.04,0.316,0.126,0.467
		c0.079,0.143,0.198,0.253,0.348,0.341c0.143,0.079,0.293,0.119,0.459,0.119c0.15,0,0.301-0.04,0.451-0.119
		c0.15-0.087,0.27-0.198,0.349-0.341c0.079-0.15,0.119-0.309,0.119-0.467c0-0.159-0.04-0.309-0.119-0.459
		C47.682,18.991,47.562,18.873,47.42,18.794"/>
	<path fill="#FFFFFF" d="M181.106,16.251v-3.654h5.132c0.566,0,0.848,0.295,0.848,0.876v2.777H181.106z M193.246,13.459
		c0-0.561,0.28-0.84,0.841-0.84h1.142c0.567,0,0.848,0.273,0.848,0.819v1.936c0,0.582-0.28,0.877-0.848,0.877h-1.982V13.459z
		 M194.823,17.959l-0.324-0.006h0.737c1.694,0,2.542-0.738,2.542-2.477v-2.017c0-1.695-0.848-2.543-2.55-2.543h-1.135
		c-1.695,0-2.543,0.848-2.543,2.55l-0.007,2.784h-2.756v-2.879c0-1.731-0.848-2.463-2.543-2.463h-4.471
		c-0.298,0-0.514,0.088-0.651,0.262V11.03c0-0.285-0.076-0.498-0.225-0.64c-0.016-0.016-0.035-0.028-0.054-0.043
		c-0.018-0.013-0.033-0.029-0.053-0.041c-0.119-0.077-0.274-0.117-0.462-0.125c-0.016-0.001-0.03-0.004-0.046-0.004h-0.015
		c-0.001,0-0.002,0-0.003,0c-0.003,0-0.004,0-0.007,0l-0.829,0.014c-0.002,0-0.003,0-0.005,0l-0.007,6.06
		c0,0-1.855-0.004-2.125-0.007V11.76v-0.019c0-0.552-0.278-0.839-0.839-0.853l-0.853,0.014c-0.001,0-0.003,0-0.005,0l0.001,6.764
		c0,0.582-0.287,0.87-0.861,0.87h-0.632c-0.567,0-0.855,0.28-0.855,0.84h0.015l-0.015,0.015c0,0.553,0.288,0.826,0.855,0.826
		l0.646,0.014c1.587,0,2.428-0.762,2.842-2.284L194.823,17.959z"/>
	<path fill="#FFFFFF" d="M60.638,15.374c0,0.582-0.28,0.877-0.848,0.877h-1.982v-2.809c0-0.561,0.28-0.84,0.841-0.84h1.142
		c0.567,0,0.848,0.272,0.848,0.818V15.374z M59.791,10.899h-1.135c-1.695,0-2.542,0.848-2.542,2.55l-0.008,2.78h-2.937v-2.751
		c0-1.738-0.848-2.607-2.543-2.607l-2.021,0.007c-0.567,0-0.847,0.28-0.847,0.84v4.512h-3.76c-0.597,0-0.891-0.273-0.891-0.826
		l0-2.39c0-0.511-0.259-0.776-0.776-0.789l-0.789,0.013c-0.002,0-0.115,0-0.117,0l0,3.143c0,0.003,0,0.006,0,0.009l0.001,0.099
		h0.003c0.036,1.623,0.897,2.465,2.57,2.465h4.486l0.123,0.002c0.568,0,0.836-0.333,0.836-0.908v-4.475h1.166
		c0.568,0,0.854,0.287,0.854,0.862v3.627c0,0.575,0.281,0.892,0.849,0.892h0.368h4.909h2.682c1.373-0.157,2.067-1.044,2.067-2.608
		v-1.903C62.341,11.747,61.494,10.899,59.791,10.899"/>
	<path fill="#FFFFFF" d="M86.114,10.897l-0.792,0.013c-0.001,0-0.116,0-0.117,0l0,4.471c0,0.582-0.288,0.87-0.862,0.87l-1.351-0.007
		l0.009-4.558c0-0.51-0.261-0.775-0.784-0.788l-0.797,0.013c-0.002,0-0.117,0-0.118,0l0.001,5.333h-2.004l0.004-4.558
		c0-0.51-0.261-0.775-0.784-0.788l-0.797,0.013c-0.001,0-0.116,0-0.118,0v5.333h-5.969c0.04-0.176,0.066-0.365,0.079-0.569h0.009
		V9.818V9.766c0-0.51-0.26-0.775-0.779-0.789l-0.066,0.001c-0.006,0-0.011-0.001-0.017-0.001c-0.009,0-0.017,0.001-0.026,0.001
		L70.152,8.99c-0.001,0-0.115,0-0.117,0l0,6.539c-0.036,0.485-0.332,0.729-0.891,0.729h0.103h-1.513v-6.44c0-0.002,0-0.004,0-0.006
		V9.766c0-0.51-0.259-0.775-0.779-0.789l-0.055,0.001c-0.005,0-0.009-0.001-0.014-0.001c-0.008,0-0.014,0.001-0.021,0.001
		L66.162,8.99c-0.001,0-0.115,0-0.117,0v7.268h-2.153c-0.28,0-0.424,0.28-0.431,0.84c0,0.567,0.137,0.855,0.41,0.855l19.136-0.007
		h1.343c1.695,0,2.543-0.87,2.543-2.601v-2.753v-0.142v-0.766C86.893,11.175,86.632,10.911,86.114,10.897"/>
	<path fill="#FFFFFF" d="M107.386,10.021c0.143,0.08,0.293,0.119,0.459,0.119c0.158,0,0.309-0.04,0.451-0.119
		c0.15-0.087,0.27-0.198,0.349-0.34c0.079-0.15,0.119-0.309,0.119-0.467c0-0.159-0.04-0.309-0.119-0.459
		c-0.087-0.151-0.206-0.27-0.349-0.349c-0.15-0.079-0.3-0.119-0.451-0.119c-0.158,0-0.308,0.04-0.459,0.119
		c-0.143,0.079-0.261,0.198-0.348,0.349c-0.079,0.15-0.119,0.301-0.119,0.459c0,0.158,0.04,0.316,0.119,0.467
		C107.125,9.824,107.243,9.935,107.386,10.021"/>
	<path fill="#FFFFFF" d="M110.648,8.406c-0.151-0.079-0.301-0.119-0.451-0.119c-0.159,0-0.309,0.04-0.459,0.119
		c-0.151,0.079-0.269,0.198-0.348,0.348c-0.087,0.151-0.127,0.301-0.127,0.459s0.04,0.317,0.127,0.467
		c0.079,0.143,0.197,0.253,0.348,0.34c0.143,0.08,0.293,0.119,0.459,0.119c0.15,0,0.3-0.04,0.451-0.119
		c0.15-0.087,0.27-0.198,0.348-0.34c0.079-0.15,0.119-0.309,0.119-0.467s-0.04-0.309-0.119-0.459
		C110.91,8.604,110.792,8.485,110.648,8.406"/>
	<path fill="#FFFFFF" d="M116.419,10.021c0.143,0.08,0.293,0.119,0.46,0.119c0.158,0,0.309-0.04,0.451-0.119
		c0.151-0.087,0.27-0.198,0.349-0.34c0.079-0.15,0.119-0.309,0.119-0.467c0-0.159-0.04-0.309-0.119-0.459
		c-0.087-0.151-0.206-0.27-0.349-0.349c-0.15-0.079-0.301-0.119-0.451-0.119c-0.159,0-0.309,0.04-0.46,0.119
		c-0.142,0.079-0.261,0.198-0.348,0.349c-0.08,0.15-0.119,0.301-0.119,0.459c0,0.158,0.04,0.316,0.119,0.467
		C116.159,9.824,116.277,9.935,116.419,10.021"/>
	<path fill="#FFFFFF" d="M119.682,8.406c-0.151-0.079-0.301-0.119-0.452-0.119c-0.158,0-0.309,0.04-0.459,0.119
		c-0.151,0.079-0.27,0.198-0.349,0.348c-0.086,0.151-0.125,0.301-0.125,0.459s0.04,0.317,0.125,0.467
		c0.08,0.143,0.198,0.253,0.349,0.34c0.143,0.08,0.293,0.119,0.459,0.119c0.15,0,0.301-0.04,0.452-0.119
		c0.15-0.087,0.269-0.198,0.349-0.34c0.079-0.15,0.119-0.309,0.119-0.467s-0.04-0.309-0.119-0.459
		C119.943,8.604,119.824,8.485,119.682,8.406"/>
	<path fill="#FFFFFF" d="M141.325,10.021c0.142,0.08,0.293,0.119,0.459,0.119c0.159,0,0.309-0.04,0.452-0.119
		c0.15-0.087,0.269-0.198,0.349-0.34c0.079-0.15,0.119-0.309,0.119-0.467c0-0.159-0.04-0.309-0.119-0.459
		c-0.088-0.151-0.206-0.27-0.349-0.349c-0.15-0.079-0.301-0.119-0.452-0.119c-0.158,0-0.308,0.04-0.459,0.119
		c-0.142,0.079-0.262,0.198-0.349,0.349c-0.079,0.15-0.119,0.301-0.119,0.459c0,0.158,0.04,0.316,0.119,0.467
		C141.063,9.824,141.183,9.935,141.325,10.021"/>
	<path fill="#FFFFFF" d="M144.587,8.406c-0.15-0.079-0.301-0.119-0.451-0.119c-0.158,0-0.309,0.04-0.459,0.119
		c-0.151,0.079-0.27,0.198-0.349,0.348c-0.087,0.151-0.127,0.301-0.127,0.459s0.04,0.317,0.127,0.467
		c0.079,0.143,0.198,0.253,0.349,0.34c0.143,0.08,0.293,0.119,0.459,0.119c0.15,0,0.301-0.04,0.451-0.119
		c0.151-0.087,0.27-0.198,0.349-0.34c0.08-0.15,0.119-0.309,0.119-0.467s-0.04-0.309-0.119-0.459
		C144.848,8.604,144.729,8.485,144.587,8.406"/>
	<path fill="#FFFFFF" d="M143.379,6.348c-0.151-0.079-0.301-0.119-0.452-0.119c-0.158,0-0.309,0.04-0.459,0.119
		c-0.15,0.079-0.269,0.198-0.348,0.349c-0.087,0.15-0.127,0.301-0.127,0.459c0,0.159,0.04,0.316,0.127,0.467
		c0.079,0.143,0.197,0.253,0.348,0.341c0.144,0.079,0.293,0.118,0.459,0.118c0.15,0,0.301-0.04,0.452-0.118
		c0.15-0.087,0.269-0.198,0.348-0.341c0.079-0.151,0.119-0.309,0.119-0.467c0-0.158-0.04-0.309-0.119-0.459
		C143.641,6.546,143.522,6.427,143.379,6.348"/>
	<path fill="#FFFFFF" d="M170.795,8.406c-0.151-0.079-0.302-0.119-0.452-0.119c-0.158,0-0.309,0.04-0.459,0.119
		s-0.27,0.198-0.349,0.348c-0.087,0.151-0.127,0.301-0.127,0.459s0.04,0.317,0.127,0.467c0.079,0.143,0.198,0.253,0.349,0.34
		c0.143,0.08,0.293,0.119,0.459,0.119c0.15,0,0.301-0.04,0.452-0.119c0.15-0.087,0.269-0.198,0.348-0.34
		c0.079-0.15,0.119-0.309,0.119-0.467s-0.04-0.309-0.119-0.459C171.056,8.604,170.937,8.485,170.795,8.406"/>
	<path fill="#FFFFFF" d="M91.843,19.604l-0.955-0.005c-0.059,0-0.059-0.007-0.059-0.049v-0.477c0-0.059,0.006-0.059,0.045-0.059
		h0.613c0.201-0.007,0.321-0.125,0.321-0.316c0-0.195-0.125-0.316-0.326-0.316h-0.604c-0.439,0-0.681,0.246-0.681,0.69v0.468
		c0,0.021,0,0.042,0.002,0.063h-0.028c-0.195,0-0.316,0.121-0.316,0.315c0,0.192,0.121,0.312,0.316,0.312h1.661
		c0.195,0,0.316-0.119,0.316-0.312C92.149,19.724,92.032,19.604,91.843,19.604"/>
	<path fill="#FFFFFF" d="M106.742,26.927l-0.919,0.014c-0.004,0-0.008,0-0.012,0l0.009,8.172c0,0.537,0.309,0.805,0.927,0.805
		c0.595,0,0.896-0.269,0.896-0.805v-7.307C107.643,27.289,107.344,26.94,106.742,26.927"/>
	<path fill="#FFFFFF" d="M147.835,26.927l-0.919,0.014c-0.004,0-0.007,0-0.012,0l0.013,8.172c0,0.537,0.309,0.805,0.927,0.805
		c0.595,0,0.896-0.269,0.896-0.805l0-7.372C148.74,27.224,148.438,26.94,147.835,26.927"/>
	<path fill="#FFFFFF" d="M46.252,31.024l-2.186-0.849c-0.526-0.198-0.69-0.464-0.69-0.872v-0.163c0-0.512,0.363-0.755,1.076-0.755
		h2.77c0.151,0,0.222-0.058,0.222-0.209v-0.941c0-0.105-0.07-0.163-0.21-0.209c-0.911-0.163-1.472-0.232-2.442-0.232
		c-2.068,0-3.272,0.5-3.272,2.22v0.255c0,1.349,0.421,2.011,1.39,2.371l2.279,0.848c0.608,0.233,0.841,0.465,0.841,0.965v0.152
		c0,0.511-0.362,0.72-1.063,0.72h-3.319c-0.152,0-0.222,0.07-0.222,0.209v0.883c0,0.151,0.047,0.221,0.199,0.255
		c1.099,0.174,2.022,0.244,2.886,0.244c2.022,0,3.366-0.511,3.366-2.231v-0.326C47.876,32.012,47.374,31.465,46.252,31.024"/>
	<path fill="#FFFFFF" d="M61.583,31.803l0.853-3.08c0.07-0.279,0.094-0.337,0.292-0.337c0.233,0,0.245,0.059,0.327,0.337l0.842,3.08
		H61.583z M64.715,28.248c-0.351-1.267-0.572-1.395-1.986-1.395c-1.356,0-1.589,0.127-1.94,1.395l-2.091,7.484
		c-0.024,0.14,0.023,0.187,0.152,0.187h1.484c0.117,0,0.129-0.047,0.164-0.187l0.678-2.417h3.132l0.666,2.417
		c0.035,0.14,0.046,0.187,0.152,0.187h1.496c0.117,0,0.175-0.047,0.151-0.187L64.715,28.248z"/>
	<path fill="#FFFFFF" d="M71.608,31.257h-1.262v-2.812h1.262c1.391,0,1.753,0.279,1.753,1.441
		C73.362,31.071,72.999,31.257,71.608,31.257 M73.432,32.547c1.32-0.256,1.788-0.953,1.788-2.708c0-2.324-0.865-2.986-3.425-2.986
		h-3.284v0.291v0.71v7.877c0,0.151,0.035,0.187,0.176,0.187h1.484c0.14,0,0.175-0.035,0.175-0.187v-3.068h1.075l1.917,2.999
		c0.117,0.174,0.199,0.256,0.467,0.256h1.473c0.175,0,0.234-0.105,0.14-0.233L73.432,32.547z"/>
	<path fill="#FFFFFF" d="M86.089,31.803l0.854-3.08c0.07-0.279,0.093-0.337,0.292-0.337c0.233,0,0.245,0.059,0.328,0.337l0.841,3.08
		H86.089z M89.221,28.248c-0.351-1.267-0.572-1.395-1.987-1.395c-1.355,0-1.589,0.127-1.939,1.395l-2.092,7.484
		c-0.023,0.14,0.024,0.187,0.152,0.187h1.484c0.117,0,0.128-0.047,0.164-0.187l0.677-2.417h3.132l0.666,2.417
		c0.035,0.14,0.047,0.187,0.152,0.187h1.497c0.116,0,0.175-0.047,0.152-0.187L89.221,28.248z"/>
	<path fill="#FFFFFF" d="M114.296,31.025l-2.186-0.848c-0.526-0.198-0.689-0.465-0.689-0.872v-0.163
		c0-0.511,0.362-0.756,1.075-0.756h2.771c0.151,0,0.221-0.058,0.221-0.208v-0.941c0-0.104-0.07-0.163-0.209-0.209
		c-0.912-0.163-1.473-0.233-2.443-0.233c-2.068,0-3.272,0.5-3.272,2.22v0.255c0,1.348,0.421,2.01,1.391,2.371l2.278,0.849
		c0.608,0.232,0.841,0.465,0.841,0.965v0.151c0,0.511-0.362,0.72-1.063,0.72h-3.319c-0.152,0-0.223,0.07-0.223,0.209v0.883
		c0,0.151,0.047,0.22,0.199,0.255c1.1,0.175,2.022,0.245,2.887,0.245c2.021,0,3.366-0.512,3.366-2.231v-0.326
		C115.921,32.013,115.418,31.467,114.296,31.025"/>
	<path fill="#FFFFFF" d="M123.271,34.325h-3.833v-5.657l0.005-0.943c0-0.516-0.301-0.785-0.904-0.798l-0.919,0.014
		c-0.004,0-0.007,0.001-0.012,0.001l-0.002,1.727h-0.002v7.063c0,0.128,0.058,0.187,0.175,0.187h5.493
		c0.117,0,0.175-0.059,0.175-0.175V34.5C123.446,34.383,123.388,34.325,123.271,34.325"/>
	<path fill="#FFFFFF" d="M127.72,31.803l0.853-3.08c0.071-0.279,0.094-0.337,0.292-0.337c0.234,0,0.246,0.059,0.327,0.337
		l0.841,3.08H127.72z M130.852,28.248c-0.351-1.267-0.573-1.395-1.987-1.395c-1.355,0-1.589,0.127-1.94,1.395l-2.092,7.484
		c-0.023,0.14,0.023,0.187,0.152,0.187h1.484c0.116,0,0.129-0.047,0.164-0.187l0.678-2.417h3.132l0.666,2.417
		c0.035,0.14,0.047,0.187,0.152,0.187h1.496c0.117,0,0.175-0.047,0.151-0.187L130.852,28.248z"/>
	<path fill="#FFFFFF" d="M143.81,26.907h-1.414c-0.374,0-0.526,0.093-0.667,0.464l-2.173,5.942l-2.174-5.942
		c-0.152-0.36-0.292-0.454-0.667-0.454h-1.414c-0.117,0-0.141,0.071-0.151,0.187l-0.842,8.624c-0.011,0.127,0.059,0.186,0.175,0.186
		h1.484c0.117,0,0.164-0.058,0.176-0.186l0.514-5.579l2.092,5.594c0.059,0.116,0.141,0.175,0.246,0.175h1.11
		c0.117,0,0.198-0.059,0.245-0.175l2.104-5.594l0.514,5.579c0.012,0.127,0.059,0.186,0.176,0.186h1.484
		c0.116,0,0.187-0.058,0.175-0.186l-0.842-8.635C143.951,26.989,143.928,26.907,143.81,26.907"/>
	<path fill="#FFFFFF" d="M156.338,26.969c-0.572-0.104-1.273-0.175-2.302-0.175c-2.98,0-3.438,1.035-3.438,4.556
		s0.458,4.567,3.438,4.567c1.028,0,1.729-0.059,2.302-0.175c0.176-0.047,0.269-0.116,0.269-0.302V34.5
		c0-0.117-0.058-0.175-0.175-0.175h-2.396c-1.612,0-1.58-0.708-1.58-2.975c0-2.267-0.032-2.964,1.58-2.964h2.396
		c0.117,0,0.175-0.058,0.175-0.174v-0.929C156.606,27.085,156.514,27.016,156.338,26.969"/>
	<path fill="#FFFFFF" d="M165.705,34.325h-1.753v-2.312h1.765c0.935,0,1.414,0.244,1.414,1.196
		C167.131,34.093,166.71,34.325,165.705,34.325 M163.952,28.386h1.414c1.099,0,1.565,0.245,1.565,1.186
		c0,0.977-0.479,1.127-1.787,1.127h-1.192V28.386z M167.47,31.362v-0.035c0.958-0.174,1.32-0.778,1.32-2.033
		c0-1.871-0.97-2.499-3.236-2.499c-0.959,0-2.232,0.035-3.261,0.128c-0.141,0.011-0.175,0.034-0.175,0.163v8.553
		c0,0.117,0.034,0.151,0.175,0.163c1.028,0.082,2.582,0.117,3.541,0.117c2.186,0,3.155-0.569,3.155-2.464
		C168.989,32.21,168.639,31.501,167.47,31.362"/>
	<path fill="#FFFFFF" d="M173.45,31.803l0.854-3.08c0.069-0.279,0.093-0.337,0.291-0.337c0.234,0,0.246,0.059,0.328,0.337
		l0.841,3.08H173.45z M176.582,28.248c-0.351-1.267-0.573-1.395-1.987-1.395c-1.354,0-1.589,0.127-1.939,1.395l-2.093,7.484
		c-0.022,0.14,0.024,0.187,0.153,0.187h1.483c0.117,0,0.129-0.047,0.164-0.187l0.678-2.417h3.132l0.666,2.417
		c0.035,0.14,0.047,0.187,0.152,0.187h1.495c0.117,0,0.176-0.047,0.152-0.187L176.582,28.248z"/>
	<path fill="#FFFFFF" d="M188.031,26.923h-1.484c-0.117,0-0.175,0.058-0.175,0.185v5.463l-3.624-5.265
		c-0.198-0.279-0.257-0.383-0.724-0.383h-1.157c-0.116,0-0.176,0.058-0.176,0.185v8.624c0,0.128,0.06,0.187,0.176,0.187h1.484
		c0.116,0,0.175-0.059,0.175-0.187v-5.694l3.834,5.59c0.163,0.221,0.303,0.291,0.583,0.291h1.088c0.116,0,0.175-0.059,0.175-0.187
		v-8.624C188.206,26.981,188.147,26.923,188.031,26.923"/>
	<path fill="#FFFFFF" d="M197.729,35.604l-3.354-4.544l3.039-3.917c0.094-0.128,0.105-0.221-0.105-0.221h-1.647
		c-0.105,0-0.187,0.046-0.246,0.116l-2.933,3.754v-2.275V27.72c0-0.517-0.301-0.785-0.903-0.798l-0.919,0.013
		c-0.004,0-0.008,0-0.013,0l0.003,1.582h-0.003v5.716h0.011l0.001,0.865c0,0.537,0.31,0.805,0.928,0.805
		c0.595,0,0.896-0.268,0.896-0.805v-0.865v-2.755l3.155,4.311c0.046,0.082,0.14,0.128,0.257,0.128h1.637
		C197.845,35.918,197.834,35.755,197.729,35.604"/>
	<path fill="#FFFFFF" d="M56.396,26.927l-0.919,0.014c-0.005,0-0.008,0-0.012,0v3.005H55.46v0.674h-3.868v-0.674l0.004-2.221
		c0-0.516-0.301-0.785-0.903-0.798l-0.919,0.014c-0.004,0-0.008,0-0.012,0v3.005h-0.004v4.38h0.011l0.001,0.787
		c0,0.537,0.31,0.805,0.927,0.805c0.595,0,0.896-0.269,0.896-0.805v-0.787v-2.09h3.868v2.09h0.011l0.001,0.787
		c0,0.537,0.309,0.805,0.926,0.805c0.595,0,0.896-0.269,0.896-0.805v-0.787v-4.38l0.004-2.221
		C57.299,27.209,56.998,26.94,56.396,26.927"/>
	<path fill="#FFFFFF" d="M80.832,26.927l-0.919,0.014c-0.004,0-0.007,0-0.012,0v2.462h-0.003v2.169
		c0.004,0.779-0.038,1.361-0.165,1.789c-0.066,0.216-0.164,0.386-0.279,0.52c-0.003,0.005-0.009,0.01-0.013,0.015
		c-0.06,0.068-0.125,0.126-0.191,0.176c-0.351,0.247-0.834,0.287-1.034,0.292h-0.987c-0.117,0-0.175,0.059-0.175,0.174v0.953
		c0,0.186,0.093,0.255,0.269,0.29c0.218,0.044,0.429,0.079,0.65,0.105c0.675,0.072,2.262,0.11,3.095-0.968
		c0.492-0.689,0.671-1.754,0.666-3.346v-0.7l0.004-3.147C81.736,27.209,81.435,26.94,80.832,26.927"/>
	<path fill="#FFFFFF" d="M99.654,26.928l-0.919,0.013c-0.004,0-0.008,0.001-0.012,0.001l0.001,3.004h-0.004v0.674h-3.869v-0.674
		v-2.14c0-0.517-0.299-0.865-0.901-0.878l-0.919,0.013l-0.001,0l-0.003,7.565l0.001,0.606c0,0.537,0.309,0.805,0.927,0.805
		c0.594,0,0.896-0.269,0.896-0.805v-0.787v-2.09h2.075h1.793h0.011v2.34l0,0.537c0,0.537,0.309,0.805,0.927,0.805
		c0.595,0,0.896-0.269,0.896-0.805v-0.787v-4.38v-2.14C100.555,27.289,100.256,26.941,99.654,26.928"/>
	<path fill="#FFFFFF" d="M17.796,5.485c0,0-1.514,1.222-1.898,2.43c-0.38,1.21-0.498,1.613,0.192,3.469
		c0.692,1.865,3.303,9.283,3.303,9.283s0.806,1.745-0.664,2.865c0,0-0.967,0.688-0.718,0.63c0.243-0.056,3.207-0.736,2.245-3.426
		c-0.442-1.241-3.68-10.314-3.68-10.314S15.627,8.136,17.922,5.9L17.796,5.485z"/>
	<path fill="#FFFFFF" d="M20.849,22.413c0,0,1.246-1.071,0.826-2.495c-0.419-1.436-3.617-10.51-3.617-10.51
		s-0.998-2.097-0.085-3.753c0,0-1.165,0.925-1.004,2.411c0.154,1.487,1.007,3.376,1.444,4.61c0.426,1.228,2.529,7.381,2.529,7.381
		s0.325,1.203,0.133,1.718C20.874,22.287,20.689,22.601,20.849,22.413"/>
	<path fill="#FFFFFF" d="M16.025,10.592c0,0-0.725,1.001,0,2.992c0.721,1.989,2.512,7.142,2.512,7.142s0.887,1.983-0.142,3.154
		l-0.308,0.175c0,0,0.588-0.849,0.175-2.076c-0.411-1.236-2.738-7.394-2.738-7.394s-0.729-1.895-0.265-3.206L16.025,10.592z"/>
	<path fill="#FFFFFF" d="M19.592,24.654l0.021-0.265c0,0-0.107-0.152-0.203-0.075c-0.095,0.075-0.31,0.344-0.222,0.622
		c0.063,0.201,0.257,0.171,0.257,0.171l-0.092,0.126l0.003,0.201c0,0,0.082-0.04,0.249-0.246c0.167-0.206,0.424-0.392,0.424-0.392
		l0.033-0.269c0,0-0.273,0.259-0.383,0.322c-0.108,0.066-0.343,0.066-0.377-0.006c-0.037-0.078,0.091-0.249,0.167-0.232
		C19.537,24.623,19.592,24.654,19.592,24.654"/>
</g>
<polygon fill="#FFFFFF" points="23.062,24.139 22.93,24.993 23.757,25.095 23.881,24.251 "/>
<polygon fill="#FFFFFF" points="22.122,24.875 21.987,25.729 22.82,25.831 22.94,24.984 "/>
<polygon fill="#FFFFFF" points="21.188,25.574 21.052,26.435 21.885,26.532 22.005,25.679 "/>
<g>
	<path fill="#FFFFFF" d="M23.706,39.977c0,0-1.36-1.034-1.216-5.96l0.388,0.045c0,0-0.442,3.64,0.76,5.492L23.706,39.977z"/>
	<path fill="#FFFFFF" d="M24.499,25.234c0,0,0.037-0.317-1.289-3.767c-0.3-0.774-5.592-15.887-5.592-15.887
		s-0.713-1.644,1.044-3.747c0.29-0.353,1.491-1.594,1.987-1.82l0.068,0.504c0,0-2.757,1.794-2.389,4.15
		c0.23,1.46,0.598,2.267,0.598,2.267l5.476,15.641c0,0,0.729,1.764,0.449,3.211c-0.121,0.934-1.004,1.046-1.004,1.046
		s0.184,1.027-0.901,1.122c0,0-0.139,0.932-0.982,0.818c0,0-0.029,0.932-1.136,1.109c-1.111,0.17-1.671-1.033-2.105-2.117
		c-0.434-1.088-4.44-11.939-4.44-11.939s-1.536-3.275,1.594-5.604l0.071,0.554c0,0-1.378,1.366-1.386,2.361
		c-0.019,0.995,0.16,1.688,0.454,2.494c0.292,0.8,4.478,12.111,4.478,12.111s0.442,1.335,1.448,0.995
		c1.012-0.334,0.739-1.605,0.767-1.725c0.024-0.127,0.15-0.045,0.184,0.105c0.034,0.153,0.062,0.586,0.062,0.586
		s0.74,0.031,0.749-0.804c0.001-0.834,0.062-0.771,0.13-0.648c0.072,0.124,0.113,0.622,0.113,0.622s0.75,0.083,0.661-0.808
		c-0.077-0.746,0.045-0.678,0.07-0.659c0.029,0.018,0.116,0.325,0.116,0.325S24.3,25.819,24.499,25.234"/>
	<path fill="#FFFFFF" d="M22.995,22.462c0.044-0.667-0.272-1.555-0.382-1.562c-0.116,0-0.028,0.365-0.028,0.365
		c0.071,0.449-0.031,0.706-0.193,0.996c-0.164,0.289-0.223,0.087-0.223,0.087s-0.04-0.736-0.213-0.541
		c-0.172,0.193,0.051,0.831,0.051,0.968c0,0.146,0.02,0.586-0.382,0.783c-0.396,0.2-0.552-0.405-0.581-0.524
		c-0.023-0.12-0.023-0.27-0.179-0.291c-0.148-0.018-0.348,0.743-0.339,1.253c0.018,0.518-0.082,1.468-0.667,2.18
		c-0.59,0.705-1.866,1.013-2.743-0.458c-0.876-1.469-1.758-4.089-1.812-4.265c-0.052-0.177-0.091-0.165-0.155-0.12
		c-0.069,0.043-0.043,0.491-0.043,0.749c0.003,0.247,0.003,0.605,0.003,0.605s1.255,3.072,1.402,3.602
		c0.146,0.529-0.011,1.02-0.011,1.02c-0.498,1.436-1.72,1.142-1.72,1.142c0.25-0.474,0.472-1.482,0.417-2.42
		c-0.053-0.925-0.901-2.436-0.975-2.619c-0.071-0.176-0.105-0.422-0.199-0.46c-0.098-0.038-0.127,0.119-0.173,0.44
		c-0.042,0.321-0.334,1.032-0.496,2.771c-0.158,1.737,0.471,2.498,0.471,2.498c-0.317,0.514-0.863,0.998-1.202,1.298
		c-0.34,0.308-0.127,0.251-0.127,0.251c1.235-0.397,1.716-1.036,1.716-1.036c0.589,0.478,1.527,0.57,2.155-0.361
		c0.627-0.932,0.376-2.659,0.376-2.659s0.936,2.062,2.472,1.606c1.971-0.44,1.703-3.198,1.708-3.475
		c0.011-0.272,0.082-0.296,0.082-0.296c0.085,0.259,0.323,0.756,0.841,0.635c0.513-0.124,0.513-1.082,0.513-1.082
		C22.721,23.369,22.946,23.136,22.995,22.462 M14.208,28.056c-0.433-0.575-0.438-1.153-0.438-1.153
		c-0.02-1.782,0.263-2.43,0.263-2.43s0.879,1.207,0.879,1.705C14.954,26.908,14.208,28.056,14.208,28.056"/>
	<path fill="#FFFFFF" d="M4.478,34.546c0,0,0.003-0.113,0.1-0.113c0.093,0.006,0.098,0.119,0.117,0.267
		c0.014,0.145,0.272,2.178,1.858,2.965c0,0,0.682,0.34,1.011-0.108c0.334-0.447,0.343-1.082,0.377-1.327
		c0.03-0.241,0.07-1.323,0.67-2.073c0.602-0.737,1.021-0.497,1.036-0.434c0.011,0.062,0.279,1.02,1.153,1.303
		c0.885,0.272,2.901,0.277,4.093-2.216c0.068-0.153,0.18-0.359,0-0.455c-0.179-0.094-0.325-0.094-0.325-0.094
		s0.088,0.29-0.095,0.479c-0.18,0.183-0.821,0.546-1.193-0.068c0,0-0.151-0.334-0.136-0.909c0.024-0.566,0.41-1.057,0.788-1.006
		c0.375,0.043,1.25,0.31,1.346,1.612c0.09,1.308-0.938,2.888-2.207,3.514c-1.271,0.629-2.708,0.371-3.378-0.575
		c0,0-0.213-0.428-0.25-0.561c0,0-0.022-0.131-0.238,0.056c-0.218,0.191-0.72,0.494-0.867,1.507
		c-0.152,1.02-0.124,2.322-1.259,2.223c-1.141-0.102-2.111-1.776-2.421-2.948C4.659,35.586,4.447,34.974,4.478,34.546"/>
	<path fill="#FFFFFF" d="M12.147,37.218c0,0-0.015-0.062,0.113-0.094c0.13-0.039,2.381-0.535,3.571-2.923
		c0.459-0.914,0.729-2.52,0.806-3.556c0.082-1.054,0.276-1.858,0.841-2.018c0,0,0.139-0.042,0.245,0.386
		c0.101,0.428,0.288,0.881,0.233,0.933c-0.054,0.051-0.164-0.115-0.28-0.232c-0.124-0.123-0.494,0.536-0.551,0.905
		c-0.07,0.433-0.031,3.136-0.718,4.453C15.721,36.393,14.158,37.124,12.147,37.218"/>
	<path fill="#FFFFFF" d="M18.833,33.904c0,0,0.046,0.467-0.365,0.668c-0.413,0.207-0.85-0.026-0.903-0.352
		c-0.051-0.343-0.277-1.249,0.113-1.575c0.392-0.328,1.125-0.41,1.587,0.357c0.415,0.699,0.065,2.254-0.261,2.783
		c-0.328,0.53-1.815,2.873-5.816,3.275c-0.948,0.096-3.366-0.51-3.014-2.847c0.133-0.866,0.473-1.731,0.882-2.317
		c0,0,0.154-0.062,0.104,0.072c-0.05,0.129-0.979,1.919-0.283,2.934c0.696,1.014,2.163,1.642,4.938,0.427
		c2.779-1.23,3.41-3.068,3.368-3.201C19.134,34,18.833,33.904,18.833,33.904"/>
	<path fill="#FFFFFF" d="M11.179,28.319c0.469-0.402,1.187-1.05,1.369-1.751c0.183-0.706,0.113-1.272-0.167-1.358
		c-0.287-0.088-0.967,0.511-1.153,0.712c-0.186,0.2,0.016,1.25,0.016,1.25s-0.329,0.248-0.514,0.418
		c-0.191,0.175-0.869,0.678-1.104,1.348c-0.239,0.668-0.034,1.183,0.205,1.41c0.243,0.232,0.914-0.043,1.213-0.114
		c0.301-0.076,0.409,0.088,0.409,0.088s-1.042,1.456-3.469,1.94c-1.598,0.32-4.598,0.947-7.983-1.02c0,0,1.745,3.092,7.646,2.079
		c2.649-0.453,3.825-1.959,3.979-2.305c0.175-0.397,0.389-1.167,0.139-1.555c-0.252-0.397-0.778-0.323-1.185-0.184
		c-0.408,0.138-0.487,0.025-0.487,0.025C10.039,29.1,10.706,28.729,11.179,28.319"/>
</g>
<polygon fill="#FFFFFF" points="10.517,32.493 11.534,33.069 11.128,33.904 10.086,33.369 "/>
<polygon fill="#FFFFFF" points="11.987,32.168 13.002,32.74 12.598,33.578 11.555,33.042 "/>
<polygon fill="#FFFFFF" points="18.133,30.587 19.144,31.159 18.738,32.004 17.699,31.462 "/>
<g>
	<path fill="#FFFFFF" d="M21.354,36.064c0,0,0.029-0.385,0.185-0.346c0.161,0.031-0.093,0.722,0.022,1.819
		c0.12,1.089,0.138,4.055,4.043,5.856c0,0,0.986,0.599,4.113,1.318c0,0,0.222,0.011,0.062,0.119c-0.157,0.112-2.9,0.201-4.883-0.484
		c-1.969-0.686-3.593-2.683-3.702-5.261C21.177,38.772,21.103,37.948,21.354,36.064"/>
	<path fill="#FFFFFF" d="M32.373,32.581c-1.233-2.676-3.623-4.727-5.264-6.131c-0.011,0.648,0.194,1.152,1.178,2.071
		c1.01,0.849,3.076,3.236,3.674,4.573c0.067,0.227,0.128,0.83,0.054,1.006c-0.078-0.083-0.09-1.442-1.946-0.994
		c1.174,0.298,1.866,1.539,2.106,2.306C32.45,34.665,32.489,33.198,32.373,32.581"/>
	<path fill="#FFFFFF" d="M24.668,35.466c-0.526,0.504-1.03,1.159-1.436,2.394c-0.487,1.417,0.669,2.393,0.686,2.26
		c0.17-3.936,3.871-5.718,5.677-5.022c0.458,0.18,1.402,0.52,0.663,1.523c0,0,1.259,0.704,1.851-0.771
		C32.338,35.509,28.595,32.323,24.668,35.466"/>
	<path fill="#FFFFFF" d="M20.649,0l0.091,0.523c0,0-1.17,0.882-0.981,2.669c0,0,0.021,0.706,0.395,1.827
		c0.379,1.127,5.803,16.725,5.803,16.725s0.938,2.544,0.402,4.325c-0.343,1.142-0.507,1.898-1.991,3.375
		c-1.49,1.482-4.321,1.833-4.321,1.833s-1.052,0.19-0.462-0.037c0.58-0.232,5.911-2.367,6.522-6.121
		c0.036-0.221-0.128-0.908-0.201-1.153c-0.073-0.252-6.749-19.245-6.749-19.245S18.081,1.915,20.649,0"/>
	<path fill="#FFFFFF" d="M23.513,32.25c0.715-0.808,1.182-0.746,1.201-0.746l0.046,0.014l0.004,0.037v0.058
		c-0.004,0.454-0.552,1.425-1.469,2.028c-0.096,0.062-0.184,0.113-0.271,0.149c0,0-0.049,0.025-0.125,0.056l0.023-0.124
		C23.035,33.085,23.241,32.564,23.513,32.25 M26.934,30.182c-0.152-0.062-0.219-0.186-0.216-0.314
		c0.003-0.119-0.064-0.068-0.064-0.068c-0.216,0.176-0.243,0.47-0.243,0.542c0,0.277,0.05,0.402,0.05,0.402
		s-0.256,0.266-0.451,0.508c-0.178,0.222-0.871,1.343-1.174,1.729c0.149-0.441,0.233-0.946,0.243-1.487
		c0.003-0.226-0.009-0.467-0.029-0.706l-0.005-0.056c-0.011-0.108-0.045-0.184-0.105-0.235c-0.088-0.074-0.206-0.064-0.206-0.064
		c-1.237,0.14-2.016,1.18-2.2,2.949l-0.01,0.057c-0.009,0.076-0.023,0.206-0.035,0.376l-0.008,0.113
		c-0.041,0-0.078-0.011-0.11-0.017c-0.275-0.09-0.354-0.277-0.395-0.374l-0.011-0.017c-0.063-0.119-0.16-0.72-0.156-0.964
		c0-0.025,0-0.051,0.003-0.065c0-0.011,0.006-0.024,0.006-0.031c-0.017,0-0.037,0.014-0.054,0.026l-0.003,0.005h-0.003
		c-1.034,0.488-1.289,1.21-1.341,1.419c-0.057,0.227-0.074,0.598-0.081,0.932l-0.021,0.402c-0.083,1.034-0.405,1.863-0.963,2.48
		c-0.986,1.102-3.109,1.739-3.833,1.935c0.337,0.005,2.768,0.025,4.002-0.875c1.077-0.781,1.053-2.481,1.042-3.389v-0.429
		c0.028-0.768,0.92-1.221,0.959-1.245l0.074-0.037l0.008,0.087c0,0,0.057,0.843,0.587,1.126c0.044,0.027,0.077,0.038,0.146,0.058
		c0.03,0.006,0.119,0.017,0.119,0.017c0.197,0.014,0.364-0.011,0.453-0.026c1.224-0.268,2.027-1.01,2.656-2.033
		c0.647-1.046,0.893-1.133,1.302-1.234c0.397-0.105,0.648,0.164,0.771,0.127c0.126-0.051,0.227-0.901,0.23-1.091
		C27.874,30.531,27.206,30.283,26.934,30.182"/>
</g>
</svg>
