<svg xmlns="http://www.w3.org/2000/svg" viewBox="0 0 47.3 65.48"><defs><style>.cls-1,.cls-2{fill:#fff;}.cls-2{fill-rule:evenodd;}</style></defs><title>Asset 2</title><g id="Layer_2" data-name="Layer 2"><g id="Layer_1-2" data-name="Layer 1"><path class="cls-1" d="M34.56,58.29s-2-1.5-1.77-8.69l.56.06s-.63,5.32,1.11,8Z"/><path class="cls-2" d="M35.72,36.79s.06-.46-1.87-5.48c-.44-1.14-8.16-23.18-8.16-23.18s-1-2.39,1.52-5.46A15.47,15.47,0,0,1,30.12,0l.1.73s-4,2.63-3.5,6.06a14.15,14.15,0,0,0,.87,3.29l8,22.82a9.68,9.68,0,0,1,.66,4.68,1.74,1.74,0,0,1-1.46,1.52,1.36,1.36,0,0,1-1.32,1.63S33.25,42.12,32,42a1.78,1.78,0,0,1-1.66,1.61c-1.62.26-2.44-1.5-3.06-3.08s-6.48-17.41-6.48-17.41a6.7,6.7,0,0,1,2.32-8.16l.1.79s-2,2-2,3.46a9.32,9.32,0,0,0,.66,3.63l6.53,17.66s.65,1.94,2.12,1.45,1.08-2.34,1.11-2.53.23-.06.28.17.09.85.09.85a1,1,0,0,0,1.08-1.17c0-1.21.09-1.12.19-.94a3.18,3.18,0,0,1,.17.9s1.1.12,1-1.17c-.13-1.1.06-1,.1-1a4.72,4.72,0,0,1,.17.48A.93.93,0,0,0,35.72,36.79Z"/><path class="cls-2" d="M26,8a9.88,9.88,0,0,0-2.77,3.56c-.55,1.75-.73,2.34.29,5.05s4.8,13.53,4.8,13.53a3.5,3.5,0,0,1-1,4.19s-1.41,1-1,.91,4.68-1.08,3.28-5c-.64-1.81-5.37-15-5.37-15s-1.38-3.34,2-6.59Z"/><path class="cls-2" d="M30.4,32.68A3.78,3.78,0,0,0,31.61,29C31,27,26.33,13.71,26.33,13.71s-1.44-3-.12-5.46a4.22,4.22,0,0,0-1.47,3.51c.23,2.17,1.47,4.92,2.1,6.71s3.7,10.78,3.7,10.78a5.88,5.88,0,0,1,.18,2.5C30.44,32.5,30.17,33,30.4,32.68Z"/><path class="cls-2" d="M23.38,15.44s-1.06,1.47,0,4.37S27,30.22,27,30.22s1.29,2.89-.21,4.59l-.44.27a3.59,3.59,0,0,0,.25-3c-.6-1.79-4-10.78-4-10.78s-1.06-2.76-.38-4.67Z"/><path class="cls-2" d="M20.72,40.91a3,3,0,0,1-.64-1.68,9.79,9.79,0,0,1,.37-3.55,7.68,7.68,0,0,1,1.29,2.48A6.23,6.23,0,0,1,20.72,40.91Zm12.8-8.15A3.66,3.66,0,0,0,33,30.48c-.16,0,0,.53,0,.53a2,2,0,0,1-.29,1.44c-.22.42-.32.15-.32.15s-.06-1.08-.31-.81.08,1.22.08,1.42a1.15,1.15,0,0,1-.55,1.14c-.59.28-.82-.58-.85-.76s0-.4-.26-.43-.52,1.09-.5,1.83a5,5,0,0,1-1,3.17c-.87,1-2.73,1.49-4-.66a37.83,37.83,0,0,1-2.63-6.22c-.09-.25-.13-.24-.23-.17s-.07.72-.06,1.08v.88s1.83,4.49,2,5.26a3,3,0,0,1,0,1.5,2.16,2.16,0,0,1-2.5,1.65A7.78,7.78,0,0,0,22.16,38a12.81,12.81,0,0,0-1.43-3.81c-.1-.27-.15-.62-.29-.68s-.18.18-.24.64a22.93,22.93,0,0,0-.73,4,5.17,5.17,0,0,0,.69,3.66,10.38,10.38,0,0,1-1.76,1.88c-.49.44-.19.36-.19.36a5.36,5.36,0,0,0,2.52-1.51A2,2,0,0,0,23.87,42c.9-1.36.54-3.86.54-3.86s1.37,3,3.61,2.33c2.86-.63,2.48-4.66,2.5-5.06s.11-.44.11-.44c.12.38.47,1.1,1.22.92s.75-1.57.75-1.57C33.14,34.07,33.46,33.73,33.52,32.76Z"/><path class="cls-2" d="M6.53,50.37s0-.16.15-.16.14.17.17.38.39,3.18,2.69,4.32c0,0,1,.51,1.49-.14a4,4,0,0,0,.55-1.94,5.8,5.8,0,0,1,1-3c.87-1.07,1.48-.72,1.51-.63a2.77,2.77,0,0,0,1.7,1.9c1.28.39,4.21.4,5.95-3.23.1-.22.25-.53,0-.67a1.18,1.18,0,0,0-.48-.13.74.74,0,0,1-.14.69c-.26.27-1.2.8-1.73-.09a3.35,3.35,0,0,1-.2-1.32c0-.83.6-1.54,1.15-1.49a2.29,2.29,0,0,1,2,2.37,5.94,5.94,0,0,1-3.22,5.12,3.91,3.91,0,0,1-4.93-.84s-.3-.62-.36-.81c0,0,0-.2-.35.08A3,3,0,0,0,12.15,53c-.21,1.47-.17,3.38-1.82,3.23s-3.08-2.58-3.54-4.3A4.33,4.33,0,0,1,6.53,50.37Z"/><path class="cls-2" d="M17.71,54.26s0-.09.17-.14a8.09,8.09,0,0,0,5.21-4.25,16.76,16.76,0,0,0,1.17-5.19c.12-1.53.4-2.72,1.23-2.94,0,0,.2-.06.36.57s.42,1.28.33,1.34-.23-.16-.42-.33-.71.79-.79,1.32,0,4.57-1,6.49S20.64,54.13,17.71,54.26Z"/><path class="cls-2" d="M27.46,49.43a1,1,0,0,1-.53,1,.89.89,0,0,1-1.32-.52c-.08-.48-.4-1.81.17-2.29a1.5,1.5,0,0,1,2.31.52c.61,1,.09,3.29-.39,4.06S25.06,56.37,19.23,57c-1.39.13-4.91-.75-4.4-4.16a8.57,8.57,0,0,1,1.29-3.37s.23-.1.15.1-1.43,2.79-.41,4.28,3.15,2.4,7.2.62S28,50,28,49.76,27.46,49.43,27.46,49.43Z"/><path class="cls-1" d="M16.3,41.3a6.08,6.08,0,0,0,2-2.56c.27-1,.16-1.86-.25-2s-1.41.75-1.68,1,0,1.83,0,1.83-.48.36-.75.61a5.33,5.33,0,0,0-1.61,2,1.94,1.94,0,0,0,.3,2.06c.35.34,1.33,0,1.77-.17s.59.14.59.14A8.39,8.39,0,0,1,11.63,47,15.44,15.44,0,0,1,0,45.56s2.54,4.51,11.15,3c3.85-.66,5.58-2.85,5.8-3.36a3,3,0,0,0,.2-2.27c-.36-.58-1.13-.47-1.73-.26s-.7,0-.7,0C14.64,42.44,15.62,41.89,16.3,41.3Z"/><path class="cls-1" d="M28.57,36l0-.39s-.18-.21-.31-.11a.93.93,0,0,0-.32.91.36.36,0,0,0,.37.26l-.13.17v.3s.12-.05.36-.36a3.1,3.1,0,0,1,.63-.57l0-.4s-.4.37-.55.47-.51.1-.56,0,.14-.35.24-.34A.6.6,0,0,1,28.57,36Z"/><polygon class="cls-1" points="33.63 35.19 33.43 36.44 34.64 36.59 34.82 35.35 33.63 35.19"/><polygon class="cls-1" points="32.26 36.27 32.06 37.52 33.27 37.66 33.45 36.43 32.26 36.27"/><polygon class="cls-1" points="30.9 37.28 30.7 38.54 31.91 38.68 32.09 37.45 30.9 37.28"/><polygon class="cls-1" points="8.49 49.76 9.96 50.59 9.38 51.83 7.85 51.04 8.49 49.76"/><polygon class="cls-1" points="9.38 51.83 10.86 52.67 10.26 53.89 8.75 53.12 9.38 51.83"/><polygon class="cls-1" points="15.33 47.38 16.81 48.21 16.23 49.43 14.71 48.65 15.33 47.38"/><polygon class="cls-1" points="17.48 46.91 18.95 47.73 18.36 48.96 16.85 48.18 17.48 46.91"/><polygon class="cls-1" points="26.45 44.6 27.92 45.44 27.33 46.66 25.81 45.88 26.45 44.6"/><path class="cls-1" d="M31.13,52.58s.05-.55.29-.5-.15,1.05,0,2.65.2,5.92,5.89,8.55c0,0,1.44.86,6,1.91,0,0,.33,0,.1.18a17.64,17.64,0,0,1-7.12-.72A8.38,8.38,0,0,1,30.9,57,21.22,21.22,0,0,1,31.13,52.58Z"/><path class="cls-1" d="M47.21,47.51c-1.8-3.9-5.29-6.9-7.68-8.95,0,.95.28,1.69,1.72,3a26.81,26.81,0,0,1,5.36,6.65,3.91,3.91,0,0,1,.08,1.47c-.12-.12-.13-2.1-2.84-1.45,1.71.43,2.72,2.24,3.07,3.36A10.5,10.5,0,0,0,47.21,47.51Z"/><path class="cls-1" d="M36,51.72a7.75,7.75,0,0,0-2.09,3.48,2.75,2.75,0,0,0,1,3.3c.26-5.74,5.66-8.34,8.29-7.33.67.27,2,.77,1,2.23a1.84,1.84,0,0,0,2.7-1.13C47.16,51.77,41.7,47.13,36,51.72Z"/><path class="cls-2" d="M30.12,0l.12.75a4.38,4.38,0,0,0-1.42,3.91,9.93,9.93,0,0,0,.57,2.67c.55,1.64,8.46,24.38,8.46,24.38s1.36,3.71.58,6.3a9.08,9.08,0,0,1-2.9,4.93c-2.16,2.15-6.3,2.67-6.3,2.67s-1.53.27-.68-.06,8.64-3.45,9.52-8.92a7,7,0,0,0-.29-1.69c-.11-.36-9.85-28-9.85-28A6.06,6.06,0,0,1,30.12,0Z"/><path class="cls-2" d="M39.27,44a.5.5,0,0,1-.32-.45c0-.19-.08-.11-.08-.11a1.1,1.1,0,0,0-.36.79,1.88,1.88,0,0,0,.07.59s-.36.38-.66.74-1.27,2-1.7,2.51a7.2,7.2,0,0,0,.35-2.17c0-.32,0-.66,0-1l0-.09a.37.37,0,0,0-.15-.33.42.42,0,0,0-.3-.09c-1.8.19-2.94,1.72-3.21,4.29v.09c0,.11,0,.3-.07.54v.17h0l-.16,0A.91.91,0,0,1,32,48.9v0a5.93,5.93,0,0,1-.23-1.41v-.09a.11.11,0,0,0,0-.05l-.08,0h0a3.35,3.35,0,0,0-2,2.07,7.18,7.18,0,0,0-.12,1.35l0,.59A6,6,0,0,1,28.21,55c-1.43,1.6-4.53,2.53-5.58,2.8.49,0,4,0,5.83-1.26C30,55.41,30,52.93,30,51.61V51c0-1.12,1.34-1.79,1.41-1.82l.11-.05v.12s.08,1.24.84,1.65a1.94,1.94,0,0,0,.22.07l.17,0a2.41,2.41,0,0,0,.67,0,5.92,5.92,0,0,0,3.87-3c.95-1.52,1.3-1.65,1.9-1.81s1,.25,1.13.19.32-1.32.32-1.59S39.67,44.16,39.27,44Zm-5,3c1-1.18,1.72-1.09,1.75-1.09h.06V46a.28.28,0,0,1,0,.09,4.71,4.71,0,0,1-2.15,3,3.84,3.84,0,0,1-.39.22l-.19.08,0-.19A4.39,4.39,0,0,1,34.29,47Z"/></g></g></svg>