<svg xmlns="http://www.w3.org/2000/svg" width="38" height="38" viewBox="0 0 38 38">
    <path fill="#091A87" fill-rule="evenodd" d="M21.13 26.208c.095.018-.062.451.01 1.141.073.694.085 2.564 2.463 3.7 0 0 .601.375 2.507.827 0 0 .14.009.038.078-.096.066-1.765.126-2.974-.31-1.205-.43-2.194-1.688-2.261-3.314-.009-.2-.052-.718.098-1.908 0 0 .02-.24.119-.214zm3.114-3.736s.037-.034.037.047c0 .074.038.155.129.193.172.067.578.22.575.339-.004.118-.065.658-.14.688-.071.025-.23-.149-.473-.08-.25.065-.395.123-.792.783-.383.64-.873 1.111-1.618 1.277l-.06.008c-.023.554-.013 1.419.19 2.157l-.001-.001.014-.105a1.39 1.39 0 0 1 .023-.109l.033-.112c.245-.777.549-1.196.873-1.51 2.395-1.981 4.675.023 4.537.241-.365.929-1.13.49-1.13.49.45-.635-.126-.85-.402-.963-1.102-.44-3.36.684-3.466 3.168-.004.038-.15-.068-.281-.279-.213-.325-.573-1.144-.591-2.966h-.015s-.052-.006-.072-.015a.398.398 0 0 1-.093-.034c-.32-.177-.353-.703-.353-.714l-.004-.052-.048.027c-.026.011-.57.299-.59.788V26c.014.573.027 1.64-.63 2.14-.753.568-2.234.554-2.439.55.44-.119 1.739-.523 2.331-1.212.343-.396.541-.922.59-1.572l.014-.256a3.06 3.06 0 0 1 .052-.586c.032-.129.188-.588.817-.891.012-.014.024-.019.033-.02 0 .001 0 .006-.005.02v.038c0 .151.058.53.1.606l.005.011a.358.358 0 0 0 .24.236c.022.005.043.015.063.016l.004-.076c.01-.103.024-.19.027-.237v-.035c.115-1.116.59-1.775 1.345-1.862 0 0 .074-.003.124.042.04.03.061.079.061.145l.008.038c.011.152.016.302.016.437-.005.35-.056.665-.147.944.182-.242.61-.948.71-1.087.126-.157.283-.32.283-.32s-.03-.084-.03-.258c0-.043.013-.226.146-.34zm-7.75.6c.227.03.756.198.816 1.025.055.817-.568 1.817-1.342 2.213-.51.26-1.062.278-1.498.09.006.198.05.39.158.552.421.643 1.316 1.039 3.01.266 1.694-.772 2.077-1.929 2.048-2.012-.025-.087-.209-.146-.209-.146v.039c-.002.084-.029.285-.22.383-.258.129-.52-.014-.552-.226-.033-.207-.17-.779.07-.987.23-.208.684-.26.963.226.253.436.04 1.42-.16 1.757-.193.332-1.107 1.81-3.54 2.062-.58.059-2.054-.32-1.836-1.797.012-.08.027-.16.044-.24a1.262 1.262 0 0 1-.337-.332s-.13-.269-.154-.348c0 0-.014-.085-.145.032-.132.122-.443.31-.53.949-.09.638-.07 1.469-.761 1.403-.695-.065-1.288-1.122-1.482-1.863 0 0-.127-.38-.108-.655 0 0 .003-.067.062-.067.057 0 .06.072.069.166.006.089.168 1.371 1.13 1.867 0 0 .42.222.62-.062.203-.281.21-.68.228-.837.023-.157.044-.84.411-1.311.368-.465.623-.314.633-.271.005.033.133.517.536.744.091-.24.201-.458.32-.634l.008-.003.02-.005-.62-.329.261-.547.618.359-.235.517c.015.003.025.016.013.051-.015.033-.12.246-.209.53l-.036.125.03.01c.536.173 1.762.176 2.49-1.4.04-.09.106-.218 0-.285-.11-.057-.2-.057-.2-.057s.053.182-.06.302c-.109.116-.498.347-.723-.041 0 0-.092-.214-.087-.57.018-.36.258-.67.486-.642zm2.308-1.095c.062.27.175.554.14.585-.03.03-.1-.071-.175-.146-.072-.075-.297.342-.33.57-.037.277-.02 1.981-.437 2.808-.421.836-1.372 1.297-2.598 1.357 0 0-.01-.04.072-.063.077-.022 1.45-.336 2.177-1.84.275-.575.44-1.585.489-2.245.049-.66.167-1.173.516-1.268 0 0 .08-.028.146.242zM11.918 26.1l.62.36-.25.53-.63-.337.26-.553zm-.366-.894l.612.357-.245.532-.637-.339.27-.55zM24.52 20.36c1.001.886 2.457 2.184 3.212 3.869.064.392.043 1.316-.125 1.78-.147-.484-.568-1.265-1.281-1.45 1.13-.282 1.137.573 1.188.626.041-.11 0-.492-.037-.637-.365-.838-1.616-2.342-2.24-2.873-.6-.59-.724-.904-.717-1.315zm-1.458 3.19c-.011 0-.3-.037-.735.472-.164.191-.284.523-.358.929l-.014.075a1.336 1.336 0 0 0 .24-.126c.56-.385.895-.996.898-1.282 0-.01 0-.027-.003-.034v-.03zm-7.756.418l.616.359-.247.53-.634-.341.265-.548zm.17-4.39l.067.004c.17.046.214.408.104.852-.112.442-.548.85-.836 1.108-.281.253-.691.495-.66.614 0 0 .051.073.297-.012.246-.088.571-.138.72.113.151.253.02.733-.08.983-.096.217-.817 1.168-2.426 1.453-3.6.643-4.66-1.31-4.66-1.31 2.061 1.24 3.888.846 4.859.642 1.486-.305 2.114-1.218 2.114-1.218s-.06-.107-.245-.061c-.183.05-.595.219-.742.074-.143-.144-.27-.47-.12-.892.143-.419.552-.74.672-.849.114-.11.311-.262.311-.262s-.124-.667-.01-.79c.084-.096.357-.346.556-.426l.08-.023zm3.578 3.393l.614.36-.245.529-.638-.338.269-.551zm1.53-19.291l.055.328s-.711.553-.595 1.685c0 0 .007.445.237 1.153.234.713 3.535 10.547 3.535 10.547s.574 1.605.246 2.726c-.202.722-.307 1.198-1.208 2.132-.909.932-2.637 1.157-2.637 1.157s-.641.114-.283-.026c.356-.148 3.61-1.493 3.975-3.857.024-.143-.077-.575-.123-.732-.042-.155-4.11-12.134-4.11-12.134s-.301-.812-.008-1.713c-.33.449-.597 1.03-.501 1.678.131.86.336 1.36.363 1.423l.003.006 3.338 9.866s.444 1.11.277 2.023c-.076.59-.613.66-.613.66s.11.647-.553.703c0 0-.086.594-.594.52 0 0-.017.588-.697.7-.662.106-1.004-.625-1.263-1.295-.768-.012-1.224-1.047-1.224-1.047s.15 1.081-.227 1.668c-.39.594-.963.532-1.314.227 0 0-.298.405-1.05.657 0 0-.13.036.074-.156.212-.193.545-.502.737-.818 0 0-.384-.481-.287-1.578.099-1.096.275-1.546.306-1.752.023-.195.04-.295.1-.277.034.018.057.08.078.15l.042.146c.046.11.567 1.061.596 1.652.036.582-.1 1.22-.253 1.522 0 0 .74.188 1.049-.718 0 0 .093-.315.006-.642-.089-.336-.85-2.278-.85-2.278v-.1l-.004-.283c-.004-.156-.015-.438.026-.467.036-.03.055-.034.093.073.034.112.567 1.762 1.106 2.692.222.384.483.575.74.636-.684-1.882-2.464-6.876-2.464-6.876s-.906-1.998.886-3.464c-.17-.648-.086-.933.093-1.523.171-.552.703-1.113.982-1.38l.076-.071-.008-.024s-.437-1.034.636-2.364c.156-.193.738-.82 1.083-1.067l.096-.062.032-.026zM18.84 7.503c-.345.992.163 2.11.163 2.11s1.949 5.722 2.21 6.628c.254.9-.509 1.574-.509 1.574-.095.119.017-.08.14-.4.105-.3-.055-.971-.08-1.073l-.007-.025c-.08-.243-1.285-3.892-1.537-4.646-.264-.78-.783-1.964-.883-2.904a1.688 1.688 0 0 1 .094-.75c-.75 1.184-.329 2.239-.329 2.239l.017.048c.192.556 1.974 5.712 2.224 6.452.526 1.524-.883 2.026-1.278 2.139l.578 1.615c.18-.063.34-.18.457-.323.361-.45.42-1.048.406-1.373-.004-.322.116-.8.21-.788.095.01.095.109.11.18.016.076.113.452.35.333.248-.125.236-.404.236-.492 0-.09-.14-.49-.034-.619.11-.116.127.35.127.35s.042.122.138-.063a.886.886 0 0 0 .119-.622s-.054-.237.017-.232c.071.005.263.56.233.986-.03.422-.162.57-.388.682 0 0 0 .602-.314.68-.31.079-.461-.232-.508-.402 0 0-.045.02-.045.19-.009.166.133 1.759-.888 2.143l.011.032s.272.845.882.63c.616-.21.451-1.013.47-1.094.016-.078.092-.025.11.07.02.097.037.372.037.372s.453.019.455-.509c0-.522.036-.484.08-.403.048.069.068.387.068.387s.462.053.404-.506c-.05-.475.031-.429.046-.419.012.014.071.205.071.205s.312.059.426-.312c0-.037-.034-.35-.783-2.373-.164-.439-2.754-8.087-3.306-9.717zM16.55 19.11l-.008.02c-.033.095-.162.535-.15 1.517 0 0 .002.365.268.725 0 0 .454-.725.428-1.185-.001-.311-.539-1.077-.539-1.077zm5.504-.21l.499.07-.078.535-.496-.064-.072.528-.498-.063-.073.505-.506-.063.083-.542.492.072.075-.51.494.07.08-.537zm-2.109.151l.008.01-.012.17s-.034-.025-.079-.031c-.043-.007-.127.1-.098.143.019.051.164.049.227.011.058-.038.182-.157.222-.195l.012-.012-.017.172s-.164.113-.262.247a.535.535 0 0 1-.148.151l-.004.002-.004-.126.06-.078s-.12.017-.154-.11c-.054-.174.075-.347.13-.39.044-.039.099.014.12.036zm-2.701-7.99c-.191.28-.368.615-.373.902-.005.627.103 1.067.28 1.574.109.313 1.126 3.157 1.887 5.283l.006-.006c.072-.129.299-.614.088-1.274-.256-.775-1.673-4.666-1.673-4.666s-.375-1.008-.215-1.813zm.445-.544c-.103.258-.236.837.078 1.732a585.224 585.224 0 0 1 1.53 4.502s.48 1.112.002 1.859l.116-.086c.894-.71.398-1.81.398-1.81s-1.58-4.68-2.006-5.854a11.367 11.367 0 0 1-.118-.343z"/>
</svg>
