<svg xmlns="http://www.w3.org/2000/svg" width="22" height="24" viewBox="0 0 22 24">
    <g fill="none" fill-rule="evenodd">
        <path fill="#E7E9F6" fill-rule="nonzero" d="M3.185 11.012l9.254-9.254 7.602 7.602-9.254 9.254z"/>
        <path fill="#0B1D81" fill-rule="nonzero" d="M21.222 23.628H3.745a.56.56 0 1 1 0-1.12h17.477a.56.56 0 1 1 0 1.12zM1.778 23.628h-1a.56.56 0 1 1 0-1.12h1a.56.56 0 1 1 0 1.12z"/>
        <path fill="#FFC966" fill-rule="nonzero" d="M3.324 14.36L14.233 3.453l.657.657L3.981 15.018z"/>
        <path fill="#0E207C" fill-rule="nonzero" d="M21.252 8.94L12.848.537a.56.56 0 0 0-.792 0L.53 12.062a.56.56 0 0 0 0 .792l8.4 8.405a.56.56 0 0 0 .792 0l11.53-11.527a.56.56 0 0 0 0-.791zm-6.389-4.805L4.13 14.87l-.657-.657L14.206 3.478l.657.657zm-2.411-2.411l.96.96L2.68 13.421l-.96-.96L12.452 1.724zm-3.12 18.347l-4.412-4.41L15.655 4.928l4.41 4.41L9.332 20.07z"/>
        <path fill="#0E207C" fill-rule="nonzero" d="M12.716 11.189a.56.56 0 0 0-.792 0l-4.577 4.577a.56.56 0 0 0 .792.792l4.577-4.577a.56.56 0 0 0 0-.792zM10.173 15.42l-1.626 1.626a.56.56 0 0 0 .792.792l1.626-1.627a.56.56 0 0 0-.792-.792zM11.674 13.92l-.336.336a.56.56 0 1 0 .792.792l.336-.336a.56.56 0 1 0-.792-.792z"/>
        <path fill="#FFC966" fill-rule="nonzero" d="M15.767 9.304l.84-.84.512.514-.84.84z"/>
        <path fill="#0E207C" fill-rule="nonzero" d="M16.606 8.465l.513.513-.839.839-.513-.513.84-.84h-.001zm0-1.12a1.12 1.12 0 0 0-.792.328l-.84.839a1.12 1.12 0 0 0 0 1.584l.513.513a1.12 1.12 0 0 0 1.584 0l.84-.84a1.12 1.12 0 0 0 0-1.583l-.511-.513a1.12 1.12 0 0 0-.792-.328h-.002z"/>
        <path d="M-1 0h24v24H-1z"/>
    </g>
</svg>
