<svg xmlns="http://www.w3.org/2000/svg" width="100" height="63" viewBox="0 0 100 63">
    <g fill="none" fill-rule="evenodd" transform="translate(0 .833)">
        <g fill="#FFF">
            <path d="M59.512.438L59.651 8.616 59.595 8.616 57.227.438 53.406.438 53.406 10.748 55.938 10.748 55.797 2.289 55.853 2.289 58.395 10.748 62.062 10.748 62.062.438zM11.034.438L9.126 10.856 11.91 10.856 13.318 1.403 13.374 1.402 14.748 10.856 17.515 10.856 15.617.438zM26.595.438L25.324 8.403 25.267 8.403 23.997.438 19.797.438 19.571 10.856 22.148 10.856 22.212 1.489 22.27 1.489 23.989 10.856 26.603 10.856 28.324 1.491 28.381 1.489 28.445 10.856 31.021 10.856 30.794.438zM4.785 7.815c.1.253.067.576.018.77-.086.347-.32.7-1.007.698-.643-.001-1.032-.38-1.03-.948v-1.01L.004 7.316 0 8.12c-.007 2.326 1.8 3.033 3.735 3.04 1.862.006 3.396-.633 3.648-2.37.127-.899.037-1.49-.007-1.71-.428-2.182-4.333-2.845-4.62-4.067-.048-.211-.036-.43-.009-.546.073-.334.3-.699.943-.697.604.002.955.38.953.947l-.002.645 2.57.009.003-.734C7.221.366 5.207.005 3.75 0 1.919-.006.42.604.142 2.302c-.076.463-.087.88.019 1.404.44 2.131 4.097 2.76 4.624 4.11M38.265 7.904c.098.25.067.568.017.763-.084.342-.316.692-.995.69-.639-.002-1.023-.375-1.021-.94V7.42l-2.734-.009-.004.795c-.007 2.302 1.782 3.001 3.697 3.008 1.845.006 3.365-.625 3.611-2.348.127-.889.039-1.471-.004-1.691-.425-2.16-4.291-2.817-4.575-4.026-.049-.21-.036-.426-.01-.541.073-.332.296-.692.932-.69.6.002.947.374.945.938l-.001.638 2.544.008.002-.726C40.676.53 38.682.173 37.24.168c-1.812-.006-3.297.594-3.571 2.277-.076.46-.087.872.019 1.39.434 2.111 4.056 2.732 4.577 4.07M46.906 9.331c.716.003.939-.496.99-.751.022-.112.025-.264.025-.397l.024-7.709 2.607.009-.023 7.47c.002.193-.019.584-.03.686-.185 1.945-1.705 2.57-3.6 2.563-1.893-.006-3.41-.64-3.584-2.587-.009-.101-.027-.493-.022-.685l.023-7.47 2.605.007-.024 7.709c-.003.133.002.285.024.397.048.256.269.756.985.758M68.386 9.293c.746.002 1.007-.473 1.054-.752.022-.118.027-.264.027-.396l.004-1.513-1.055-.003.005-1.52 3.647.013-.01 2.794c-.002.196-.006.338-.038.684-.177 1.897-1.806 2.57-3.63 2.565-1.826-.006-3.449-.69-3.615-2.588-.028-.347-.033-.49-.032-.685l.014-4.383c0-.187.023-.513.046-.687C65.038.876 66.599.253 68.425.259c1.827.006 3.423.632 3.607 2.587.032.331.02.687.021.687v.345l-2.598-.008.001-.584c.002 0-.001-.246-.03-.396-.046-.23-.24-.757-1.027-.76-.75-.002-.972.496-1.028.753-.031.137-.044.323-.044.492l-.015 4.765c-.002.13.004.276.022.395.048.278.305.757 1.052.759" transform="translate(14.474 10.553)"/>
            <g>
                <path d="M3.16 2.961v6.323h2.415c.465 0 .89-.082 1.278-.247.387-.164.72-.391.999-.682.279-.29.495-.626.65-1.01.155-.384.233-.795.233-1.234 0-.438-.078-.85-.232-1.234-.156-.384-.372-.717-.651-.999-.279-.282-.612-.505-1-.67-.386-.164-.812-.247-1.277-.247H3.16zM0 0h5.808c.882 0 1.695.161 2.439.482.743.321 1.386.756 1.928 1.304.542.549.968 1.195 1.278 1.94.31.744.464 1.539.464 2.385 0 .846-.155 1.645-.464 2.397-.31.752-.736 1.403-1.278 1.95-.542.55-1.189.984-1.94 1.305-.751.322-1.568.482-2.45.482H3.158v4.912H0V0zM19.746 14.525c.572 0 1.11-.11 1.614-.33.503-.218.933-.524 1.29-.915.356-.392.638-.847.847-1.364.21-.517.314-1.073.314-1.668 0-.58-.104-1.129-.314-1.646-.209-.517-.491-.967-.847-1.351-.357-.384-.787-.686-1.29-.905-.503-.22-1.042-.329-1.614-.329-.589 0-1.13.11-1.626.329-.496.22-.93.517-1.301.893-.372.376-.662.823-.872 1.34-.209.517-.313 1.073-.313 1.669 0 .595.104 1.155.313 1.68.21.525.5.98.872 1.363.372.384.805.686 1.3.905.496.22 1.038.329 1.627.329m-.511 2.915c-.821 0-1.63-.161-2.428-.482-.798-.321-1.514-.788-2.149-1.399-.635-.61-1.146-1.359-1.533-2.244-.387-.885-.58-1.892-.58-3.02 0-1.144.189-2.16.569-3.044.379-.885.882-1.634 1.51-2.244.627-.612 1.343-1.078 2.148-1.4.805-.32 1.642-.481 2.51-.481.897 0 1.726.173 2.485.517.758.345 1.386.815 1.881 1.41V3.408h3.137v13.75h-3.137V15.37c-.495.643-1.13 1.148-1.904 1.516-.775.368-1.611.553-2.51.553M33.382 16.476L27.806 3.408 31.152 3.408 34.938 12.669 38.516 3.408 41.814 3.408 33.707 23.503 30.524 23.503z" transform="translate(14.474 10.553) translate(15.524 17.972)"/>
            </g>
        </g>
        <rect width="98.68" height="60.68" x=".66" y=".66" stroke="#FFF" stroke-width="1.32" rx="9.24"/>
    </g>
</svg>
