<svg xmlns="http://www.w3.org/2000/svg" viewBox="0 0 342 70" width="342" height="70">
	<style>
		tspan { white-space:pre }
		.shp0 { fill: #0d227f } 
	</style>
	<path id="Layer" class="shp0" d="M334.93 -5.27L7.07 -5.27C2.41 -5.27 -1.39 -2.24 -1.41 1.5L-1.47 14.25L-1.56 32.15L-1.63 45.42C-1.63 45.42 13.28 41.62 38 43.25C62.73 44.87 105.09 52.19 120.22 55.17C135.35 58.15 202.68 68.72 236.24 69C269.81 69.27 312.97 69.16 343.08 53.55L343.19 32.15L343.28 14.25L343.34 1.5C343.36 -2.24 339.59 -5.27 334.93 -5.27Z" />
	<path id="Layer" class="shp0" d="M34.38 -329.5L-290.38 -329.5C-295 -329.5 -298.75 -326.71 -298.75 -323.26L-298.75 -311.5L-298.75 -294.99L-298.75 -282.75C-298.75 -282.75 -284 -286.25 -259.5 -284.75C-235 -283.25 -193 -276.5 -178 -273.75C-163 -271 -96.25 -261.25 -63 -261C-29.75 -260.75 13 -260.85 42.75 -275.25L42.75 -294.99L42.75 -311.5L42.75 -323.26C42.75 -326.71 39 -329.5 34.38 -329.5Z" />
</svg>