<svg xmlns="http://www.w3.org/2000/svg" width="49" height="49" viewBox="0 0 49 49">
    <path fill="#0B1D81" fill-rule="nonzero" d="M4.434 22.315c0-1.96 1.247-2.689 2.414-2.719h1.85l4.551-5.205h14.388l7.867 5.205c3.575.028 6.13.884 7.599 2.55 1.472 1.67 1.258 3.525 1.248 3.602l.005 2.924c-.073 1.799-1.588 2.274-2.474 2.274h-3.215a4.606 4.606 0 0 1-4.5 3.663 4.6 4.6 0 0 1-4.499-3.663H18.011a4.601 4.601 0 0 1-4.498 3.663 4.605 4.605 0 0 1-4.502-3.663H4.434v-8.63zm29.732 4.276a3.42 3.42 0 0 0-3.423 3.421v.046l.003.024.008.069.038.443a3.431 3.431 0 0 0 3.375 2.844 3.43 3.43 0 0 0 3.371-2.82l.04-.467c.006-.046.012-.09.012-.137a3.428 3.428 0 0 0-3.424-3.423zm-20.655 0a3.423 3.423 0 0 0-3.426 3.421v.028l.003.035.009.06c.008.064.016.128.02.19l.014.25a3.432 3.432 0 0 0 3.382 2.863 3.43 3.43 0 0 0 3.37-2.82l.038-.467c.007-.046.014-.09.014-.137a3.426 3.426 0 0 0-3.424-3.423zm17.637-.037l.078-.066a4.619 4.619 0 0 1 .817-.547 4.564 4.564 0 0 1 2.124-.521 4.602 4.602 0 0 1 4.564 4.05l.01.105a6.511 6.511 0 0 1 .015.2h3.126c.378 0 1.262-.11 1.3-1.125l-.001-2.508c-3.534-.776-4.432-3.686-4.66-5.086-.94-.192-2.01-.29-3.196-.29H6.863c-.831.02-1.258.54-1.258 1.548v2.512h2.239v4.949h1.079l.012-.179c.038-.428.136-.84.285-1.227l.019-.046c.043-.11.09-.218.143-.323l.027-.054c.02-.04.04-.08.061-.118l.038-.066c.023-.042.047-.084.072-.125l.02-.03c.099-.162.209-.318.328-.465l.02-.025c.245-.302.529-.571.842-.802l.028-.02c.044-.033.089-.064.134-.095l.03-.02a4.566 4.566 0 0 1 2.531-.76c.703 0 1.369.158 1.965.441a4.603 4.603 0 0 1 2.624 3.914h11.476a4.569 4.569 0 0 1 1.219-2.88l-.069.076c.04-.045.08-.089.122-.132l.15-.15c.048-.046.098-.091.148-.135zm-24.473-.558l-1.07-.001v3.78h1.07v-3.78zm33.094-4.604l.03.116c.309 1.162 1.138 2.819 3.357 3.422a3.815 3.815 0 0 0-.952-2.03c-.577-.646-1.398-1.152-2.435-1.508zm-6.388-1.796l-6.098-4.035h-5.487v4.035h11.585zM20.627 15.56h-6.849l-3.529 4.035h10.378V15.56z"/>
</svg>
