<?xml version="1.0" encoding="UTF-8"?>
<svg width="20px" height="21px" viewBox="0 0 20 21" version="1.1" xmlns="http://www.w3.org/2000/svg" xmlns:xlink="http://www.w3.org/1999/xlink">
    <!-- Generator: sketchtool 55.2 (78181) - https://sketchapp.com -->
    <title>233D01D9-09F8-4A88-AD54-F3349F7973EA</title>
    <desc>Created with sketchtool.</desc>
    <g id="Message-center" stroke="none" stroke-width="1" fill="none" fill-rule="evenodd">
        <g id="5.-Messaging-Centre-(Inbox)" transform="translate(-413.000000, -349.000000)">
            <g id="Group-8" transform="translate(414.000000, 350.000000)">
                <rect id="Rectangle" fill="#FFBD64" x="6" y="3" width="10" height="16"></rect>
                <g id="Group-4" fill="#0B1D81" fill-rule="nonzero" stroke="#0B1D81" stroke-width="0.652800015">
                    <path d="M5.75800185,15.8026404 C6.07789084,15.8026404 6.33780065,15.5425969 6.33780065,15.2225434 L6.33780065,6.50108623 C6.33780065,6.18103275 6.07789084,5.9209893 5.75800185,5.9209893 C5.43811286,5.9209893 5.17820305,6.18103275 5.17820305,6.50108623 L5.17820305,15.2225434 C5.17820305,15.5425969 5.43811286,15.8026404 5.75800185,15.8026404 Z" id="Path"></path>
                    <path d="M9.21680157,15.8026404 C9.53669056,15.8026404 9.79660037,15.5425969 9.79660037,15.2225434 L9.79660037,6.50108623 C9.79660037,6.18103275 9.53669056,5.9209893 9.21680157,5.9209893 C8.89691258,5.9209893 8.63700278,6.18103275 8.63700278,6.50108623 L8.63700278,15.2225434 C8.63700278,15.5425969 8.89691258,15.8026404 9.21680157,15.8026404 Z" id="Path"></path>
                    <path d="M12.6756013,15.8026404 C12.9954903,15.8026404 13.2554001,15.5425969 13.2554001,15.2225434 L13.2554001,6.50108623 C13.2554001,6.18103275 12.9954903,5.9209893 12.6756013,5.9209893 C12.3557123,5.9209893 12.0958025,6.18103275 12.0958025,6.50108623 L12.0958025,15.2225434 C12.0758094,15.5425969 12.3357192,15.8026404 12.6756013,15.8026404 Z" id="Path"></path>
                    <path d="M17.8737974,2.58043115 L13.4753238,2.58043115 L12.2957331,0.700116979 C12.0158302,0.260043449 11.5559898,1.15463195e-14 11.0361702,1.15463195e-14 L7.39743293,1.15463195e-14 C6.87761332,1.15463195e-14 6.4177729,0.260043449 6.13787003,0.700116979 L4.97827243,2.58043115 L0.579798797,2.58043115 C0.259909806,2.58043115 2.38031816e-13,2.8404746 2.38031816e-13,3.16052807 C2.38031816e-13,3.48058155 0.259909806,3.740625 0.579798797,3.740625 L1.5794519,3.740625 L1.5794519,17.122861 C1.5794519,18.1430314 2.39916744,18.9631684 3.4188136,18.9631684 L15.0547757,18.9631684 C16.0744218,18.9631684 16.8941374,18.1430314 16.8941374,17.122861 L16.8941374,3.76062834 L17.8737974,3.76062834 C18.1936864,3.76062834 18.4535962,3.50058489 18.4535962,3.18053142 C18.4535962,2.86047794 18.1936864,2.58043115 17.8737974,2.58043115 Z M7.13752313,1.32022059 C7.19750231,1.24020722 7.27747456,1.18019719 7.39743293,1.18019719 L11.0561633,1.18019719 C11.1561286,1.18019719 11.2560939,1.24020722 11.3160731,1.32022059 L12.0958025,2.58043115 L6.35779371,2.58043115 L7.13752313,1.32022059 Z M15.6945537,17.1628676 C15.6945537,17.5229278 15.3946577,17.8229779 15.0347826,17.8229779 L3.39882054,17.8229779 C3.03894542,17.8229779 2.73904949,17.5229278 2.73904949,17.1628676 L2.73904949,3.76062834 L15.7145467,3.76062834 L15.7145467,17.1628676 L15.6945537,17.1628676 Z" id="Shape"></path>
                </g>
            </g>
        </g>
    </g>
</svg>