<svg xmlns="http://www.w3.org/2000/svg" xmlns:xlink="http://www.w3.org/1999/xlink" width="28" height="12" viewBox="0 0 28 12">
    <defs>
        <path id="a" d="M26.396 2.787l-3.032-.45a15.11 15.11 0 0 0-1.718-.946A14.555 14.555 0 0 0 15.428 0h-.527c-2.53.002-5.02.662-7.244 1.92l-1.53.866c-1.79.021-3.547.516-5.103 1.438A2.133 2.133 0 0 0 0 6.057V8.81c0 .257.2.464.446.464h1.499c.487 1.445 2.01 2.206 3.4 1.7a2.722 2.722 0 0 0 1.636-1.7h11.924c.487 1.445 2.01 2.206 3.4 1.7a2.722 2.722 0 0 0 1.636-1.7h.16a.433.433 0 0 0 .166-.033l1.445-.603c.646-.265 1.07-.915 1.067-1.636V3.246a.459.459 0 0 0-.383-.46zM6.212 8.717c-.197 1.004-1.14 1.652-2.106 1.447-.966-.206-1.59-1.185-1.392-2.19.197-1.003 1.14-1.65 2.107-1.445.83.176 1.427.936 1.427 1.818 0 .124-.012.249-.036.37zm8.07-.37H7.141c0-1.537-1.199-2.783-2.678-2.783-1.479 0-2.678 1.246-2.678 2.783H.893v-2.29c0-.425.22-.817.574-1.028a9.371 9.371 0 0 1 4.781-1.32h8.034v4.638zm0-5.565H7.999l.086-.049A13.865 13.865 0 0 1 14.282.948v1.834zm.893-1.855h.252c1.799-.002 3.581.353 5.252 1.046l-.78.81h-4.724V.926zm7.997 7.79c-.197 1.004-1.14 1.652-2.106 1.447-.966-.206-1.59-1.185-1.392-2.19.197-1.003 1.14-1.65 2.106-1.445.832.176 1.428.936 1.428 1.818 0 .124-.012.249-.036.37zm2.714-4.544h-1.339v.928h1.34v1.901a.83.83 0 0 1-.506.775l-1.28.534c0-.043-.005-.085-.008-.128-.003-.042-.004-.092-.008-.139-.005-.046-.014-.093-.02-.139-.008-.046-.013-.093-.022-.135-.009-.042-.022-.089-.034-.133-.011-.044-.02-.088-.034-.132-.013-.043-.03-.084-.044-.126l-.045-.128c-.015-.041-.036-.08-.055-.119-.019-.04-.037-.082-.058-.122-.021-.04-.045-.074-.065-.111a1.449 1.449 0 0 0-.07-.117c-.025-.039-.05-.069-.074-.103-.024-.034-.052-.075-.08-.11-.029-.036-.056-.064-.083-.093-.028-.03-.059-.069-.09-.101-.03-.032-.06-.058-.091-.087-.031-.028-.064-.062-.098-.093-.034-.03-.069-.053-.102-.08-.034-.026-.068-.054-.104-.079-.036-.024-.076-.046-.114-.072a1.29 1.29 0 0 0-.106-.066c-.036-.02-.081-.041-.122-.062-.041-.02-.073-.038-.111-.055-.038-.016-.09-.034-.134-.05-.045-.017-.074-.03-.112-.043-.05-.016-.103-.028-.155-.041-.034-.008-.066-.02-.1-.027-.055-.012-.112-.018-.168-.027-.033-.004-.064-.012-.097-.015a2.62 2.62 0 0 0-.272-.014c-1.479.001-2.677 1.246-2.678 2.782h-3.572V3.71h4.91a.437.437 0 0 0 .315-.135l1.157-1.203c.486.24.958.509 1.415.804a.437.437 0 0 0 .173.066l2.741.407v.525zm-14.728 0h1.785v.928h-1.785v-.928z"/>
    </defs>
    <g fill="none" fill-rule="evenodd" transform="translate(.588 .412)">
        <mask id="b" fill="#fff">
            <use xlink:href="#a"/>
        </mask>
        <use fill="#0B1D81" fill-rule="nonzero" xlink:href="#a"/>
        <g fill="#0B1D81" mask="url(#b)">
            <path d="M0-7.824h27v27H0z"/>
        </g>
    </g>
</svg>
