<svg xmlns="http://www.w3.org/2000/svg" xmlns:xlink="http://www.w3.org/1999/xlink" width="18" height="20" viewBox="0 0 18 20">
    <defs>
        <path id="a" d="M17.151 3.41L10.881.138c-.595-.31-1.413-.072-1.735.502L5.477 7.21h-4.46C.446 7.21 0 7.64 0 8.19v10.634c0 .55.446.98 1.016.98h14.251c.57 0 1.017-.43 1.017-.98v-2.486h.421a.385.385 0 0 0 .397-.382v-2.844a.385.385 0 0 0-.397-.382h-.421V9.934c0-.454-.347-.86-.793-.956l2.18-3.895c.323-.597.1-1.338-.52-1.672zM12.69 1.954L8.774 8.955H7.659l4.188-7.432.843.43zM9.864.997a.497.497 0 0 1 .645-.19l.62.334-4.363 7.814H5.403L9.864.997zM.768 8.166c0-.072.1-.191.223-.191h4.04l-.545.956H.991c-.074 0-.148 0-.223.024v-.789zm14.698 10.658c0 .12-.1.215-.223.215H.99a.218.218 0 0 1-.223-.215v-8.89c0-.12.1-.215.223-.215H15.217c.125 0 .224.096.224.215v2.796h-1.512c-.67 0-1.19.526-1.19 1.147v1.314c0 .646.546 1.147 1.19 1.147h1.537v2.486zm.793-5.33h.025v2.08h-2.355a.385.385 0 0 1-.396-.383v-1.314c0-.215.173-.382.396-.382h2.33zm.694-8.793l-2.38 4.254H9.666l3.718-6.62 3.37 1.769c.248.095.323.382.199.597z"/>
    </defs>
    <g fill="none" fill-rule="evenodd" transform="translate(.059 -.059)">
        <mask id="b" fill="#fff">
            <use xlink:href="#a"/>
        </mask>
        <g fill="#0B1D81" mask="url(#b)">
            <path d="M-4.47-3.353h27v27h-27z"/>
        </g>
    </g>
</svg>
